<svg width="100" height="28" viewBox="0 0 100 28" fill="none" xmlns="http://www.w3.org/2000/svg">
<path fill-rule="evenodd" clip-rule="evenodd" d="M28 14C28 18.9056 25.4769 23.222 21.6575 25.7221C19.3386 24.2367 16.3337 21.3866 14.757 18.9861C14.3521 18.3696 14.086 17.8488 13.9434 17.4439C13.9111 17.3524 13.888 17.2747 13.8713 17.2097C14.0736 17.1759 14.397 17.1505 14.8825 17.1791C17.9545 17.3598 20.4224 16.8454 22.1287 15.663C23.9295 14.4151 24.7411 12.4929 24.3848 10.5195C23.7098 6.78091 19.3744 4.24125 14.1474 4.72926C8.46638 5.25965 6.12343 10.1622 4.85243 14.471C4.31125 16.3056 3.90044 18.2544 3.52635 20.0289L3.52635 20.0289C3.44687 20.4059 3.36905 20.7751 3.292 21.1336C3.18046 21.6525 3.07111 22.1458 2.96153 22.6122C1.10584 20.2371 0 17.2477 0 14C0 6.26801 6.26801 0 14 0C21.732 0 28 6.26801 28 14ZM11.4137 21.1821C12.854 23.3749 15.1679 25.7716 17.4185 27.5797C16.3244 27.8542 15.1792 28 14 28C11.1495 28 8.49794 27.1481 6.28609 25.685C6.6446 24.5035 6.93387 23.2248 7.20268 21.9741C7.28676 21.5829 7.36941 21.1914 7.45194 20.8004L7.45198 20.8002L7.45209 20.7997C7.82567 19.0298 8.197 17.2706 8.68899 15.6027C9.93181 11.3894 11.5889 8.98553 14.5192 8.71194C18.6256 8.32856 20.2901 10.3532 20.4485 11.2302C20.5088 11.5644 20.4455 11.9628 19.8504 12.3752C19.1609 12.8531 17.7121 13.3386 15.1174 13.186C13.9787 13.119 12.8805 13.2157 11.9525 13.6375C10.9268 14.1038 10.1926 14.938 9.93136 16.038C9.69863 17.0182 9.89417 17.9882 10.1707 18.7731C10.4568 19.5851 10.9023 20.4035 11.4137 21.1821ZM53.9099 23.9999V9.45449H57.944V23.9999H53.9099ZM55.9364 7.57949C55.3366 7.57949 54.8221 7.38062 54.3928 6.98289C53.9698 6.57886 53.7584 6.0959 53.7584 5.53403C53.7584 4.97848 53.9698 4.50183 54.3928 4.10411C54.8221 3.70007 55.3366 3.49805 55.9364 3.49805C56.5361 3.49805 57.0475 3.70007 57.4705 4.10411C57.8998 4.50183 58.1144 4.97848 58.1144 5.53403C58.1144 6.0959 57.8998 6.57886 57.4705 6.98289C57.0475 7.38062 56.5361 7.57949 55.9364 7.57949ZM37.019 23.9999V4.606H44.6705C46.1351 4.606 47.3851 4.868 48.4205 5.39199C49.4621 5.90966 50.2544 6.64514 50.7974 7.59843C51.3466 8.5454 51.6212 9.65966 51.6212 10.9412C51.6212 12.2291 51.3435 13.3371 50.7879 14.2651C50.2323 15.1868 49.4274 15.8939 48.3731 16.3863C48.3153 16.4135 48.2569 16.4399 48.1977 16.4655L52.3125 23.9999H47.786L44.1125 17.1249H41.1193V23.9999H37.019ZM41.1193 13.8295H43.9034C44.6863 13.8295 45.3365 13.7222 45.8542 13.5075C46.3719 13.2929 46.757 12.9709 47.0095 12.5416C47.2683 12.1123 47.3977 11.5789 47.3977 10.9412C47.3977 10.2973 47.2683 9.75436 47.0095 9.31244C46.757 8.87052 46.3687 8.53593 45.8447 8.30865C45.327 8.07507 44.6736 7.95827 43.8845 7.95827H41.1193V13.8295ZM69.1175 23.9999L74.2028 9.45449H69.9319L66.9206 19.8617H66.7691L63.7482 9.45449H59.4869L64.5721 23.9999H69.1175ZM81.8939 24.284C80.3977 24.284 79.1098 23.981 78.0302 23.3749C76.957 22.7626 76.13 21.8977 75.5492 20.7802C74.9684 19.6565 74.678 18.3276 74.678 16.7935C74.678 15.2973 74.9684 13.9842 75.5492 12.8541C76.13 11.7241 76.9475 10.8434 78.0018 10.2121C79.0624 9.58075 80.3061 9.26509 81.7329 9.26509C82.6925 9.26509 83.5858 9.41977 84.4128 9.72911C85.2461 10.0321 85.9722 10.4898 86.5908 11.1022C87.2158 11.7146 87.702 12.4848 88.0492 13.4128C88.3964 14.3345 88.57 15.4141 88.57 16.6515V17.7594H78.6647V17.7689C78.6647 18.4886 78.7973 19.1104 79.0624 19.6344C79.3339 20.1584 79.7158 20.5624 80.2083 20.8465C80.7007 21.1306 81.2847 21.2727 81.9602 21.2727C82.4084 21.2727 82.8187 21.2095 83.1912 21.0833C83.5637 20.957 83.8825 20.7676 84.1477 20.5151C84.4128 20.2626 84.6148 19.9532 84.7537 19.5871L88.4848 19.8333C88.2954 20.7297 87.9071 21.5126 87.32 22.1818C86.7392 22.8446 85.9879 23.3623 85.0662 23.7348C84.1508 24.101 83.0934 24.284 81.8939 24.284ZM79.0719 13.8295C78.8273 14.2605 78.6928 14.7371 78.6685 15.2594H84.7727C84.7727 14.6786 84.6464 14.1641 84.3939 13.7159C84.1413 13.2676 83.791 12.9172 83.3427 12.6647C82.9008 12.4059 82.3863 12.2765 81.7992 12.2765C81.1868 12.2765 80.6439 12.4185 80.1704 12.7026C79.7032 12.9804 79.3371 13.356 79.0719 13.8295ZM90.6692 9.45449V23.9999H94.7033V15.7708C94.7033 15.1773 94.8359 14.6533 95.1011 14.1988C95.3725 13.7443 95.7387 13.3907 96.1995 13.1382C96.6667 12.8794 97.197 12.7499 97.7905 12.7499C98.0682 12.7499 98.3744 12.772 98.709 12.8162C99.0436 12.8604 99.3056 12.9109 99.495 12.9677V9.3882C99.3182 9.34401 99.1131 9.30929 98.8795 9.28403C98.6459 9.25878 98.4281 9.24615 98.2261 9.24615C97.4117 9.24615 96.692 9.47974 96.067 9.94691C95.442 10.4078 94.9969 11.0896 94.7317 11.9924H94.5802V9.45449H90.6692Z" fill="black"/>
</svg>
