<svg width="60" height="60" viewBox="0 0 60 60" fill="none" xmlns="http://www.w3.org/2000/svg">
<path d="M51.6196 6.68549L32.8813 20.6026L36.3465 12.3917L51.6196 6.68549Z" fill="#E2761B" stroke="#E2761B" stroke-linecap="round" stroke-linejoin="round"/>
<path d="M8.36168 6.68549L26.9492 20.7344L23.6536 12.3917L8.36168 6.68549ZM44.8777 38.9454L39.8871 46.5913L50.5651 49.5292L53.6347 39.1149L44.8777 38.9454ZM6.38428 39.1149L9.43512 49.5292L20.1131 46.5913L15.1225 38.9454L6.38428 39.1149Z" fill="#E4761B" stroke="#E4761B" stroke-linecap="round" stroke-linejoin="round"/>
<path d="M19.5104 26.0264L16.5349 30.5273L27.1375 30.9981L26.7609 19.6045L19.5104 26.0264ZM40.4709 26.0264L33.1262 19.4727L32.8814 30.9981L43.4652 30.5273L40.4709 26.0264ZM20.1131 46.5914L26.4784 43.484L20.9794 39.1902L20.1131 46.5914ZM33.5029 43.484L39.8871 46.5914L39.002 39.1902L33.5029 43.484Z" fill="#E4761B" stroke="#E4761B" stroke-linecap="round" stroke-linejoin="round"/>
<path d="M39.887 46.5914L33.5029 43.484L34.0113 47.646L33.9548 49.3974L39.887 46.5914ZM20.113 46.5914L26.0452 49.3974L26.0076 47.646L26.4784 43.484L20.113 46.5914Z" fill="#D7C1B3" stroke="#D7C1B3" stroke-linecap="round" stroke-linejoin="round"/>
<path d="M26.1393 36.4407L20.8286 34.8776L24.5763 33.1638L26.1393 36.4407ZM33.8418 36.4407L35.4049 33.1638L39.1714 34.8776L33.8418 36.4407Z" fill="#233447" stroke="#233447" stroke-linecap="round" stroke-linejoin="round"/>
<path d="M20.1129 46.5913L21.0169 38.9454L15.1223 39.1149L20.1129 46.5913ZM38.983 38.9454L39.8869 46.5913L44.8775 39.1149L38.983 38.9454ZM43.4651 30.5273L32.8813 30.9981L33.8605 36.4407L35.4236 33.1638L39.1901 34.8776L43.4651 30.5273ZM20.8285 34.8776L24.595 33.1638L26.1393 36.4407L27.1374 30.9981L16.5347 30.5273L20.8285 34.8776Z" fill="#CD6116" stroke="#CD6116" stroke-linecap="round" stroke-linejoin="round"/>
<path d="M16.5349 30.5273L20.9794 39.1902L20.8287 34.8776L16.5349 30.5273ZM39.1903 34.8776L39.002 39.1902L43.4652 30.5273L39.1903 34.8776ZM27.1375 30.9981L26.1394 36.4407L27.3824 42.8625L27.6649 34.4068L27.1375 30.9981ZM32.8814 30.9981L32.373 34.3879L32.5989 42.8625L33.8607 36.4407L32.8814 30.9981Z" fill="#E4751F" stroke="#E4751F" stroke-linecap="round" stroke-linejoin="round"/>
<path d="M33.8606 36.4407L32.5989 42.8625L33.5028 43.484L39.0019 39.1902L39.1902 34.8776L33.8606 36.4407ZM20.8286 34.8776L20.9793 39.1902L26.4783 43.484L27.3823 42.8625L26.1393 36.4407L20.8286 34.8776Z" fill="#F6851B" stroke="#F6851B" stroke-linecap="round" stroke-linejoin="round"/>
<path d="M33.9548 49.3973L34.0113 47.6459L33.5405 47.2316H26.4407L26.0076 47.6459L26.0452 49.3973L20.113 46.5913L22.1846 48.2862L26.3842 51.2052H33.597L37.8155 48.2862L39.887 46.5913L33.9548 49.3973Z" fill="#C0AD9E" stroke="#C0AD9E" stroke-linecap="round" stroke-linejoin="round"/>
<path d="M33.5029 43.484L32.5989 42.8625H27.3823L26.4784 43.484L26.0076 47.646L26.4407 47.2317H33.5405L34.0113 47.646L33.5029 43.484Z" fill="#161616" stroke="#161616" stroke-linecap="round" stroke-linejoin="round"/>
<path d="M52.4106 21.5066L54.0114 13.823L51.6197 6.68549L33.5029 20.1318L40.4709 26.0264L50.3202 28.9077L52.5048 26.3653L51.5632 25.6874L53.0697 24.3126L51.9021 23.4086L53.4087 22.2599L52.4106 21.5066ZM5.98877 13.823L7.58952 21.5066L6.57257 22.2599L8.07917 23.4086L6.93039 24.3126L8.43698 25.6874L7.49536 26.3653L9.66109 28.9077L19.5104 26.0264L26.4784 20.1318L8.36165 6.68549L5.98877 13.823Z" fill="#763D16" stroke="#763D16" stroke-linecap="round" stroke-linejoin="round"/>
<path d="M50.3203 28.9077L40.4709 26.0264L43.4653 30.5273L39.002 39.1902L44.8777 39.1149H53.6347L50.3203 28.9077ZM19.5105 26.0264L9.66111 28.9077L6.38428 39.1149H15.1225L20.9794 39.1902L16.5349 30.5273L19.5105 26.0264ZM32.8815 30.9981L33.5029 20.1318L36.3654 12.3917H23.6536L26.4784 20.1318L27.1376 30.9981L27.3636 34.4256L27.3824 42.8625H32.599L32.6366 34.4256L32.8815 30.9981Z" fill="#F6851B" stroke="#F6851B" stroke-linecap="round" stroke-linejoin="round"/>
</svg>
