<svg width="60" height="60" viewBox="0 0 60 60" fill="none" xmlns="http://www.w3.org/2000/svg">
<g clip-path="url(#clip0_209_680)">
<rect width="60" height="60" fill="#12FF80"/>
<path fill-rule="evenodd" clip-rule="evenodd" d="M18.1207 21.0913C18.1207 19.7524 19.1732 18.6676 20.472 18.6676H37.7626C39.0614 18.6676 40.1138 17.5827 40.1138 16.244V11.7612C40.1138 10.4223 39.0614 9.33746 37.7626 9.33746H19.4697C18.1709 9.33746 17.1184 10.4223 17.1184 11.7612V15.2153C17.1184 16.5541 16.066 17.639 14.7672 17.639H11.4206C10.1218 17.639 9.06934 18.7238 9.06934 20.0627V27.6267C9.06934 28.9656 10.1262 29.996 11.425 29.996H15.7738C17.0727 29.996 18.1252 28.9112 18.1252 27.5723L18.1207 21.0913ZM46.8247 29.9969H42.4759C41.177 29.9969 40.1246 31.0818 40.1246 32.4206V38.9271C40.1246 40.2658 39.0721 41.3507 37.7733 41.3507H20.4722C19.1733 41.3507 18.1208 42.4356 18.1208 43.7744V48.2572C18.1208 49.5959 19.1733 50.6808 20.4722 50.6808H38.7747C40.0736 50.6808 41.111 49.5959 41.111 48.2572V44.6606C41.111 43.3218 42.1635 42.3721 43.4623 42.3721H46.8239C48.1226 42.3721 49.1751 41.2872 49.1751 39.9483V32.3924C49.1751 31.0537 48.1235 29.9969 46.8247 29.9969ZM31.253 25.2846H27.0757C25.7154 25.2846 24.6101 26.423 24.6101 27.8262V32.1321C24.6101 33.5343 25.7145 34.6736 27.0757 34.6736H31.253C32.6135 34.6736 33.7187 33.5352 33.7187 32.1321V27.8262C33.7187 26.4238 32.6144 25.2846 31.253 25.2846Z" fill="black"/>
</g>
<defs>
<clipPath id="clip0_209_680">
<rect width="60" height="60" rx="12" fill="white"/>
</clipPath>
</defs>
</svg>
