<svg width="60" height="60" viewBox="0 0 60 60" fill="none" xmlns="http://www.w3.org/2000/svg">
<g clip-path="url(#clip0_209_660)">
<path fill-rule="evenodd" clip-rule="evenodd" d="M30 0C46.5703 0 60 13.4297 60 30C60 46.5703 46.5703 60 30 60C13.4297 60 0 46.5703 0 30C0 13.4297 13.4297 0 30 0Z" fill="url(#paint0_radial_209_660)"/>
<path d="M19.0664 23.168C25.1016 17.2734 34.8984 17.2734 40.9336 23.168L41.6602 23.8828C41.9648 24.1758 41.9648 24.6562 41.6602 24.9492L39.1758 27.375C39.0234 27.5273 38.7773 27.5273 38.625 27.375L37.6289 26.4023C33.4102 22.2891 26.5898 22.2891 22.3711 26.4023L21.3047 27.4453C21.1523 27.5977 20.9062 27.5977 20.7539 27.4453L18.2695 25.0195C17.9648 24.7266 17.9648 24.2461 18.2695 23.9531L19.0664 23.168ZM46.0781 28.1836L48.293 30.3398C48.5977 30.6328 48.5977 31.1133 48.293 31.4062L38.3203 41.1445C38.0156 41.4375 37.5234 41.4375 37.2305 41.1445L30.1523 34.2305C30.082 34.1602 29.9531 34.1602 29.8828 34.2305L22.8047 41.1445C22.5 41.4375 22.0078 41.4375 21.7148 41.1445L11.707 31.4062C11.4023 31.1133 11.4023 30.6328 11.707 30.3398L13.9219 28.1836C14.2266 27.8906 14.7188 27.8906 15.0117 28.1836L22.0898 35.0977C22.1602 35.168 22.2891 35.168 22.3594 35.0977L29.4375 28.1836C29.7422 27.8906 30.2344 27.8906 30.5273 28.1836L37.6055 35.0977C37.6758 35.168 37.8047 35.168 37.875 35.0977L44.9531 28.1836C45.2812 27.8906 45.7734 27.8906 46.0781 28.1836Z" fill="white"/>
</g>
<defs>
<radialGradient id="paint0_radial_209_660" cx="0" cy="0" r="1" gradientUnits="userSpaceOnUse" gradientTransform="translate(0.000185966 30.0009) scale(60)">
<stop stop-color="#5D9DF6"/>
<stop offset="1" stop-color="#006FFF"/>
</radialGradient>
<clipPath id="clip0_209_660">
<rect width="60" height="60" fill="white"/>
</clipPath>
</defs>
</svg>
