<svg width="24" height="24" viewBox="0 0 24 24" fill="none" xmlns="http://www.w3.org/2000/svg">
<g clip-path="url(#clip0_8_2930)">
<circle cx="12" cy="12" r="12" fill="#0033AD"/>
<path d="M7.66353 12.4068C7.62257 13.1184 8.17039 13.7277 8.88204 13.7686C8.90764 13.7686 8.93324 13.7686 8.95883 13.7686C9.6756 13.7686 10.2541 13.1901 10.249 12.4733C10.249 11.7566 9.67048 11.178 8.95371 11.1831C8.26766 11.1831 7.69937 11.7207 7.66353 12.4068Z" fill="white"/>
<path d="M2.84063 12.074C2.61024 12.0587 2.41057 12.2379 2.40033 12.4683C2.39009 12.6987 2.56416 12.8983 2.79455 12.9086C3.02494 12.9239 3.2195 12.7447 3.23485 12.5143C3.25021 12.2839 3.07102 12.0894 2.84063 12.074Z" fill="white"/>
<path d="M7.58162 4.90119C7.78641 4.79879 7.86833 4.5428 7.76593 4.33801C7.66354 4.13322 7.40755 4.05131 7.20276 4.1537C6.99797 4.2561 6.91605 4.50697 7.01845 4.71176C7.12084 4.92167 7.37171 5.0087 7.58162 4.90119C7.5765 4.90119 7.58162 4.90119 7.58162 4.90119Z" fill="white"/>
<path d="M8.89234 7.18979C9.20977 7.03108 9.33776 6.64198 9.17905 6.32455C9.02034 6.00713 8.63123 5.87913 8.31381 6.03784C7.99638 6.19656 7.86839 6.58566 8.0271 6.90309C8.18581 7.22051 8.57492 7.34851 8.89234 7.18979Z" fill="white"/>
<path d="M4.47915 8.76151C4.7249 8.92022 5.05257 8.85366 5.2164 8.60791C5.37511 8.36216 5.30856 8.0345 5.06281 7.87067C4.81706 7.71195 4.48939 7.77851 4.32556 8.02426C4.16173 8.27001 4.23341 8.60279 4.47915 8.76151Z" fill="white"/>
<path d="M5.26234 11.8436C4.90395 11.8231 4.60189 12.0945 4.58141 12.4529C4.56093 12.8113 4.83228 13.1133 5.19066 13.1338C5.54905 13.1543 5.85111 12.8829 5.87159 12.5245C5.89207 12.1713 5.62072 11.8641 5.26234 11.8436Z" fill="white"/>
<path d="M4.55079 16.18C4.28968 16.3131 4.18217 16.6306 4.31528 16.8968C4.44839 17.1579 4.76582 17.2654 5.03205 17.1323C5.29316 16.9992 5.40067 16.6818 5.26756 16.4155C5.13444 16.1544 4.8119 16.0469 4.55079 16.18Z" fill="white"/>
<path d="M7.05955 10.5073C7.41282 10.7377 7.88384 10.6404 8.10911 10.2872C8.3395 9.93389 8.24222 9.46287 7.88896 9.2376C7.53569 9.00721 7.06467 9.10448 6.8394 9.45775C6.60901 9.80589 6.70629 10.2769 7.05955 10.5073Z" fill="white"/>
<path d="M15.0207 7.13843C15.3177 7.33299 15.7221 7.25107 15.9167 6.95412C16.1112 6.65718 16.0293 6.25271 15.7324 6.05816C15.4354 5.86361 15.0309 5.94553 14.8364 6.24247C14.6367 6.54454 14.7186 6.94388 15.0207 7.13843Z" fill="white"/>
<path d="M16.3414 4.86023C16.5359 4.98823 16.7919 4.93191 16.9199 4.73736C17.0479 4.54281 16.9916 4.28682 16.797 4.15882C16.6025 4.03083 16.3465 4.08715 16.2185 4.27658C16.0956 4.47113 16.1519 4.73224 16.3414 4.86023Z" fill="white"/>
<path d="M15.1179 11.1729C14.4063 11.132 13.7919 11.6798 13.7561 12.3914C13.7151 13.1031 14.2629 13.7175 14.9746 13.7533C15.0002 13.7533 15.0258 13.7533 15.0462 13.7533C15.7579 13.7533 16.3364 13.1748 16.3364 12.458C16.3415 11.7771 15.804 11.2088 15.1179 11.1729Z" fill="white"/>
<path d="M9.31715 10.4152C9.5373 10.8503 9.98272 11.1268 10.4742 11.1268C11.1859 11.1268 11.7644 10.5483 11.7644 9.83151C11.7644 9.63184 11.7183 9.43217 11.6262 9.24786C11.3036 8.60789 10.5254 8.3519 9.89056 8.67445C9.25059 9.00211 8.9946 9.78032 9.31715 10.4152Z" fill="white"/>
<path d="M19.4492 8.76156C19.7103 8.62844 19.8127 8.3059 19.6796 8.04479C19.5465 7.78368 19.224 7.68128 18.9628 7.8144C18.7017 7.94751 18.5993 8.26494 18.7273 8.52605C18.8656 8.78715 19.183 8.89467 19.4492 8.76156Z" fill="white"/>
<path d="M16.1726 9.17105C15.7988 9.36048 15.6452 9.81614 15.8347 10.1899C16.0241 10.5636 16.4798 10.7172 16.8535 10.5278C17.2273 10.3384 17.3808 9.8827 17.1914 9.50896C17.002 9.13521 16.5463 8.98674 16.1726 9.17105Z" fill="white"/>
<path d="M11.9488 4.66565C12.2406 4.681 12.4915 4.45573 12.5119 4.16391C12.5324 3.87208 12.302 3.62121 12.0102 3.60073C11.7184 3.58537 11.4675 3.80552 11.447 4.09735C11.4317 4.3943 11.6569 4.64517 11.9488 4.66565Z" fill="white"/>
<path d="M11.9438 8.00894C12.3636 8.03454 12.722 7.712 12.7425 7.29217C12.7681 6.87235 12.4455 6.51397 12.0257 6.49349C11.6059 6.46789 11.2475 6.79044 11.227 7.21026C11.2065 7.63008 11.524 7.98846 11.9438 8.00894Z" fill="white"/>
<path d="M7.82714 15.7705C8.20089 15.5811 8.35448 15.1254 8.16505 14.7517C7.97562 14.3779 7.51996 14.2243 7.14621 14.4138C6.77247 14.6032 6.61888 15.0589 6.80831 15.4326C6.99774 15.8064 7.4534 15.9599 7.82714 15.7705Z" fill="white"/>
<path d="M12.4352 9.11991C12.0461 9.71892 12.2099 10.5176 12.8089 10.9067C13.4079 11.2958 14.2066 11.132 14.5957 10.533C14.9848 9.93395 14.821 9.13527 14.222 8.74617C14.0121 8.60793 13.7663 8.53625 13.5154 8.53625C13.0803 8.53625 12.6758 8.75641 12.4352 9.11991Z" fill="white"/>
<path d="M14.6828 14.5263C14.3603 13.8863 13.5821 13.6303 12.9472 13.9529C12.3072 14.2754 12.0512 15.0536 12.3738 15.6885C12.6963 16.3285 13.4745 16.5845 14.1094 16.2619C14.7442 15.9445 15.0053 15.1765 14.6879 14.5365C14.6879 14.5314 14.6879 14.5314 14.6828 14.5263Z" fill="white"/>
<path d="M16.9405 14.4341C16.5872 14.2037 16.1162 14.301 15.8909 14.6543C15.6605 15.0075 15.7578 15.4786 16.1111 15.7038C16.4643 15.9342 16.9353 15.8369 17.1606 15.4837C17.391 15.1355 17.2937 14.6645 16.9405 14.4341Z" fill="white"/>
<path d="M19.4185 12.4938C19.4389 12.1354 19.1676 11.8333 18.8092 11.8129C18.4508 11.7924 18.1488 12.0637 18.1283 12.4221C18.1078 12.7805 18.3792 13.0826 18.7375 13.103C19.0908 13.1235 19.398 12.847 19.4185 12.4938Z" fill="white"/>
<path d="M21.2054 12.033C20.975 12.0177 20.7753 12.1969 20.7651 12.4272C20.7548 12.6576 20.9289 12.8573 21.1593 12.8675C21.3897 12.8829 21.5842 12.7037 21.5996 12.4733C21.6098 12.2429 21.4358 12.0484 21.2054 12.033Z" fill="white"/>
<path d="M19.5208 16.1801C19.275 16.0214 18.9473 16.088 18.7835 16.3337C18.6248 16.5795 18.6914 16.9071 18.9371 17.071C19.1828 17.2297 19.5105 17.1631 19.6743 16.9174C19.8382 16.6716 19.7665 16.3388 19.5208 16.1801Z" fill="white"/>
<path d="M7.65337 20.0812C7.45882 19.9532 7.20283 20.0095 7.07484 20.1989C6.94684 20.3935 7.00316 20.6495 7.19259 20.7775C7.38714 20.9055 7.64313 20.8492 7.77113 20.6597C7.90424 20.4703 7.84792 20.2092 7.65337 20.0812Z" fill="white"/>
<path d="M16.4183 20.0403C16.2135 20.1427 16.1316 20.3987 16.234 20.6035C16.3364 20.8083 16.5924 20.8902 16.7972 20.7878C17.002 20.6854 17.0839 20.4346 16.9815 20.2298C16.8791 20.0199 16.6282 19.9328 16.4183 20.0403C16.4235 20.0403 16.4183 20.0403 16.4183 20.0403Z" fill="white"/>
<path d="M11.5648 15.8216C11.9539 15.2226 11.79 14.4239 11.191 14.0296C10.592 13.6405 9.79332 13.8044 9.3991 14.4034C9.00487 15.0024 9.17383 15.8011 9.77284 16.1953C9.98275 16.3335 10.2285 16.4052 10.4794 16.4052C10.9197 16.4103 11.3241 16.1902 11.5648 15.8216Z" fill="white"/>
<path d="M8.97927 17.803C8.68232 17.6085 8.27786 17.6904 8.08331 17.9873C7.88876 18.2843 7.97067 18.6888 8.26762 18.8833C8.56457 19.0779 8.96903 18.9959 9.16358 18.699C9.36325 18.402 9.28134 17.9976 8.97927 17.803Z" fill="white"/>
<path d="M11.9949 20.2758C11.703 20.2604 11.4522 20.4857 11.4317 20.7775C11.4112 21.0693 11.6416 21.3202 11.9334 21.3407C12.2253 21.356 12.4761 21.1359 12.4966 20.8441C12.512 20.5471 12.2867 20.2962 11.9949 20.2758Z" fill="white"/>
<path d="M12.0001 16.9327C11.5802 16.9071 11.2219 17.2296 11.2014 17.6495C11.1758 18.0693 11.4983 18.4277 11.9181 18.4482C12.338 18.4686 12.6963 18.1512 12.7168 17.7314C12.7424 17.3167 12.4199 16.9532 12.0001 16.9327Z" fill="white"/>
<path d="M15.1079 17.7518C14.7905 17.9156 14.6625 18.3047 14.8263 18.6221C14.9901 18.9395 15.3793 19.0675 15.6967 18.9037C16.0141 18.745 16.1421 18.3559 15.9834 18.0385C15.8196 17.721 15.4304 17.5879 15.1079 17.7518Z" fill="white"/>
</g>
<defs>
<clipPath id="clip0_8_2930">
<rect width="24" height="24" fill="white"/>
</clipPath>
</defs>
</svg>
