<svg width="24" height="24" viewBox="0 0 24 24" fill="none" xmlns="http://www.w3.org/2000/svg">
<g clip-path="url(#clip0_8_2948)">
<circle cx="12" cy="12" r="12" fill="#EDEFF0"/>
<path d="M18.0923 12.8561C15.9447 13.9653 13.7038 15.1263 11.9731 16.0247L5.90391 12.8561C8.10148 16.0312 9.93224 18.6744 11.9731 21.5998C14.0173 18.6809 16.2749 15.4604 18.0923 12.8561ZM17.8589 11.9804L11.9664 8.9221L6.15067 11.9577L11.9631 15.0193L17.8589 11.9804ZM11.9731 7.94266L18.0923 11.0756L11.9998 2.40002L5.90391 11.095L11.9731 7.94266Z" fill="#657ABD"/>
<path d="M17.8589 11.9805L11.9664 8.92212L6.15071 11.9578L11.9631 15.0193L17.8589 11.9805Z" fill="#9C68AA"/>
<path d="M11.9731 7.94266L18.0923 11.0756L11.9998 2.40002L5.90391 11.095L11.9731 7.94266Z" fill="#F48975"/>
<path d="M11.9733 7.9429L12 2.40027L5.90415 11.0953L11.9733 7.9429Z" fill="#F8EC66"/>
<path d="M6.15082 11.958L11.9666 8.92236L11.9632 15.0196L6.15082 11.958Z" fill="#50BA78"/>
<path d="M11.9734 16.0249L5.90421 12.8563C8.10179 16.0314 11.9734 21.6 11.9734 21.6V16.0249Z" fill="#10AED3"/>
</g>
<defs>
<clipPath id="clip0_8_2948">
<rect width="24" height="24" fill="white"/>
</clipPath>
</defs>
</svg>
