<svg width="24" height="24" viewBox="0 0 24 24" fill="none" xmlns="http://www.w3.org/2000/svg">
<g clip-path="url(#clip0_8_2958)">
<path d="M12 24C18.6274 24 24 18.6274 24 12C24 5.37258 18.6274 0 12 0C5.37258 0 0 5.37258 0 12C0 18.6274 5.37258 24 12 24Z" fill="#988430"/>
<path d="M11.9999 23.6156C18.415 23.6156 23.6155 18.4151 23.6155 12C23.6155 5.58488 18.415 0.384399 11.9999 0.384399C5.58476 0.384399 0.384277 5.58488 0.384277 12C0.384277 18.4151 5.58476 23.6156 11.9999 23.6156Z" fill="#7A6A2A"/>
<path d="M11.9998 23.3709C18.2797 23.3709 23.3706 18.28 23.3706 12C23.3706 5.72006 18.2797 0.62915 11.9998 0.62915C5.71982 0.62915 0.628906 5.72006 0.628906 12C0.628906 18.28 5.71982 23.3709 11.9998 23.3709Z" fill="#BA9F33"/>
<path fill-rule="evenodd" clip-rule="evenodd" d="M5.24659 10.7185C5.17862 10.6564 5.10681 10.5942 5.04076 10.5321C4.97471 10.47 4.90687 10.4078 4.83891 10.3457L4.63692 10.1537C4.6039 10.1207 4.56895 10.0917 4.53593 10.0585C4.50291 10.0294 4.46412 9.99642 4.4311 9.96724C4.16306 9.7129 3.8935 9.45857 3.62918 9.2041C3.90297 9.4546 4.171 9.7033 4.44479 9.95751L4.5399 10.0527C4.57292 10.0856 4.60787 10.1148 4.64089 10.1478L4.84275 10.3342C4.91071 10.3963 4.97676 10.4585 5.04473 10.5262C5.1127 10.5939 5.17875 10.6563 5.24671 10.7182L5.24659 10.7185ZM1.68934 10.6801C1.68934 10.6801 2.66406 10.7809 3.13983 10.8489C3.58054 10.9111 4.95923 11.1227 4.95923 11.1227L1.68934 10.6801ZM1.68934 10.6801C1.96313 10.7034 2.23692 10.7324 2.51071 10.7616C2.65049 10.7752 2.7845 10.7907 2.91852 10.8042L3.12422 10.8277C3.19219 10.8373 3.25823 10.847 3.3262 10.8567L4.14182 10.9868L4.5495 11.0547C4.68351 11.078 4.81753 11.1034 4.95731 11.1267C4.82329 11.1131 4.68351 11.0936 4.5495 11.0742L4.14182 11.0159L3.3262 10.8956C3.25823 10.8859 3.19219 10.8722 3.12422 10.8626L2.91839 10.8389C2.78438 10.8253 2.6446 10.8059 2.51059 10.7903C2.23679 10.7574 1.963 10.7223 1.68921 10.6797L1.68934 10.6801ZM4.8622 11.3766C4.8622 11.3766 3.82143 11.6408 3.46994 11.7418C3.12434 11.8369 2.07769 12.1554 2.07769 12.1554L4.86207 11.3768L4.8622 11.3766Z" fill="#CFB66C"/>
<path fill-rule="evenodd" clip-rule="evenodd" d="M4.86227 11.3767C4.63123 11.4447 4.40147 11.5107 4.1671 11.5729L3.47193 11.7593C3.24089 11.8273 3.01113 11.8933 2.78073 11.9613L2.43513 12.0564C2.32057 12.0895 2.20409 12.1185 2.08569 12.1517C2.20013 12.1133 2.31673 12.074 2.43129 12.0409L2.77689 11.9303C3.00793 11.8584 3.23769 11.7904 3.46809 11.7186C3.70297 11.6604 3.93414 11.5982 4.16902 11.5418C4.39225 11.4855 4.62726 11.4293 4.86227 11.3768V11.3767ZM2.22355 12.7963C2.33798 12.7535 3.65843 12.1381 3.96525 11.9943C4.11885 11.9224 4.56531 11.7639 4.56531 11.7639L2.22355 12.7963Z" fill="#CFB66C"/>
<path fill-rule="evenodd" clip-rule="evenodd" d="M2.22352 12.7962C2.32438 12.7578 2.41961 12.7108 2.51664 12.6662L2.804 12.5322L3.38076 12.2545C3.57276 12.1633 3.75939 12.0625 3.9574 11.9768C4.0584 11.9341 4.15939 11.8992 4.26025 11.8662L4.41385 11.8177C4.4662 11.8041 4.51484 11.7885 4.56745 11.7749C4.37545 11.8662 4.17334 11.9439 3.98108 12.0331C3.78908 12.1283 3.59273 12.206 3.39459 12.2914L2.80822 12.5496C2.61136 12.6293 2.41936 12.7147 2.22339 12.7962H2.22352ZM2.35152 13.3338C2.35152 13.3338 3.54755 12.6329 3.9592 12.4076C4.17475 12.2873 4.87184 11.9416 4.87184 11.9416L2.35152 13.3338Z" fill="#CFB66C"/>
<path fill-rule="evenodd" clip-rule="evenodd" d="M2.35132 13.334C2.55317 13.2097 2.759 13.0835 2.96482 12.9553L3.27202 12.7688C3.37685 12.7068 3.47785 12.6485 3.58473 12.5864C3.68956 12.5242 3.79055 12.4622 3.8973 12.4039C3.94812 12.3725 4.00137 12.3453 4.05653 12.3224L4.21961 12.2408C4.43516 12.136 4.65071 12.0291 4.87791 11.9379C4.67209 12.068 4.46037 12.1788 4.24879 12.2932C4.14396 12.3514 4.03708 12.4039 3.93225 12.4622C3.82741 12.5204 3.72642 12.5826 3.61954 12.6389C3.51471 12.701 3.41372 12.7592 3.30697 12.8156L2.99042 12.9884L2.35157 13.334H2.35132ZM4.86191 12.095C4.86191 12.095 4.11823 12.6659 3.87746 12.8485C3.63669 13.031 2.92796 13.5436 2.92796 13.5436L4.86191 12.095Z" fill="#CFB66C"/>
<path fill-rule="evenodd" clip-rule="evenodd" d="M9.13006 16.699L8.74951 15.9786L8.97082 15.0776L10.5494 14.468L9.87758 13.0894L10.2096 11.6972L10.833 10.4504L12.7592 10.1476L14.1747 8.7981L17.231 9.02914L17.831 12.2971L16.6757 16.4117L16.0175 18.5418L13.3494 18.6428L12.1107 17.7846L10.6602 17.1786L9.13006 16.699Z" fill="#E2CC85"/>
<path fill-rule="evenodd" clip-rule="evenodd" d="M13.81 16.6757C13.81 16.6757 13.441 16.8447 12.8116 16.8058C12.6295 16.5612 11.3538 16.4466 11.3538 16.4466C11.3538 16.4466 11.1946 16.3981 10.913 16.5146C10.6296 16.6298 10.3616 16.6156 10.1111 16.6777C9.86056 16.7397 9.61186 16.4136 9.41986 16.3456C9.22786 16.2738 8.97327 16.101 8.97327 16.101L8.43567 16.0485L7.35611 15.5922L5.64104 13.8835L5.17499 14.6131L5.03125 15.5161L5.54978 16.586L6.94587 17.8578L9.66818 18.549L11.2817 18.0736L13.3031 17.2192L13.81 16.6756V16.6757Z" fill="#F1D789"/>
<path fill-rule="evenodd" clip-rule="evenodd" d="M4.13792 10.6369L4.48352 9.59039L4.89529 8.91455L6.22137 8.80383L5.82329 9.96505L4.71469 11.9379L5.17485 13.6991L4.35936 14.1067L4.10873 13.7224L3.90688 12.8408L3.89331 11.8505L4.13792 10.6369Z" fill="#F4ECB4"/>
<path fill-rule="evenodd" clip-rule="evenodd" d="M5.62516 16.6039L5.37082 16.2485C5.37082 16.2485 5.30285 16.0796 5.34176 15.932C5.38016 15.7825 5.37466 15.7728 5.35533 15.7164C5.336 15.6601 5.1728 15.4659 5.18252 15.2989C5.19212 15.1299 5.16896 15.0736 5.29312 14.9397C5.42317 14.8097 5.38438 14.5844 5.38438 14.5844L5.55335 14.6892L5.59175 14.631C5.59175 14.631 5.65383 14.6795 5.65383 14.7553C5.6674 14.6505 5.61108 14.165 5.73921 14.0544C5.86734 13.9438 6.09454 14.5728 6.09454 14.5728L5.95476 13.6601L5.59546 12.7243L4.9566 11.8699L4.9182 10.9281V10.8466C4.9182 10.8466 4.62495 11.2971 4.54341 11.653C4.48517 11.8976 4.62495 12.1947 4.59589 12.5461C4.57247 12.8957 4.54341 12.8684 4.62879 13.0069C4.71416 13.1454 4.92204 13.4302 4.8405 13.6361C4.76869 13.8128 4.52395 13.6885 4.52395 13.6885C4.52395 13.6885 4.47544 13.8322 4.40939 13.8846C4.38609 13.7993 4.36088 13.7449 4.31429 13.6926C4.31032 13.7257 4.30072 13.7703 4.30072 13.7703C4.30072 13.7703 4.25796 13.6363 4.21521 13.4674C4.1571 13.2422 4.09489 12.9451 4.03857 12.7859C4.01527 12.8772 3.95703 13.1548 3.95703 13.1548L3.99006 13.582L4.14929 14.1684L4.30289 14.5524L4.4524 15.0223L4.58232 15.338L4.68716 15.5787L4.77842 16.1205L5.21913 16.5865L5.45414 16.6914L5.6249 16.604L5.62516 16.6039Z" fill="#F3E19D"/>
<path fill-rule="evenodd" clip-rule="evenodd" d="M4.36877 9.78253C4.36877 9.78253 4.05222 10.3201 3.96108 10.8621C3.86995 11.404 3.78828 11.9767 3.84588 12.7145C3.90412 13.4583 4.01484 13.9145 4.10419 14.2408C4.25779 14.7826 4.65562 15.536 4.65562 15.536L4.66919 15.5068C4.60232 15.3801 4.54895 15.2466 4.50995 15.1087C4.45747 14.9029 4.43802 14.6583 4.3895 14.5476C4.34675 14.437 4.27494 14.3418 4.24 14.2058C4.20698 14.0758 4.2016 13.87 4.10022 13.7166C4.05747 13.6544 4.00499 13.4913 3.9895 13.3283C3.97004 13.0835 3.99923 12.8097 3.97593 12.5846C3.93318 12.2098 3.90412 11.9555 3.94291 11.7592C3.98169 11.563 4.18381 11.006 4.3081 10.5632C4.38963 10.2797 4.34099 10.0408 4.4905 9.79418C4.64 9.54957 4.7314 9.33402 4.76429 9.18452C4.80269 9.04858 4.36826 9.78253 4.36826 9.78253H4.36877Z" fill="#F2E8B0"/>
<path fill-rule="evenodd" clip-rule="evenodd" d="M5.86998 9.56702C5.86998 9.56702 5.70691 9.61566 5.62921 9.70103C5.55151 9.78256 5.51849 9.85053 5.41365 9.98838C5.30882 10.1262 5.30293 10.2389 5.21743 10.4117C5.13205 10.5806 4.94363 10.835 4.92033 10.9262C4.89704 11.0175 4.85825 11.4446 4.80974 11.6466C4.76699 11.8486 4.85825 12.0971 4.85825 12.0971L4.96885 12.0737C4.96885 12.0737 4.96885 12.2175 5.07957 12.3146C5.19016 12.4097 5.20962 11.9922 5.20962 11.9922L5.62319 10.5961L6.24644 10.1728L6.31441 9.83108L5.86973 9.56702H5.86998Z" fill="#F5EEC0"/>
<path fill-rule="evenodd" clip-rule="evenodd" d="M6.1729 10.2C6.1729 10.2 5.87965 10.2193 5.73603 10.3243C5.67779 10.3669 5.6545 10.4019 5.59242 10.4543C5.47786 10.5495 5.36125 10.6369 5.30506 10.7615C5.24285 10.8857 5.17488 11.0741 5.12829 11.4295C5.10883 11.579 5.10883 11.7168 5.09527 11.8373C5.07581 12.0003 5.04675 12.1304 5.06224 12.2213C5.0817 12.4076 5.27395 12.5048 5.29264 12.7164L5.69072 12.5145L6.06551 11.0367L6.86167 10.5375L6.41111 10.0327L6.17239 10.1991L6.1729 10.2Z" fill="#E6DB9D"/>
<path fill-rule="evenodd" clip-rule="evenodd" d="M4.07264 20.1509C4.0743 20.1363 4.07597 20.1217 4.07763 20.1067C4.13574 19.6075 4.1456 19.2292 4.18822 18.9922C4.2503 18.6564 4.29305 18.5314 4.28333 18.4057C4.26976 18.2039 4.25427 18.0563 4.27373 17.9009C4.30278 17.6951 4.50477 17.4505 4.49901 17.2815C4.49504 17.1475 4.42707 17.0602 4.36883 16.9787C4.31059 16.8971 4.264 16.8292 4.264 16.8292C4.264 16.8292 4.66208 16.5554 4.65824 15.4524C4.66637 15.4547 4.67419 15.458 4.68153 15.4621L4.87763 16.0193L5.01165 16.1824L5.52621 17.1416L6.18835 17.7844L7.16691 18.4426L7.78054 19.1104L7.84262 20.891L7.0407 21.9318L6.90937 22.1696C5.86601 21.6458 4.90924 20.9649 4.07251 20.1508L4.07264 20.1509Z" fill="#E5CB7A"/>
<path fill-rule="evenodd" clip-rule="evenodd" d="M6.52246 21.8543C6.52246 21.8543 6.53603 21.633 6.71856 21.4892C6.74774 21.5377 6.76707 21.5845 6.76131 21.6193C6.79433 21.5612 7.02537 21.1883 7.54773 21.0912C8.0701 20.9961 8.1963 20.6155 8.1963 20.6155L9.3049 19.6078L10.5729 18.4408L12.1146 17.899L12.8351 17.7222C12.8351 17.7222 12.8487 17.7747 12.8215 17.8912C12.9554 17.8816 13.2525 17.8136 13.5613 17.7048C13.6855 17.6563 13.8021 17.6368 13.8642 17.7009C13.9555 17.7863 13.9691 17.9883 13.9748 18.1086C14.1243 18.0756 14.2971 17.932 14.4356 17.9456C14.6571 17.9689 14.8531 18.2291 15.0784 18.2291C15.3755 18.2291 15.5094 18.0465 15.7173 17.9028C15.8416 17.8174 16.0201 17.7108 16.1211 17.6387C16.3619 17.462 18.9094 16.6833 18.9094 16.6833L19.8026 16.7416L19.9464 17.7008L19.8696 20.2083C19.8601 20.2174 19.8506 20.2269 19.841 20.236L15.7799 22.3571L10.1505 23.2201C8.88946 23.014 7.67257 22.5955 6.55164 21.9822L6.52284 21.8542L6.52246 21.8543Z" fill="#D8C173"/>
<path fill-rule="evenodd" clip-rule="evenodd" d="M4.41406 20.4698C4.49406 20.3025 4.566 20.1626 4.57867 20.1125C4.58865 20.2134 4.60696 20.4347 4.64382 20.67C4.56642 20.6042 4.48984 20.5374 4.41406 20.4697V20.4698Z" fill="#F1D789"/>
<path fill-rule="evenodd" clip-rule="evenodd" d="M8.52629 22.8297L9.25435 22.6272L9.31643 22.6467C9.31643 22.6467 9.34945 22.6661 9.34945 22.732C9.44072 22.6797 9.51842 22.6893 9.57474 22.6545C9.60379 22.7165 9.63285 22.9224 9.7611 22.9476C9.89499 22.9768 10.0387 22.8893 10.1844 22.7788C10.328 22.6642 10.4916 22.5205 10.6154 22.4622C10.6608 22.5457 10.701 22.6319 10.7358 22.7204C10.8989 22.5903 11.1824 22.0622 11.5863 22.0718C11.703 21.796 11.898 21.5604 12.1472 21.3942C12.5219 21.1398 12.7568 21.1204 13.0501 21.1437C13.1665 20.9924 13.3101 20.864 13.4734 20.765C13.5219 20.7845 13.6559 20.866 13.8229 20.7883C13.9919 20.7108 14.1821 20.4097 14.4326 20.3709C14.5676 20.3524 14.7048 20.3812 14.8209 20.4525C14.8209 20.4525 15.5505 19.7281 16.054 19.4873C16.0345 19.4291 15.9957 19.2097 16.5859 18.7242C16.619 18.7534 16.5957 18.8349 16.619 18.8394C16.6286 18.8394 16.7726 18.7773 16.9548 18.6374C17.1801 18.4686 17.4499 18.2918 17.613 18.2433C17.9202 18.152 18.2461 18.3384 18.2461 18.3384C18.2738 18.319 18.3047 18.3045 18.3374 18.2957C18.4149 18.2821 18.4712 18.2724 18.514 18.2573C18.5102 18.3582 18.5665 18.531 18.514 18.6806C18.5748 18.7147 18.6392 18.7421 18.706 18.7621C18.6731 18.8339 18.6012 19.0164 18.4808 19.1039C18.5817 19.1524 18.5953 19.2087 18.739 19.2575C18.6808 19.339 18.5854 19.4789 18.5429 19.5647C18.5002 19.6559 18.3467 20.0345 18.2787 20.1782C18.2069 20.3219 18.1099 20.586 18.0632 20.639C18.0165 20.692 17.8476 20.9166 17.7176 21.0272C17.8328 20.9844 18.3041 20.8408 18.504 20.7864C18.4445 20.8737 18.1428 21.3213 17.8528 21.7518C16.464 22.5842 14.9138 23.111 13.3055 23.2972C11.6971 23.4834 10.0676 23.3247 8.52539 22.8316L8.52629 22.8297Z" fill="#E0CD81"/>
<path fill-rule="evenodd" clip-rule="evenodd" d="M6.22062 10.1476C6.22062 10.1476 6.05178 10.1476 6.01876 10.1709C5.98574 10.1942 6.18772 10.2429 6.2498 10.2662C6.31188 10.2895 6.4459 10.3962 6.48084 10.4817C6.51387 10.5633 7.69442 11.0389 7.69442 11.0389L8.52937 10.9962L8.81724 10.5985L8.26965 10.1188L8.65366 8.98682L8.14498 9.06835L6.92168 9.79795L6.30804 10.033L6.22062 10.1476Z" fill="#DFC57C"/>
<path fill-rule="evenodd" clip-rule="evenodd" d="M8.05456 10.5223C8.06663 10.5418 8.08363 10.5579 8.10385 10.5688C8.12407 10.5797 8.1468 10.5851 8.16976 10.5844C8.34256 10.5844 8.50167 10.6271 8.56771 10.7144C8.67843 10.8543 8.98525 11.3009 8.98525 11.3009L9.7192 11.565L9.76656 10.7007L8.96464 10.1436L8.052 10.4794V10.5222H8.05405L8.05456 10.5223Z" fill="#E5CC7C"/>
<path fill-rule="evenodd" clip-rule="evenodd" d="M7.91061 10.8428C7.91061 10.8428 8.04449 10.8525 8.21345 10.7903C8.38241 10.7281 8.66005 10.5942 8.78049 10.6467C8.94933 10.7185 8.91438 10.9438 9.09704 11.1459C9.20763 11.2702 9.40961 11.2663 9.52417 11.4004C9.63873 11.5344 10.0328 11.4722 10.0328 11.4722L10.1824 12.2786L9.58241 13.0476L9.38619 14.0029H8.57493L7.83381 13.7088L7.46875 12.8256L7.65128 11.9325L7.91061 10.8428Z" fill="#D2C281"/>
<path fill-rule="evenodd" clip-rule="evenodd" d="M9.47974 10.8814C9.49986 10.8876 9.52077 10.8909 9.54182 10.8911C9.51853 10.9106 9.46989 10.9532 9.48934 11.0639C9.5088 11.1746 9.57088 11.3144 9.51853 11.3998C9.56032 11.4455 9.59149 11.4998 9.60979 11.559C9.64282 11.6542 9.65254 11.7415 9.86797 11.7552C9.83688 11.7744 9.80821 11.7972 9.78259 11.8232C9.78259 11.8232 9.9321 11.9532 10.0079 12.0735C10.0854 12.0702 10.2913 12.0062 10.2913 12.0062L10.334 12.0354L10.4253 11.997C10.4253 11.997 10.3399 11.964 10.402 11.7562C10.4602 11.5737 10.5127 11.5834 10.5172 11.5699C10.5217 11.5563 10.5599 11.3641 10.5599 11.2864C10.589 11.1855 10.6123 10.8787 10.6123 10.8787L10.5502 10.2011L10.2008 9.98938L9.91661 9.71509L9.64858 10.2199L9.47206 10.3959L9.4585 10.8327L9.47974 10.8814Z" fill="#E2C270"/>
<path fill-rule="evenodd" clip-rule="evenodd" d="M10.3203 10.3147C10.3203 10.3147 10.3824 10.4913 10.4058 10.6272C10.4141 10.6008 10.4186 10.5734 10.4194 10.5457C10.4194 10.5457 10.4679 10.8137 10.4775 10.9245C10.497 10.9205 10.5159 10.9147 10.5202 10.9341C10.5246 10.9534 10.5689 11.1691 10.5586 11.2894C10.6395 11.156 10.7514 11.0441 10.8848 10.9632C10.9625 10.9146 11.0538 10.8622 11.149 10.8583C11.2985 10.8544 11.4072 10.9535 11.5858 10.9535C12.0168 10.9535 12.4072 10.637 12.6946 10.5399C12.9062 10.468 13.0887 10.4157 13.2168 10.299C13.279 10.2467 13.3898 10.1302 13.4906 9.95728C13.6246 9.72688 13.7644 9.52631 13.9043 9.50109C13.841 9.51272 13.7766 9.51727 13.7123 9.51466C13.7123 9.51466 13.7551 9.47191 13.8275 9.41367C13.9 9.35543 13.9867 9.28362 14.1109 9.28362C14.3323 9.28362 14.4429 9.31652 14.5672 9.31652C14.6915 9.31268 14.7633 9.28362 14.7633 9.28362C14.7633 9.28362 14.8935 9.37488 15.1866 9.37488C15.4799 9.37872 15.676 9.40394 15.8294 9.41764C15.9829 9.43133 16.4973 9.37488 16.6449 9.37924C16.7411 9.38294 16.8356 9.40606 16.9227 9.4472L16.4469 8.0648L14.7378 6.57104L13.7204 7.29143L12.1552 8.85648L10.6407 9.41764L10.3242 9.77296V10.3147H10.3203Z" fill="#CCB360"/>
<path fill-rule="evenodd" clip-rule="evenodd" d="M13.7185 9.52231C13.7185 9.52231 13.7613 9.47968 13.833 9.42144C13.9046 9.3632 13.9923 9.29127 14.1165 9.29127C14.3378 9.29127 14.4485 9.32429 14.5728 9.32429C14.6971 9.32045 14.7689 9.29127 14.7689 9.29127C14.7689 9.29127 14.8992 9.3824 15.1922 9.3824C15.4855 9.38624 15.6816 9.41146 15.835 9.42503C15.9885 9.4386 16.503 9.3824 16.6505 9.38663C16.7467 9.39025 16.8412 9.41337 16.9282 9.4546L16.7126 8.83124L16.4623 8.35559L15.7476 7.573C15.7476 7.573 14.89 7.06816 14.8835 7.06432C14.8796 7.06048 14.5864 6.98279 14.5864 6.98279L13.8097 7.45268L13.1049 9.27604L13.0913 9.66004L13.5475 9.87559C13.6621 9.68359 13.7884 9.52999 13.9068 9.51053C13.7999 9.52218 13.7184 9.52218 13.7184 9.52218L13.7185 9.52231Z" fill="#D5B457"/>
<path fill-rule="evenodd" clip-rule="evenodd" d="M13.7087 9.6524C13.6407 9.65624 13.5845 9.64267 13.5689 9.59416C13.5107 9.43109 13.4641 9.40779 13.4153 9.40779C13.3666 9.40779 13.3008 9.51262 13.2617 9.52222C13.2227 9.53182 13.1764 9.4019 13.1764 9.4019L13.1336 9.38245C13.1336 9.38245 12.8831 9.54552 12.7065 9.73777C12.5298 9.93003 12.2404 10.2563 12.1104 10.3144C11.9803 10.3725 11.5336 10.3921 11.3808 10.4251C11.2279 10.4582 11.0585 10.5689 11.0352 10.5941C11.0119 10.6193 11.1033 10.6464 11.1168 10.6717C11.1304 10.695 10.9672 10.6852 10.9536 10.7101C10.944 10.7295 10.992 10.8401 11.0159 10.8964C11.0575 10.8757 11.1032 10.8644 11.1497 10.8634C11.2992 10.8596 11.408 10.9586 11.5866 10.9586C12.0177 10.9586 12.408 10.6421 12.6953 10.5449C12.907 10.4731 13.0896 10.4207 13.2177 10.3042C13.2798 10.2518 13.3905 10.1352 13.4915 9.96241C13.5652 9.84401 13.6371 9.73329 13.7091 9.65176L13.7087 9.6524Z" fill="#D2B257"/>
<path fill-rule="evenodd" clip-rule="evenodd" d="M7.52628 19.2622C7.52628 19.2622 7.48788 19.1184 7.13204 18.7476C7.03105 18.6428 6.96897 18.5556 6.901 18.4933C6.73204 18.3339 6.63297 18.2913 6.51265 18.2C6.24859 18.0039 5.96123 18.0039 5.73991 17.7632C5.5186 17.5224 5.26068 17.0623 5.08148 16.5922C4.90484 16.1223 4.8562 15.9728 4.8562 15.9592C4.8562 15.9456 4.90484 15.8544 4.96692 15.8679C5.029 15.8815 5.029 16.0018 5.04462 16.031C5.07555 16.0787 5.11063 16.1235 5.14945 16.1649C5.24071 16.2699 5.37076 16.3953 5.43681 16.5825C5.42324 16.4232 5.36884 16.2466 5.36884 16.2466C5.36884 16.2466 5.7106 16.4621 6.0018 16.6873C6.29505 16.9126 6.41537 16.9903 6.501 17.1339C6.58663 17.2775 6.78836 17.6563 6.885 17.767C6.98164 17.8777 8.3058 18.2951 8.3058 18.2951L8.93569 18.7648L9.24839 19.4502L9.00366 19.8342L8.53377 19.9352L7.77063 19.5935L7.52628 19.2621V19.2622Z" fill="#D2B159"/>
<path fill-rule="evenodd" clip-rule="evenodd" d="M5.83105 16.9009C5.83105 16.9009 5.99029 17.1552 6.37864 17.396C6.72821 17.6077 7.28155 17.8 7.77486 17.9145C8.05825 17.9825 8.34177 18.0349 8.59611 18.0388C9.28155 18.0484 9.75336 17.8525 10.3379 17.7883C10.6545 17.7553 11.0428 17.7301 11.4467 17.6347C11.9651 17.5104 12.2719 17.3705 12.6894 17.1739C12.9923 17.0342 13.27 16.9293 13.4952 16.7953C13.8117 16.6089 14.0428 16.4012 14.3108 16.3391C14.2778 16.4304 14.2428 16.5934 13.9788 16.7624C14.1185 16.7584 14.3108 16.7488 14.3108 16.7488C14.3108 16.7488 14.1244 16.8594 13.7962 17.108C13.5943 17.2616 13.3263 17.5216 13.0526 17.6944C12.8758 17.8051 12.6835 17.8864 12.5573 17.9527C12.2501 18.1216 12.1262 18.207 11.9244 18.4135C11.9962 18.4096 12.0021 18.4135 12.0021 18.4135C12.0021 18.4135 11.7476 18.4465 11.5652 18.5435C11.5268 18.5435 11.4602 18.53 11.3438 18.563C11.2525 18.592 11.132 18.6582 11.0079 18.693C10.8311 18.7455 10.773 18.7222 10.773 18.7222L10.8021 18.7805C10.8021 18.7805 10.5717 18.7765 10.4949 18.7843C10.5084 18.7881 10.5046 18.794 10.5046 18.794C10.4911 18.7963 10.4781 18.8009 10.4662 18.8076C10.4292 18.8315 10.3886 18.8492 10.3459 18.8599C10.3226 18.8638 10.3031 18.8638 10.2739 18.8697C10.2837 18.893 10.3594 19.0233 10.3944 19.1001C10.3653 19.1195 9.92833 19.4496 9.92833 19.4496C9.94189 19.471 9.95297 19.4938 9.96136 19.5176C9.97493 19.5602 9.98081 19.6224 9.99438 19.6515C10.0273 19.7097 10.0467 19.7195 10.0467 19.7195C10.0467 19.7195 9.99438 19.7292 9.90299 19.7525C9.82542 19.7719 9.73019 19.8048 9.59579 19.8243C9.55455 19.8297 9.51307 19.8329 9.4715 19.834C9.49096 19.8768 9.57633 20.0398 9.41902 20.2281C9.26171 20.4164 9.2132 20.4438 9.16469 20.5641C9.14027 20.5457 9.11427 20.5294 9.08699 20.5155C9.03464 20.4922 8.9627 20.4574 8.93749 20.4107C8.92279 20.4729 8.90332 20.5339 8.87925 20.5932C8.83073 20.7232 8.75893 20.8515 8.74536 20.9485C8.69288 20.8903 8.59585 20.7757 8.46184 20.799C8.32782 20.8223 8.22107 21.0048 8.19777 21.0573C8.19777 21.0243 8.17448 20.9991 8.16872 21.0379C8.16475 21.0806 8.09102 21.5271 7.67937 21.8883C7.67553 21.797 7.67553 21.595 7.66581 21.5291C7.62741 21.5675 7.58043 21.6242 7.30075 21.7447C7.02696 21.865 7.07035 21.9854 7.07035 21.9854C7.07035 21.9854 7.04706 21.7934 7.19464 21.5912C7.34414 21.3894 7.43541 21.2941 7.43541 21.2786C7.43299 21.2629 7.42626 21.2481 7.41595 21.2359C7.39649 21.2164 7.35771 21.1931 7.35771 21.1776C7.38101 21.168 7.61205 21.0573 7.59848 20.8281C7.58491 20.6224 7.49761 20.5155 7.43541 20.4398C7.42581 20.4301 7.5268 20.3583 7.5131 20.335C7.50337 20.3214 7.37922 20.2301 7.3636 20.1814C7.36727 20.1524 7.37379 20.1238 7.38305 20.096C7.39662 20.0533 7.40635 20.0241 7.40251 19.995C7.39278 19.9465 7.3403 19.8125 7.32481 19.799C7.33838 19.8028 7.43541 19.799 7.43541 19.799C7.43541 19.799 7.35784 19.6747 7.34414 19.6164C7.33045 19.5582 7.30139 19.4047 7.2859 19.3757C7.31893 19.3795 7.40046 19.3853 7.40046 19.3757C7.40443 19.3465 7.32865 19.298 7.36206 19.2605C7.38536 19.2643 7.43003 19.2838 7.47265 19.3382C7.44936 19.2759 7.41057 19.1556 7.32891 19.1071C7.36731 19.0935 7.49787 19.0585 7.61243 19.1264C7.72699 19.1944 7.76603 19.2895 7.76603 19.2895C7.76603 19.2895 7.834 19.342 7.93896 19.4197C8.05928 19.5148 8.21262 19.6501 8.45736 19.7458C8.50984 19.775 8.64373 19.775 8.74088 19.7556C8.78318 19.7455 8.82374 19.7291 8.8612 19.707C8.87473 19.6991 8.88906 19.6926 8.90395 19.6876C8.88308 19.6457 8.85907 19.6054 8.83214 19.5671C8.86517 19.5671 8.90395 19.5711 8.90395 19.5711C8.90395 19.5711 8.92725 19.5186 8.82241 19.4175C8.84571 19.3942 8.87489 19.3791 8.87489 19.3398C8.84187 19.336 8.78363 19.2875 8.77006 19.268C8.78939 19.2544 8.81857 19.2098 8.8516 19.1962C8.82241 19.1729 8.75061 19.0758 8.71758 19.0662C8.74913 19.0544 8.77966 19.0401 8.80885 19.0234C8.80885 19.0234 8.64577 18.9806 8.59329 18.9457C8.54081 18.9073 8.46325 18.8409 8.41665 18.8214C8.36801 18.802 8.28264 18.7924 8.24769 18.7534C8.28059 18.7632 8.33307 18.7534 8.37198 18.7534C8.40104 18.7534 8.41473 18.7573 8.42434 18.7573C8.42049 18.7437 8.42049 18.7145 8.49627 18.7049C8.53272 18.6994 8.56809 18.6883 8.6011 18.6719C8.6011 18.6719 8.52917 18.6681 8.4475 18.5904C8.36584 18.5127 8.298 18.4506 8.25141 18.4409C8.20289 18.4311 8.11163 18.4739 8.05531 18.4699C7.97761 18.4603 7.94459 18.4214 7.94459 18.4214C7.94459 18.4214 7.68641 18.4447 7.11361 18.0953C6.61838 17.7923 6.40283 17.5244 6.40283 17.5244C6.35648 17.5076 6.31169 17.4868 6.26894 17.4622C6.08257 17.3652 5.82427 17.1632 5.83208 16.899L5.83105 16.9009Z" fill="#C2A44D"/>
<path fill-rule="evenodd" clip-rule="evenodd" d="M12.9745 5.2466C13.0194 5.26119 13.0593 5.28811 13.0897 5.32429C13.181 5.42912 13.2392 5.62714 13.0315 5.83885C13.113 5.86791 13.1467 5.87725 13.2178 5.86791C13.146 5.95341 12.9829 6.13594 12.9732 6.29517C12.9635 6.42522 13.045 6.46413 13.045 6.46413C13.045 6.46413 12.9207 6.60775 12.915 6.84813C12.9737 6.78194 13.0379 6.72088 13.107 6.6656C13.2507 6.55104 13.4487 6.421 13.5828 6.33946C13.5809 6.37363 13.5855 6.40785 13.5963 6.44032C13.5963 6.44032 13.8467 6.2345 14.0571 6.32589C14.1522 6.36864 14.1095 6.50253 14.1095 6.50253C14.1095 6.50253 14.2397 6.45402 14.3309 6.54528C14.4222 6.63655 14.5512 6.87194 14.6174 6.9632C14.6465 7.00596 14.7222 7.08749 14.7998 7.2137C14.9058 7.3904 14.9943 7.57701 15.064 7.77088C15.0678 7.66989 15.0931 7.51271 15.3806 7.61165C15.6679 7.71264 15.9941 7.92436 16.2679 8.34125C16.5417 8.75815 16.6095 9.2288 16.7474 9.408C16.8871 9.5808 17.0309 9.86816 17.0406 9.98861C17.0503 10.1091 16.9979 10.4973 17.2852 11.5478C17.3668 11.2216 17.491 10.4973 17.491 10.4973L17.559 9.85844L17.6367 7.88173L15.5726 6.16692L13.959 4.99597L12.9084 5.09696L12.9744 5.24647L12.9745 5.2466Z" fill="#CAA13E"/>
<path fill-rule="evenodd" clip-rule="evenodd" d="M16.8098 8.18831C16.8098 8.18831 16.7806 7.99631 16.2952 7.66991C15.8097 7.34761 15.4311 7.34761 15.0817 7.07381C14.8136 6.85826 14.5341 6.36303 14.3521 6.19995C14.1753 6.0388 14.1462 5.57275 14.1462 5.57275L14.7423 5.07355L15.6289 3.79214L16.3783 2.96692L16.7375 3.46612L17.2367 4.05249L17.5143 5.2292L17.6153 6.95157L16.8089 8.18844L16.8098 8.18831Z" fill="#B59544"/>
<path fill-rule="evenodd" clip-rule="evenodd" d="M17.4098 10.2528C17.4245 9.99163 17.3922 9.72991 17.3146 9.48009C17.1866 9.08201 16.9069 8.3752 16.777 8.11049C16.7245 7.81725 16.7634 7.79395 16.8197 7.76093C16.876 7.7279 17.0877 7.60733 17.2037 7.18429C17.3197 6.76125 17.6795 6.74742 17.6795 6.74742L17.9008 6.58435L18.2368 7.42505L18.5299 8.18435L18.6212 8.76496L18.6892 9.26006L18.5299 10.3067L17.7436 11.0174L17.4097 10.2528H17.4098Z" fill="#C89D3A"/>
<path fill-rule="evenodd" clip-rule="evenodd" d="M6.43701 21.9186V21.8971C6.45335 21.8869 6.46778 21.8739 6.47964 21.8587C6.4932 21.8393 6.50306 21.816 6.51266 21.8102C6.53212 21.8005 6.62338 21.7718 6.67189 21.781C6.7204 21.7902 6.84866 21.8431 6.91663 21.8393C7.0564 21.8354 7.21948 21.7285 7.47778 21.7772C7.86613 21.849 7.9574 22.1131 8.18268 22.2626C8.33628 22.3675 8.49525 22.3208 8.51855 22.3208H8.5709C8.58063 22.3208 8.65244 22.2393 8.69135 22.2433C8.76904 22.2471 8.77672 22.3112 8.82524 22.3151C8.9398 22.3286 9.16124 22.2568 9.27196 22.286C9.30479 22.2963 9.33464 22.3144 9.35898 22.3387C9.38332 22.363 9.40142 22.3928 9.41173 22.4257C9.43503 22.4975 9.41557 22.5887 9.35925 22.6412C9.23893 22.7518 9.12437 22.8568 9.10108 22.9484C9.13071 22.971 9.15916 22.9951 9.18632 23.0206C8.22558 22.7758 7.30121 22.4057 6.43701 21.9198V21.9186Z" fill="#CEB052"/>
<path fill-rule="evenodd" clip-rule="evenodd" d="M16.7766 18.0389C16.7766 18.0389 17.0795 17.635 17.1844 17.435C17.2893 17.2288 16.8524 14.6176 16.8524 14.6176L17.7301 11.7419L17.7067 10.806C17.7067 10.806 17.7494 9.94184 17.8504 9.56706C17.9709 9.78261 18.3457 10.0428 18.4272 10.1807C18.4656 9.9165 18.5961 9.35931 18.5767 8.76514C18.6485 8.87573 18.8213 9.98843 18.8213 9.98843L18.9942 10.7379L19.2194 11.534L19.4699 12.3749L19.6195 12.9555L19.7048 13.0952L19.7768 13.3399L19.8447 13.604L20.0408 14.2234L20.156 14.7321L20.2473 15.6545C20.2672 15.7251 20.2815 15.7972 20.2901 15.87C20.2939 15.971 20.2765 16.0293 20.2765 16.0468C20.2765 16.0643 20.3095 16.2681 20.296 16.4216C20.2765 16.5752 20.2765 16.6954 20.156 16.8056C20.0356 16.9158 19.9599 17.5745 19.9599 17.5745L19.7444 17.4309C19.7444 17.4309 19.7871 17.2346 19.6861 17.0561C19.5851 16.8775 19.389 16.8405 19.2783 16.8697C19.1677 16.893 18.9464 16.9278 18.8745 16.99C18.8065 17.0521 18.6396 17.2444 18.4861 17.3318C18.2941 17.447 17.9813 17.4561 17.8143 17.4949C17.6454 17.5333 17.459 17.6485 17.2628 17.7822C17.1089 17.8818 16.9465 17.9675 16.7774 18.0382L16.7766 18.0389Z" fill="#CCA847"/>
<path fill-rule="evenodd" clip-rule="evenodd" d="M16.7766 22.2817C16.7766 22.2817 16.7894 22.29 16.8141 22.3036C18.1936 21.6572 19.4297 20.7411 20.4493 19.6092C20.4382 19.2162 20.4237 18.8134 20.4078 18.6642C20.3749 18.3476 20.3982 18.0253 20.3885 17.8389C20.3788 17.6526 20.274 16.8933 20.2254 16.6972C20.173 16.5011 20.0718 16.4039 20.0565 16.4039C20.0429 16.4079 19.9612 16.773 19.9612 16.8647C19.9612 16.9565 19.9418 17.1774 19.9418 17.2338C19.9282 17.2298 19.9225 17.1954 19.9225 17.1813C19.903 17.2298 19.8797 17.3153 19.87 17.325C19.8603 17.3347 19.8836 17.2435 19.87 17.224C19.8564 17.2046 19.8316 17.2143 19.837 17.1658C19.8393 17.137 19.8438 17.1085 19.8505 17.0804C19.8505 17.0804 19.7923 17.1658 19.7497 17.3833C19.7069 17.5988 19.7069 17.6047 19.6914 17.624C19.6779 17.6474 19.6002 17.725 19.5962 17.7542C19.5924 17.8066 19.6681 17.859 19.6739 17.8881C19.6777 17.9367 19.6059 18.1619 19.5826 18.2721C19.5593 18.3823 19.5691 18.5982 19.5442 18.709C19.5248 18.8099 19.5058 18.8682 19.4394 18.9108C19.4879 18.9205 19.5345 18.9341 19.5345 18.9341C19.5345 18.9341 19.6025 19.2215 19.4297 19.4662C19.3676 19.5516 19.3521 19.5905 19.286 19.6682C19.1559 19.8118 19.0549 19.9754 19.0452 20.0818C19.0384 20.0504 19.0339 20.0185 19.0316 19.9865C19.0316 19.9865 18.8297 20.2215 18.7442 20.3555C18.6336 20.5283 18.4802 20.5186 18.437 20.5614C18.3939 20.6041 18.3845 20.6817 18.3986 20.7439C18.3602 20.7535 18.288 20.7672 18.2394 20.9167C18.2161 20.9943 18.1579 21.0703 18.0666 21.1225C17.9753 21.1747 17.8646 21.1905 17.8083 21.2041C17.8568 21.2176 17.8763 21.2176 17.8996 21.2331C17.8705 21.2816 17.7365 21.3574 17.587 21.4546C17.4375 21.5458 17.3655 21.6797 17.3287 21.7671C17.2903 21.8487 17.2336 21.9011 17.1423 21.9109C17.1807 21.9342 17.2375 21.9884 17.2666 22.006C17.2238 22.0157 17.1514 22.0157 17.022 22.1264C16.8861 22.2391 16.8395 22.2721 16.7773 22.2818L16.7766 22.2817Z" fill="#C39D3C"/>
<path fill-rule="evenodd" clip-rule="evenodd" d="M14.0749 23.1814C14.1492 23.1293 14.2297 23.0866 14.3146 23.0543C14.6174 22.934 14.9378 22.9107 15.064 22.8719C15.1845 22.8335 15.2796 22.7805 15.4291 22.7515C15.4251 22.7855 15.4218 22.8175 15.4182 22.8477C14.9775 22.9863 14.5286 23.0977 14.0742 23.1814H14.0749Z" fill="#D2BA6B"/>
<path fill-rule="evenodd" clip-rule="evenodd" d="M19.6607 15.2156C19.6607 15.2156 19.5986 15.5514 19.4879 15.7631C19.3771 15.9749 19.2575 16.268 19.2575 16.268C19.2582 16.2019 19.266 16.1361 19.2808 16.0718C19.141 16.1533 18.8011 16.3495 18.7048 16.4368C18.6135 16.5183 18.46 16.6621 18.4212 16.7301C18.5125 16.4622 18.6076 16.2214 18.6232 16.1107C18.4834 16.2117 17.8309 16.7495 17.4912 17.1048L16.4329 17.9612C16.3108 18.027 16.185 18.0859 16.0562 18.1375C15.8738 18.2151 15.6582 18.2812 15.499 18.3434C15.5418 18.2288 15.6096 18.1277 15.7048 18.0307C15.8058 17.9356 16.1087 17.6074 16.1553 17.4547C16.198 17.2954 16.2077 17.2003 16.1514 17.0663C16.0989 17.0799 15.9786 17.0858 15.8971 17.1091C15.8155 17.1324 15.7281 17.2197 15.7281 17.2197C15.7281 17.2197 15.7902 16.8643 15.9242 16.5285C15.8232 16.5323 15.6504 16.5614 15.6504 16.5614C15.6504 16.5614 15.8912 16.1575 16.3032 15.876C16.177 15.9029 16.0536 15.9412 15.9343 15.9905C15.6936 16.0915 15.4295 16.241 15.2334 16.3225C15.344 16.1689 16.1207 15.0604 16.5829 14.0273C17.0437 12.9963 17.2159 12.7322 17.3169 12.1789C17.3692 11.9051 17.3553 11.5005 17.3692 11.1381C17.3828 10.7788 17.4274 10.4565 17.3984 10.241C17.5187 10.3905 17.9693 10.8118 17.9848 11.7537C17.9983 12.6954 17.5538 13.9673 17.0818 14.6526C17.197 14.6856 17.4955 14.7246 17.8022 14.1918C18.1089 13.6591 18.1052 13.5103 18.2159 13.2889C18.2295 13.3996 18.2255 13.4384 18.2255 13.4384C18.2255 13.4384 18.6722 12.8967 18.8838 12.2151C18.9266 12.5084 19.0528 12.7667 18.8546 13.3045C18.678 13.7899 18.447 13.9084 18.447 13.9084C18.447 13.9084 18.5615 13.889 18.7304 13.788C18.7595 13.8598 18.7538 13.9416 18.8023 13.9705C18.8508 13.9994 18.9169 14.0482 18.9266 14.0948C18.9789 14.0171 19.0605 13.918 19.0858 13.8443C19.0664 13.9979 19.0528 14.6695 19.1242 15.0113C19.2738 14.9977 19.4272 14.988 19.532 14.718C19.4602 14.9822 19.4602 15.1413 19.5087 15.3666C19.5883 15.3123 19.6601 15.2152 19.6601 15.2152L19.6607 15.2156Z" fill="#C0993A"/>
<path fill-rule="evenodd" clip-rule="evenodd" d="M14.6154 4.51255C14.6154 4.51255 14.4659 4.57463 14.2116 4.57463C13.9903 4.57463 14.0523 4.48926 13.7067 4.48926C13.1748 4.48926 11.3165 4.79646 10.9902 4.79211C10.7785 4.78827 11.7047 4.88337 11.7047 4.88337L14.0718 4.91639L14.5474 4.87799L14.7242 4.51831L14.6154 4.51255Z" fill="#A88F33"/>
<path fill-rule="evenodd" clip-rule="evenodd" d="M8.4777 9.1398C8.4777 9.1398 8.17472 9.37084 8.04659 9.54761C7.91847 9.72438 7.8505 9.84073 7.70483 9.98447C7.73903 9.98578 7.77319 9.98119 7.80583 9.9709C7.80583 9.9709 7.80583 10.0093 7.78253 10.0194C7.80266 10.0172 7.82304 10.0194 7.84218 10.0261C7.86131 10.0327 7.87872 10.0436 7.89312 10.0578C7.85037 10.0811 7.73389 10.1977 7.82515 10.3356C7.89312 10.4404 8.03687 10.45 8.03687 10.45C8.03687 10.45 8.00384 10.5452 8.1417 10.5355C8.43879 10.5219 8.77082 10.3918 8.92416 10.4248C9.07776 10.4632 9.16506 10.4773 9.27373 10.6657C9.38893 10.8521 9.48928 10.8812 9.48928 10.8812C9.48928 10.8812 9.55725 10.7083 9.54176 10.4501C9.59749 10.311 9.62838 10.1631 9.63303 10.0133L9.53203 9.26959L9.09133 8.71228L8.52045 9.02882L8.4777 9.13942V9.1398Z" fill="#E3C571"/>
<path fill-rule="evenodd" clip-rule="evenodd" d="M9.01929 9.02917C9.01929 9.02917 9.06204 9.13016 9.24073 9.13976C9.22127 9.18251 9.22127 9.1884 9.22716 9.22129C9.231 9.25432 9.23676 9.30283 9.23676 9.30283C9.25643 9.29331 9.27421 9.2803 9.28924 9.26443C9.29897 9.30718 9.27951 9.37502 9.28924 9.42366C9.29524 9.45324 9.30501 9.48194 9.31829 9.50904C9.32113 9.5024 9.32438 9.49594 9.32802 9.48971C9.33186 9.47998 9.36642 9.59454 9.46204 9.68171C9.46196 9.66831 9.46526 9.6551 9.47164 9.64331C9.4731 9.66766 9.48116 9.69115 9.49493 9.71128C9.48778 9.70787 9.48125 9.70328 9.47561 9.69771C9.47561 9.69771 9.48521 10.0049 9.53769 10.1638C9.54646 10.1535 9.55426 10.1424 9.56098 10.1307C9.56098 10.1211 9.55714 10.2162 9.54742 10.2843C9.53385 10.3523 9.54357 10.4474 9.54357 10.4474C9.57858 10.4198 9.61706 10.397 9.65801 10.3794C9.71625 10.356 9.81161 10.2842 9.86972 10.125C9.90343 10.0348 9.92942 9.94192 9.94742 9.84734C9.96619 9.88349 9.97915 9.92236 9.98582 9.96254C9.98978 10.0111 10.081 9.98584 10.081 9.98584L10.1005 9.77413L10.2157 9.29451L10.3205 8.99742L10.8254 8.21112L11.7375 7.50865L12.5337 7.69118L13.2054 6.77854L12.0482 6.08337L10.953 6.19793L9.95906 7.57457L9.16303 8.82321L9.01929 9.02904V9.02917Z" fill="#D8B65B"/>
<path fill-rule="evenodd" clip-rule="evenodd" d="M14.7553 7.03701C14.7553 7.03701 14.6873 7.05058 14.4912 7.15221C14.2951 7.25384 14.1592 7.2861 14.0834 7.4356C14.0076 7.58511 14.0019 7.70363 14.0019 7.70363C14.0019 7.70363 14.1359 7.64539 14.2136 7.62594C14.2951 7.60661 14.3864 7.61237 14.3767 7.64539C14.3673 7.66804 14.3543 7.68901 14.3383 7.70747C14.3383 7.70747 14.4918 7.70363 14.4878 7.77941C14.4837 7.85519 14.4587 7.93864 14.4296 7.97551C14.4005 8.01391 14.2801 8.07074 14.2666 8.11541C14.2335 8.20667 14.2801 8.21051 14.2626 8.28424C14.249 8.35618 14.185 8.49595 13.9752 8.74056C13.7597 8.9853 13.668 9.1581 13.668 9.1581C13.668 9.1581 13.5632 8.962 13.5088 8.79304C13.4704 8.81237 13.2642 8.92693 13.2642 8.92693L12.7865 7.26293L12.7961 7.15221C12.7961 7.15221 12.8389 7.09986 12.8486 7.00271C12.7768 6.97941 12.7671 6.95995 12.6718 6.86882C12.5766 6.77768 12.499 6.66683 12.3399 6.59106C12.3166 6.54831 12.2875 6.49019 12.171 6.46677C12.0545 6.44335 11.9846 6.42415 11.9846 6.42415C11.9846 6.42415 12.0467 6.40072 12.0759 6.35221C12.0039 6.36194 11.9458 6.38523 11.7885 6.38139C11.6293 6.37743 11.6117 6.37167 11.5244 6.38523C11.4372 6.3988 11.3325 6.43771 11.2934 6.3037C11.2507 6.27067 11.1594 6.29986 11.0817 6.41429C11.004 6.52872 10.9769 6.62011 10.8274 6.66479C10.8169 6.73069 10.7938 6.79396 10.7594 6.85115C10.7166 6.92309 10.6487 6.9949 10.5574 7.10165C10.4137 7.27061 10.437 7.54824 10.2079 7.75995C9.97681 7.97154 10.2463 7.17346 10.2463 7.17346L10.6151 6.29026L11.6656 5.26306L13.2967 5.15247L13.456 5.99727L14.2521 6.27106L14.755 7.03803L14.7553 7.03701Z" fill="#D3AE4D"/>
<path fill-rule="evenodd" clip-rule="evenodd" d="M15.0138 7.22336L14.3284 6.23507L13.8488 5.86605C13.8488 5.86605 13.507 5.23705 13.4837 5.2176C13.4643 5.20403 13.142 5.16909 12.9362 5.15552L12.9746 5.25062C13.0195 5.26521 13.0594 5.29214 13.0898 5.32832C13.181 5.43315 13.2393 5.63117 13.0315 5.84288C13.113 5.87193 13.1467 5.88128 13.2179 5.87193C13.1461 5.95744 12.983 6.13997 12.9733 6.2992C12.9636 6.42925 13.0451 6.46803 13.0451 6.46803C13.0451 6.46803 12.9208 6.61177 12.915 6.85203C12.9737 6.78584 13.038 6.72478 13.107 6.6695C13.2508 6.5543 13.4488 6.42477 13.5828 6.34323C13.581 6.37745 13.5856 6.4117 13.5964 6.44422C13.5964 6.44422 13.8467 6.2384 14.0571 6.32966C14.1522 6.37241 14.1095 6.50643 14.1095 6.50643C14.1095 6.50643 14.2397 6.45792 14.3309 6.54918C14.4222 6.64045 14.5522 6.87533 14.6183 6.96672C14.6473 7.00947 14.7231 7.09101 14.8007 7.21709C14.9067 7.39381 14.9951 7.58047 15.0649 7.7744C15.0687 7.6967 15.0843 7.58803 15.2185 7.58803L15.0146 7.22297L15.0138 7.22336Z" fill="#CAA13E"/>
<path fill-rule="evenodd" clip-rule="evenodd" d="M4.73811 10.0312C4.73811 10.0312 4.6896 9.91074 4.73811 9.67586C4.78663 9.44098 4.8624 9.33026 4.88762 8.98466C4.91284 8.63906 5.13812 8.20795 5.13812 8.20795L5.76136 7.92456L6.2022 8.04488L6.33225 8.63522L5.77493 8.94242C5.77493 8.94242 5.74588 9.07246 5.58856 9.1773C5.43125 9.28213 5.21377 9.36366 5.16142 9.47054C5.13012 9.53599 5.10728 9.60515 5.09345 9.67637C5.09345 9.67637 4.93421 9.64334 4.83911 9.74818C4.73811 9.85506 4.74195 9.95016 4.73811 10.0317V10.0312Z" fill="#F4EFC8"/>
<path fill-rule="evenodd" clip-rule="evenodd" d="M5.99612 9.87371C5.99612 9.87371 5.94364 9.90673 5.90485 9.98891C5.86645 9.92683 5.77468 9.55781 5.77084 9.22578C5.767 8.89375 5.74716 8.81145 5.82396 8.69702C5.90076 8.58258 6.20194 8.46201 6.15919 8.25593C6.11644 8.05984 5.93775 7.9783 5.71836 8.03462C5.56476 8.07302 5.45045 8.39967 5.29122 8.56274C5.17077 8.68703 5.02716 8.66758 4.98837 8.73554C4.93589 8.82681 4.98441 8.91807 4.96892 8.97631C4.96495 8.99576 4.91644 9.10059 4.82901 9.2268C4.65237 9.48114 4.35337 9.84043 4.31445 10.1627C4.32802 9.9802 4.31842 9.97636 4.36693 9.77438L4.33775 9.72587L4.52975 9.09676L4.65404 8.57836L4.9318 7.71027L5.42101 6.82298L5.89679 6.29089L6.39189 6.32392L6.45013 7.06759L6.73365 8.4638L7.32975 9.19775L6.37436 9.84068L5.99573 9.87371H5.99612Z" fill="#EBCC73"/>
<path fill-rule="evenodd" clip-rule="evenodd" d="M6.29314 10.1377C6.29314 10.1377 6.2116 10.1572 6.18242 10.1417C6.15323 10.1262 6.1243 10.1087 6.1339 10.0892C6.1435 10.0698 6.19599 10.0369 6.19599 10.0212C6.19706 10.0071 6.1926 9.99315 6.18354 9.98228C6.17448 9.9714 6.16155 9.96449 6.14747 9.963C6.1028 9.95724 6.08923 9.98629 6.08923 9.98629C6.08923 9.98629 6.04648 9.9534 6.01167 9.94789C6.03226 9.94537 6.05299 9.94405 6.07374 9.94392C6.02009 9.91962 5.96317 9.90327 5.90479 9.89541C5.9533 9.86635 6.04853 9.78085 6.11061 9.78085C6.17269 9.78085 6.2116 9.77125 6.20187 9.73822C6.19214 9.7052 6.14363 9.65668 6.09128 9.63723C6.11061 9.61393 6.1243 9.57899 6.07771 9.48362C6.02907 9.38852 6.04853 9.32439 6.06414 9.30122C6.07771 9.27203 6.12622 9.21968 6.14952 9.18665C6.17282 9.15363 6.19227 9.10895 6.23106 9.08566C6.25051 9.07209 6.31259 9.04726 6.3748 9.02358C6.44277 9.00028 6.49909 8.97109 6.53787 9.00028C6.58062 9.02934 6.56117 9.06825 6.56117 9.06825C6.56117 9.06825 6.69518 9.01961 6.8155 9.08182C6.93595 9.13993 7.2292 9.17692 7.2292 9.17692L7.33429 9.38864L6.63912 9.98476L6.35176 10.1285L6.29352 10.1381L6.29314 10.1377Z" fill="#E5C66B"/>
<path fill-rule="evenodd" clip-rule="evenodd" d="M7.2583 9.16311C7.2583 9.16311 7.04275 9.30685 6.99424 9.35921C7.0233 9.36317 7.07181 9.38263 7.05235 9.41169C7.02906 9.44074 6.88928 9.54173 6.81158 9.63697C6.73005 9.73207 6.65235 9.85252 6.62522 9.91076C6.59616 9.96311 6.37472 10.1166 6.29907 10.1359C6.4583 10.1359 6.77869 9.93981 6.89901 9.93981C6.89517 9.99805 6.93203 10.0641 7 10.0699C7.06797 10.0756 7.26406 10.1126 7.52813 9.94954C7.79219 9.79031 7.7049 9.67178 7.81549 9.59421C8.0272 9.45431 8.11258 9.33002 8.22906 9.25245C8.34554 9.17489 8.40582 9.15722 8.40582 9.15722C8.40582 9.15722 8.40966 9.09898 8.44422 9.10487C8.45368 9.10595 8.46267 9.1096 8.4702 9.11543C8.47774 9.12125 8.48354 9.12902 8.48698 9.13789C8.48698 9.13789 8.68896 8.99415 8.94778 8.95537C8.94174 8.95267 8.93691 8.94784 8.93421 8.9418C8.93421 8.9418 8.95354 8.93207 8.9575 8.92234C8.9575 8.92234 8.97107 8.90289 8.9808 8.91261C8.99053 8.92234 9.0041 8.99415 9.02355 9.02333C9.06631 9.00388 9.14784 8.82135 9.14784 8.82135L9.34406 8.2602V7.74756L9.19046 7.77674L8.03846 8.26596L7.33933 8.99031L7.25779 9.16311H7.2583Z" fill="#E6BD62"/>
<path fill-rule="evenodd" clip-rule="evenodd" d="M10.5747 6.64861C10.637 6.63349 10.6967 6.60925 10.7519 6.57667C10.7286 6.63888 10.7286 6.70685 10.6276 6.85443C10.5267 7.00201 10.5228 7.02339 10.4413 7.17673C10.3597 7.33596 10.35 7.56507 10.2723 7.66594C10.3071 7.64902 10.3445 7.6379 10.3829 7.63304C10.3829 7.63304 10.3053 7.70101 10.2723 7.77282C10.2393 7.84462 10.1811 7.99412 10.0374 8.08552C9.89382 8.17691 9.71117 8.23502 9.51507 8.45057C9.31885 8.66215 9.11699 8.93018 9.01587 9.02656C9.06835 8.9353 9.14016 8.75277 9.15961 8.63245C9.17907 8.51213 9.15565 8.36826 9.18867 8.20916C9.22169 8.05006 9.22169 7.93537 9.38067 7.65762C9.53965 7.37986 9.81177 6.41488 9.81177 6.41488L10.3981 6.22852L10.5749 6.64797L10.5747 6.64861Z" fill="#B6933F"/>
<path fill-rule="evenodd" clip-rule="evenodd" d="M10.1513 6.29321C10.1513 6.29321 9.9747 6.54754 9.92618 6.77282C9.87767 6.9981 9.92222 6.97864 9.89316 7.08936C9.87578 7.15687 9.87578 7.22768 9.89316 7.29519C9.95434 7.19663 10.0381 7.11406 10.1375 7.05429C10.3045 6.95343 10.4405 6.88149 10.5215 6.79612C10.603 6.70485 10.671 6.55535 10.8476 6.44079C10.7758 6.43106 10.6748 6.39804 10.6557 6.40239C10.7276 6.32085 10.943 6.19657 11.1605 6.04706C11.376 5.89346 11.3625 5.83151 11.712 5.67816C11.5975 5.69762 11.5431 5.66844 11.4478 5.67816C11.4862 5.59663 11.6206 5.55772 11.755 5.42383C11.8894 5.28994 11.6697 5.0918 11.6697 5.0918L10.6457 5.71119L10.1506 6.29372L10.1513 6.29321Z" fill="#C49937"/>
<path fill-rule="evenodd" clip-rule="evenodd" d="M7.3728 5.83098L7.3961 5.64462L7.68935 5.17473L7.99616 4.34952V3.22133L7.97287 2.56892L8.02138 2.14166L8.05824 2.00585L8.09715 1.95337L8.34752 2.08342L8.69325 2.5533L8.72627 3.46018L8.39027 4.89121L7.43104 5.93786L7.3728 5.83098Z" fill="#DFC068"/>
<path fill-rule="evenodd" clip-rule="evenodd" d="M8.13572 1.90093C8.13572 1.90093 7.98212 1.9049 7.94935 2.54375C7.91659 3.1826 7.90071 3.51848 7.87742 3.83502C7.85412 4.15157 7.79985 4.3437 7.77259 4.5302C7.74532 4.71669 7.72983 4.9709 7.64254 5.1263C7.60414 5.1981 7.52209 5.42339 7.32983 5.59235C7.11428 5.77872 6.79223 5.90889 6.74347 5.91862C6.65796 5.93795 6.22494 5.9807 6.0483 6.07786C5.98622 6.11088 5.87934 6.14966 5.76094 6.26038C5.52593 6.47197 5.21335 6.8506 4.98807 7.30692C4.64247 7.98852 4.29688 9.91276 4.29688 9.91276L4.37457 9.78271C4.37457 9.78271 4.3843 9.60991 4.5571 9.30693C4.72606 9.00408 4.67755 8.66424 4.91243 8.08363C5.00369 7.86232 5.11825 7.57495 5.25803 7.33022C5.47947 6.93213 5.74737 6.59037 6.01732 6.404C6.45803 6.10115 6.94353 6.0351 6.94353 6.0351L7.4659 5.6895C7.4659 5.6895 7.55716 5.51286 7.67761 5.31087C7.84644 5.02748 8.06161 4.71093 8.10859 4.25077C8.18052 3.56917 8.00759 3.12257 8.01732 2.71873C8.02705 2.31489 8.03089 2.0178 8.11255 1.94586C8.19422 1.87392 8.13585 1.90119 8.13585 1.90119L8.13572 1.90093Z" fill="#A88F33"/>
<path fill-rule="evenodd" clip-rule="evenodd" d="M8.136 4.94958C8.136 4.94958 8.3664 4.38254 8.47188 3.87963C8.49133 3.77863 8.53012 3.67777 8.53985 3.59623C8.58836 3.12046 8.60193 2.92436 8.53985 2.66414C8.49133 2.47214 8.30496 2.29908 8.20781 2.16494C8.1127 2.02503 8.06803 1.97294 8.08748 1.9435C8.10694 1.91406 8.18259 1.86593 8.25632 1.87169C8.33469 1.87397 8.41179 1.89217 8.48291 1.92517C8.55403 1.95818 8.61769 2.00531 8.67003 2.06369C8.81954 2.23649 8.93794 2.82299 8.93794 2.82299L9.06249 3.59687L9.37904 4.57159L8.13625 4.95034L8.136 4.94958Z" fill="#C99E3D"/>
<path fill-rule="evenodd" clip-rule="evenodd" d="M10.3009 4.35936C10.3009 4.35936 10.2581 4.37868 10.1806 4.35936C10.1839 4.39106 10.1784 4.42305 10.1647 4.45182C10.151 4.4806 10.1296 4.50503 10.1029 4.52243C10.0213 4.4894 9.25808 4.55545 9.25808 4.55545C9.25808 4.55545 8.90275 4.49324 8.79203 4.02336C8.71446 3.71065 8.85027 3.27968 8.8056 2.99616C8.73763 2.57862 8.64253 2.49696 8.6328 2.36704C8.62307 2.23712 8.61334 2.20396 8.61334 2.12243C8.57059 2.1127 8.54537 2.09913 8.50275 2.09913C8.49302 2.06073 8.51235 2.0272 8.46973 1.95923C8.49302 1.96896 8.65225 1.98841 8.83862 2.16505C8.99222 2.3088 8.99222 2.36115 9.01539 2.39033C9.04445 2.41939 9.27945 2.62073 9.38045 2.82144C9.48144 3.02214 9.67753 3.66214 9.72221 3.76697C9.73577 3.80972 9.76496 3.85248 9.83741 3.9495C9.95005 4.0894 10.115 4.3207 10.3014 4.3591L10.3009 4.35936Z" fill="#B58634"/>
<path fill-rule="evenodd" clip-rule="evenodd" d="M9.04272 2.40002C9.16035 2.59004 9.26603 2.7872 9.35914 2.99036C9.4737 3.24854 9.54167 3.46025 9.68541 3.63305C9.60772 3.4079 9.46986 2.96514 9.38832 2.80783C9.29706 2.64143 9.11069 2.46223 9.04272 2.40015V2.40002Z" fill="#A88F33"/>
<path fill-rule="evenodd" clip-rule="evenodd" d="M7.72217 5.59229C7.72217 5.59229 7.52608 5.6408 7.16103 5.83306C7.04058 5.89514 6.92615 5.94749 6.81543 5.99613C6.52782 6.12618 6.21934 6.24637 5.97461 6.31267C5.99406 6.33597 6.00366 6.34557 6.00366 6.34557C6.00366 6.34557 6.00366 6.4408 6.05614 6.49507C6.02708 6.52426 5.63861 6.78832 5.7533 7.67178C5.83086 7.64272 5.92213 7.60381 5.93569 7.60381C5.95912 7.60778 5.96488 7.67178 5.99393 7.67178C6.02299 7.67178 6.11822 7.63338 6.21921 7.50282C6.21537 7.5553 6.15713 8.08343 6.4697 8.43876C6.52794 8.37079 6.67553 8.14551 6.67553 8.14551L6.67937 8.0737C6.67937 8.0737 6.69294 7.8232 6.7746 7.59408C6.85626 7.36496 7.01536 7.196 7.01536 7.196L7.84621 6.00957L7.72192 5.59216L7.72217 5.59229Z" fill="#E6C367"/>
<path fill-rule="evenodd" clip-rule="evenodd" d="M6.94574 7.33437C6.9077 7.36125 6.86579 7.38218 6.82145 7.39645C6.80788 7.34794 6.78843 7.1809 6.90299 7.01782C7.037 6.8216 7.33012 6.56726 7.41166 6.36502C7.46414 6.23485 7.44084 5.9087 7.90689 5.49117C8.37294 5.07363 8.55534 4.93002 8.55534 4.93002L9.30875 4.55139L10.235 4.91645L9.7748 6.71997L9.41755 7.56477L7.99675 7.29686L6.94561 7.33437H6.94574Z" fill="#DCBA5A"/>
<path fill-rule="evenodd" clip-rule="evenodd" d="M7.48804 6.84468L7.66481 6.62337V6.46606C7.66481 6.46606 7.8609 6.41358 8.07249 6.19802C8.28408 5.98247 8.57733 5.5689 8.83564 5.59412C9.09394 5.6233 9.11916 6.15527 9.12889 6.3049C9.13861 6.45454 9.17164 6.79412 9.22399 6.97678C9.28223 7.1593 8.59486 7.8505 8.59486 7.8505L8.12804 8.20583L7.48804 6.84468Z" fill="#E9CE77"/>
<path fill-rule="evenodd" clip-rule="evenodd" d="M8.03491 8.68741C8.03491 8.68741 8.17865 8.46213 8.07331 8.41362C8.13539 8.27384 8.24995 8.12626 8.24995 8.12626C8.24995 8.12626 8.33148 7.9244 8.59553 7.67582C8.85959 7.42725 9.02278 7.26213 9.06553 7.09522C9.09189 6.98644 9.10623 6.87509 9.10829 6.76318C9.13683 6.78651 9.16737 6.80728 9.19955 6.82526C9.2423 6.84472 9.44415 7.01163 9.41509 7.34763C9.38604 7.68363 9.2615 7.82341 9.2615 7.82341C9.2615 7.82341 9.14118 7.94373 9.05581 8.00594C8.96442 8.06802 8.93152 8.13982 8.77806 8.14571C8.79383 8.13317 8.81156 8.12331 8.83053 8.11653C8.83053 8.11653 8.67131 8.0972 8.58581 8.17477C8.50031 8.25234 8.31855 8.49131 8.22729 8.56325C8.13603 8.62149 8.0353 8.68754 8.0353 8.68754L8.03491 8.68741Z" fill="#CDAE50"/>
<path fill-rule="evenodd" clip-rule="evenodd" d="M14.4912 4.91064C14.2618 4.82703 14.0207 4.77987 13.7767 4.77086C13.3689 4.75729 12.7728 4.78059 12.1883 4.78443C11.5592 4.78827 10.9883 4.56888 10.1961 4.53009C10.0661 4.4524 9.73533 4.11256 8.70288 4.83294C8.76496 4.8291 9.45245 4.67371 9.69117 4.97285C9.93194 5.26993 9.86397 5.77477 9.83107 5.89509C9.76886 6.16312 9.56688 6.55339 9.48547 6.82718C9.40406 7.10097 9.42327 7.24485 9.36503 7.43685C9.30679 7.62885 9.17866 7.72421 9.25431 7.94552C9.3553 7.88344 9.4079 7.88344 9.57661 7.50481C9.74531 7.12619 9.71062 6.85624 9.9903 6.53585C10.2641 6.21355 10.7199 5.77272 10.8932 5.662C11.0665 5.55128 12.4427 4.83678 13.8836 5.51838C14.2311 5.48152 14.4913 4.91051 14.4913 4.91051L14.4912 4.91064Z" fill="#D2A83E"/>
<path fill-rule="evenodd" clip-rule="evenodd" d="M9.28351 4.64642C9.28208 4.63183 9.27886 4.61747 9.27391 4.60367C9.26043 4.57527 9.24274 4.54908 9.22142 4.52597C9.22142 4.52597 8.87965 4.46389 8.70685 4.48322C8.40386 4.51625 8.13006 4.89104 8.00193 5.08329C7.8738 5.27555 7.71456 5.57252 7.54176 5.72599C7.54365 5.71104 7.5402 5.6959 7.53203 5.68324C7.53203 5.68324 7.54176 5.69681 7.52243 5.71626C7.5031 5.73572 7.50297 5.74532 7.5127 5.75466L7.54188 5.78372C7.55148 5.78372 7.81952 5.66327 8.18459 5.32291C8.57296 4.96758 8.87005 4.78531 9.02545 4.72284C9.10832 4.68762 9.19494 4.66199 9.28363 4.64642H9.28351Z" fill="#C29637"/>
<path fill-rule="evenodd" clip-rule="evenodd" d="M15.9128 3.18652C15.9128 3.18652 15.8506 3.26409 15.7729 3.3496C15.6001 3.53212 15.3748 3.73782 15.1826 3.94953C15.0002 4.15152 14.7943 4.30883 14.5632 4.57289C14.332 4.83696 14.064 5.13008 13.9961 5.21558C13.934 5.30108 13.8855 5.44086 13.8855 5.51267C13.8525 5.48937 13.8137 5.46416 13.8137 5.46416C13.83 5.49464 13.8496 5.5233 13.872 5.54966C13.9205 5.61763 13.9961 5.70326 14.035 5.75548C14.0828 5.82197 14.117 5.89715 14.1359 5.97679C14.1592 5.98063 14.3087 6.00982 14.4952 5.703C14.6817 5.39619 14.9262 5.06032 14.9262 5.06032L15.3145 4.48355L15.5593 3.99433L15.8665 3.44675L15.9132 3.18652H15.9128Z" fill="#AC8132"/>
<path fill-rule="evenodd" clip-rule="evenodd" d="M16.3107 2.79419C16.3107 2.79419 16.0757 2.98619 15.9844 3.10139C15.8932 3.21659 15.6772 3.51893 15.6772 3.51893L15.7549 3.5092L16.1492 3.15976L16.3028 2.88597L16.3106 2.7947L16.3107 2.79419Z" fill="#A88F33"/>
<path fill-rule="evenodd" clip-rule="evenodd" d="M16.2388 18.2253C16.2388 18.2253 16.235 18.066 16.3243 17.9709C16.4156 17.8757 16.6466 17.7359 16.8719 17.2116C17.0972 16.6873 17.1223 16.5689 17.1223 16.5689C17.1223 16.5689 16.7184 16.9145 16.4695 16.9961C16.5277 16.8756 16.5607 16.7903 16.5899 16.728C16.5569 16.699 16.4171 16.666 16.4036 16.6505C16.4811 16.5728 16.5239 16.3824 16.6812 16.2562C16.8832 16.1026 17.2521 15.8387 17.5388 15.6034C17.8255 15.3682 18.3892 14.821 18.4612 14.6617C18.5039 14.7238 18.5135 14.7626 18.5135 14.7626C18.5135 14.7626 18.2301 15.1316 18.0825 15.3665C17.9524 15.5685 17.9621 15.6831 17.9621 15.6831L18.2301 15.5679C18.2301 15.5679 18.3077 15.8552 17.9563 16.2922C18.1099 16.234 18.1719 16.2689 18.2592 16.2203C18.1154 16.3117 17.9174 16.436 17.731 16.7776C17.5485 17.1193 17.2999 17.5174 16.8806 17.7659C16.4728 18.028 16.2378 18.2241 16.2378 18.2241L16.2388 18.2253Z" fill="#A67A2E"/>
<path fill-rule="evenodd" clip-rule="evenodd" d="M15.1864 5.11266C15.1864 5.11266 15.0272 5.44456 15.0039 5.70287C15 5.76508 14.9844 5.81359 14.9844 5.88539C14.9806 6.11643 14.998 6.37474 14.946 6.49506C14.9266 6.44655 14.9168 6.41352 14.8974 6.39419C14.8683 6.47573 14.8159 6.73007 14.7731 6.82517C14.7538 6.76309 14.711 6.54754 14.715 6.2932C14.719 6.03887 14.7246 5.99023 14.7246 5.93788C14.715 6.01544 14.6625 6.1204 14.6431 6.18248C14.614 6.13013 14.581 6.06216 14.5421 6.00584C14.5188 6.04424 14.4897 6.10095 14.4645 6.13013C14.4605 6.10684 14.4509 6.04463 14.4451 5.95733C14.4412 5.85634 14.4353 5.72629 14.4412 5.69903C14.4508 5.64667 14.5325 5.44085 14.7053 5.25244C14.9111 5.02716 15.1228 4.59426 15.1849 4.46024C15.2469 4.32623 15.511 3.76904 15.511 3.76904H15.713L15.4197 4.43695C15.4197 4.43695 15.2431 4.802 15.1518 4.93615C15.0606 5.07029 14.8683 5.45467 14.7828 5.60418C14.8449 5.52264 14.8974 5.47989 14.9596 5.40219C15.0198 5.34779 15.1867 5.11292 15.1867 5.11292L15.1864 5.11266Z" fill="#8C6228"/>
<path fill-rule="evenodd" clip-rule="evenodd" d="M16.3146 2.7688C16.2816 2.87034 16.2294 2.96463 16.161 3.04656C16.0405 3.1903 15.7822 3.38243 15.6562 3.53577C15.541 3.68528 15.3106 4.09309 15.4153 4.57654C15.4537 4.47171 15.526 4.26397 15.7182 4.02896C15.9105 3.79395 16.1163 3.52413 16.2174 3.31446C16.3183 3.10275 16.3318 2.93584 16.3318 2.93584L16.3702 2.88733L16.3469 2.77661L16.3139 2.7688H16.3146Z" fill="#CBA94C"/>
<path fill-rule="evenodd" clip-rule="evenodd" d="M20.2468 15.6483C20.2468 15.6483 20.1691 15.4367 20.1458 15.2444C20.1225 15.0522 20.1842 15.0141 20.1127 14.794C20.07 14.66 19.9924 14.6788 19.973 14.66C19.9535 14.6412 19.9399 14.4387 19.9438 14.328C19.9476 14.2173 19.9399 14.0736 19.9205 14.0114C19.8914 13.9881 19.872 13.9687 19.8292 13.8251C19.7807 13.6813 19.7574 13.6095 19.7341 13.5669C19.7108 13.5243 19.6427 13.4854 19.6427 13.4426C19.6427 13.3571 19.7204 13.3126 19.7204 13.289C19.7166 13.2405 19.6583 13.2794 19.6427 13.2657C19.6234 13.2424 19.6914 13.1026 19.6662 13.0832C19.6564 13.0736 19.5885 13.1551 19.5709 13.1318C19.5515 13.1084 19.5282 12.8774 19.4932 12.724C19.4603 12.5745 19.4253 12.4658 19.4214 12.4212C19.4176 12.3784 19.1534 11.625 19.0894 11.4425C19.0378 11.2883 18.9944 11.1314 18.9593 10.9726C18.9399 10.8813 18.9263 10.6949 18.9166 10.7143C18.9068 10.7338 18.9127 10.8289 18.8971 10.825C18.8836 10.8211 18.835 10.4892 18.8196 10.4367C18.806 10.3842 18.7243 10.2063 18.7044 10.0775C18.6849 9.94734 18.6423 9.6075 18.6131 9.37646C18.5839 9.14542 18.5703 9.05032 18.5703 8.99247C18.5751 8.85096 18.5673 8.7093 18.547 8.56917C18.5086 8.32444 18.4318 8.02735 18.3645 7.85468C18.2345 7.52841 17.8887 6.69348 17.8269 6.48573C17.8269 6.43325 17.8949 6.46244 17.8949 6.46244C17.8949 6.46244 18.0637 6.88573 18.188 7.21187C18.3084 7.53814 18.423 7.8255 18.4522 7.85468C18.4755 7.88374 18.658 8.20412 18.7396 8.7284C18.8211 9.25269 18.8501 9.73614 18.8988 10.0584C18.9221 10.212 18.9415 10.375 18.99 10.5381C19.0424 10.7148 19.1239 10.8973 19.2308 11.1769C19.3221 11.4119 19.3901 11.608 19.4269 11.777C19.4697 11.9925 19.4697 12.1556 19.4949 12.2625C19.5183 12.3537 19.5531 12.5361 19.6348 12.8001C19.7165 13.064 19.8366 13.404 19.9182 13.6155C20.0775 14.0388 20.1486 14.3922 20.1726 14.5806C20.1939 14.7748 20.2658 15.4467 20.2464 15.6485L20.2468 15.6483Z" fill="#A88F33"/>
<path fill-rule="evenodd" clip-rule="evenodd" d="M16.3243 2.74552L16.3146 2.76881C16.3146 2.76881 16.3437 2.77854 16.3379 2.81745C16.3383 2.87069 16.3351 2.9239 16.3282 2.97669C16.3186 3.04466 16.2991 3.09701 16.2953 3.13976C16.2953 3.23103 16.3088 3.33586 16.1801 3.59608C16.1417 3.66789 16.118 3.72997 16.0985 3.77273C16.05 3.87756 16.0403 3.89317 15.9976 3.94169C16.0655 3.90329 16.3102 3.74969 16.4344 3.77273C16.349 3.82124 16.2189 3.91647 16.1373 4.04076C16.1568 4.0446 16.2383 4.06022 16.3677 4.04076C16.5833 4.00774 16.824 3.93004 17.0356 3.94553C17.2667 3.95909 17.1755 3.66789 17.1755 3.66789L16.9087 3.08152L16.4039 2.72632L16.3243 2.74565V2.74552Z" fill="#BE9C44"/>
<path fill-rule="evenodd" clip-rule="evenodd" d="M17.6407 7.13792C17.6407 7.13792 17.4155 6.91264 17.3242 6.13951C17.2329 5.36279 17.2524 4.21949 17.2524 4.21949L17.0699 3.77289C17.0699 3.77289 17.0315 3.4758 16.9358 3.3652C16.8402 3.25461 16.6524 3.06811 16.5669 2.97685C16.4814 2.88558 16.3844 2.76129 16.3262 2.74184C16.3552 2.69332 16.4854 2.41953 16.9843 2.41569C17.4833 2.41185 17.6371 2.68948 17.6892 2.79048C17.7413 2.89147 17.9766 3.32808 18.0639 4.16009C18.1454 4.99108 18.1494 5.05329 18.1358 5.34065C18.1261 5.49988 18.0736 5.86878 17.9822 6.2629C17.8988 6.59699 17.8075 6.96985 17.6405 7.13869L17.6407 7.13792Z" fill="#A17C34"/>
<path fill-rule="evenodd" clip-rule="evenodd" d="M16.9344 7.80003C17.0095 7.80545 17.0845 7.78853 17.15 7.7514C17.2218 7.74756 17.4821 7.78058 17.682 7.52625C17.6956 7.58436 17.7306 7.74179 17.6392 7.88157C17.6879 7.83293 17.7597 7.8136 17.7694 7.80003C17.7733 7.87184 17.8412 8.09315 17.5539 8.631C17.6314 8.54563 17.7227 8.54947 17.8042 8.53974C17.8082 8.64073 17.8625 8.98044 17.7189 9.16309C17.6238 9.28738 17.4684 9.24847 17.4684 9.24847C17.4706 9.22134 17.4706 9.19406 17.4684 9.16693C17.4645 9.11445 17.4451 9.0621 17.4588 9.02716C17.3837 8.99286 17.3153 8.94549 17.2568 8.88725C17.0878 8.72802 16.8684 8.45628 16.8529 8.2543C16.8334 8.02902 17.0354 7.98051 17.0354 7.98051C17.0185 7.96538 17.0041 7.94766 16.9927 7.92803C16.9829 7.89514 16.9732 7.84266 16.9344 7.80003Z" fill="#8C6228"/>
<path fill-rule="evenodd" clip-rule="evenodd" d="M15.4368 5.35732C15.4368 5.35732 15.4271 5.34376 15.3748 5.40584C15.3845 5.34376 15.3942 5.28539 15.3981 5.22907C15.4228 5.17693 15.4549 5.12857 15.4933 5.08545C15.4641 5.14356 15.4446 5.19604 15.4446 5.19604C15.4446 5.19604 15.5166 5.06203 15.6214 4.98049C15.6932 4.92225 15.7845 4.89512 15.8233 4.84072C15.866 4.78248 15.8563 4.77275 15.866 4.76302C15.866 4.76302 15.9612 4.70094 16.1069 4.51828C16.1262 4.49499 16.1554 4.46977 16.1749 4.44648C16.2078 4.43291 16.2854 4.39796 16.3767 4.35124C16.4719 4.29889 16.5787 4.22708 16.6447 4.19764C16.7748 4.1394 16.9128 4.14529 16.9768 4.0539C17.0253 4.04033 17.0776 3.89467 17.068 3.77051C17.1398 3.79956 17.5087 4.02868 17.635 4.52968C17.7263 4.885 17.5631 5.43259 17.4951 5.69678C17.4272 5.96097 17.4176 6.15694 17.3223 6.27726C17.2019 6.43662 16.8137 6.66126 16.7185 6.77249C16.6369 6.86376 16.3923 7.0948 16.4019 7.26171C16.4117 7.386 16.565 7.45371 16.5981 7.47726C16.6313 7.50081 16.631 7.52974 16.6932 7.51566C16.7554 7.50158 16.7786 7.47291 16.804 7.47291C16.833 7.47675 16.833 7.48264 16.8466 7.48264C16.8564 7.48234 16.8662 7.48101 16.8758 7.47867C16.8758 7.47867 16.866 7.65544 16.4525 7.70907C16.4233 7.71304 16.3942 7.72264 16.3573 7.72852C16.4059 7.70523 16.4349 7.70523 16.4874 7.63342C16.4292 7.62369 16.2622 7.61396 16.2194 7.6004C16.233 7.5771 16.2776 7.51489 16.3145 7.48584C16.3475 7.45678 16.3107 7.44744 16.2816 7.46254C16.2316 7.49658 16.1836 7.5335 16.1379 7.57313C16.0894 7.61588 16.0466 7.67412 15.9689 7.72673C15.9456 7.64904 15.9495 7.50145 16.0408 7.3947C16.0174 7.39854 15.9728 7.46651 15.9301 7.45294C15.9224 7.38211 15.927 7.31049 15.9437 7.24123C15.967 7.1538 16.0932 7.00046 16.0932 7.00046L16.7028 5.91105L16.8329 5.08584L15.4368 5.35707V5.35732Z" fill="#92723A"/>
<path fill-rule="evenodd" clip-rule="evenodd" d="M15.4041 5.40397C15.4041 5.40397 15.3711 5.42726 15.4371 5.47194C15.4274 5.4855 15.4041 5.53402 15.3749 5.56704C15.342 5.60544 15.3069 5.62925 15.2934 5.66227C15.2643 5.73024 15.241 5.77683 15.241 5.80602C15.241 5.8352 15.2313 6.02157 15.1497 6.14189C15.1206 6.18464 15.0875 6.25645 15.0642 6.30496C15.0157 6.39034 14.973 6.45856 14.9632 6.49696C14.9439 6.56493 14.9303 6.7513 14.9303 6.7513C14.9303 6.7513 14.9731 6.69882 14.9886 6.67949C14.9652 6.728 14.9399 6.78035 14.9031 6.81926C14.9264 6.79981 14.9943 6.7513 15.1089 6.6503C15.2682 6.51642 15.5168 6.29114 15.8197 6.1127C15.7284 6.14573 15.6508 6.14573 15.5887 6.15546C15.6372 6.10694 16.0741 5.5943 16.3032 5.54579C16.3172 5.52815 16.3241 5.50601 16.3227 5.48358L16.1265 5.46426L15.7284 5.54963L15.6702 5.24243L15.4041 5.40358V5.40397Z" fill="#B18E3E"/>
<path fill-rule="evenodd" clip-rule="evenodd" d="M16.0368 7.15142C16.0368 7.15142 15.9843 7.20377 15.9358 7.33395C15.8985 7.29495 15.8665 7.25118 15.8406 7.20377C15.7688 7.08345 15.6582 6.92998 15.3999 7.01741C15.3961 6.93587 15.3902 6.89312 15.3999 6.83488C15.4426 6.82528 15.5727 6.72045 15.7027 6.56697C15.7941 6.46214 15.8795 6.34169 15.9378 6.18835C15.9762 6.15917 16.0426 6.11065 16.1298 6.05433C16.254 5.96896 16.4035 5.85235 16.4268 5.7223C16.3686 5.7456 16.2443 5.80384 16.0578 5.79424C16.1298 5.76121 16.2403 5.72627 16.2268 5.58253C16.256 5.56307 16.2793 5.5495 16.2793 5.5495C16.2574 5.5422 16.2343 5.53891 16.2113 5.53977C16.2073 5.52621 16.2016 5.50688 16.1685 5.51648C16.1355 5.52608 16.1301 5.52621 16.1258 5.53977C16.1122 5.54374 16.0675 5.53978 16.0345 5.5632C16.0015 5.58662 15.9102 5.66406 15.8753 5.67763C15.8889 5.65434 15.9082 5.61952 15.9082 5.61952C15.9082 5.61952 15.8131 5.62912 15.7451 5.65792C15.6208 5.70067 15.4772 5.77837 15.3315 5.85401C15.3451 5.83072 15.351 5.81562 15.3606 5.81126C15.3702 5.80691 15.3936 5.80166 15.3936 5.7977C15.3936 5.79373 15.384 5.75929 15.3898 5.74534C15.4333 5.65309 15.4847 5.56474 15.5434 5.48128C15.6114 5.38989 15.6249 5.25984 15.6249 5.25984L15.922 5.11033L16.757 4.91833L17.2988 4.95136L17.2308 5.32614L16.9108 5.98048L16.637 6.57657L16.3243 6.94176L16.037 7.15142H16.0368Z" fill="#543E26"/>
<path fill-rule="evenodd" clip-rule="evenodd" d="M17.3903 5.52965C17.3903 5.52965 17.064 5.93349 16.9727 5.9957C17.031 5.87141 17.3903 5.13157 17.5203 4.92575C17.4912 4.90245 17.4523 4.90245 17.5436 4.54175C17.466 4.72415 17.4388 4.81938 17.3748 4.86789C17.3108 4.9164 17.3028 4.90092 17.2596 4.90092C17.2677 4.88614 17.2711 4.86918 17.2692 4.8524C17.2692 4.8524 16.9954 4.81938 16.8084 4.81938C16.6214 4.81938 16.2512 4.92037 16.0453 5.00191C15.8822 5.06988 15.7909 5.06988 15.7327 5.1125C15.6745 5.16101 15.6414 5.21349 15.6123 5.22706C15.589 5.24063 15.4784 5.27557 15.453 5.31244C15.4297 5.35084 15.391 5.39397 15.391 5.4037C15.391 5.41343 15.3812 5.42712 15.4104 5.41727C15.42 5.41343 15.4919 5.37452 15.5735 5.326C15.6841 5.26392 15.8181 5.19212 15.9152 5.14936C16.1929 5.03864 16.2803 5.0581 16.4044 5.0348C16.5345 5.01151 16.721 4.95711 16.8451 4.95711C16.9694 4.95327 17.2044 4.95711 17.2588 4.96684C17.2355 4.98629 17.2161 5.00959 17.2258 5.09112C17.2258 5.11442 17.2063 5.13964 17.1874 5.19596C17.1293 5.35519 17.0186 5.61925 16.957 5.75327C16.8716 5.93567 16.7746 6.08914 16.7266 6.18424C16.6786 6.27935 16.573 6.52984 16.4684 6.66386C16.3639 6.79788 16.3092 6.87941 16.2764 6.9086C16.2437 6.93778 16.0084 7.11045 16.0259 7.17266C16.0687 7.15909 16.3386 7.05746 16.5346 6.83679C16.7306 6.61612 16.7696 6.48146 16.9229 6.36101C17.0763 6.24056 17.1967 6.03871 17.2685 5.8718C17.3287 5.7164 17.3151 5.66789 17.3908 5.53004L17.3903 5.52965Z" fill="#806031"/>
<path fill-rule="evenodd" clip-rule="evenodd" d="M10.3594 8.54374C10.3594 8.54374 10.3166 8.72038 10.2194 8.8078C10.1243 8.89331 9.95537 8.96704 9.93604 9.11078C9.91274 9.2544 10.105 9.32633 10.105 9.32633C10.105 9.32633 10 9.49913 10 9.62918C10 9.7632 9.9962 9.78841 10.0098 9.91654C9.99437 9.92645 9.98128 9.93954 9.97137 9.95494C9.97137 9.95494 9.98097 10.0792 10.0762 10.1568C10.1714 10.2344 10.2529 10.2811 10.3014 10.2616C10.3088 10.2775 10.3153 10.2937 10.3208 10.3103C10.3208 10.3103 10.3928 10.1277 10.4413 9.96851C10.4898 9.80544 10.5325 9.8286 10.5519 9.60921C10.5712 9.38982 10.7823 9.01312 10.7823 9.01312L10.9263 8.6912L10.6914 8.50867L10.3594 8.54361V8.54374Z" fill="#B6903C"/>
<path fill-rule="evenodd" clip-rule="evenodd" d="M10.7962 8.86011C10.7477 8.90983 10.703 8.96305 10.6624 9.01934C10.6003 9.10484 10.5518 9.18241 10.4605 9.21556C10.3693 9.24872 10.311 9.24846 10.3168 9.33985C10.3226 9.43124 10.4081 9.4699 10.4566 9.51649C10.5091 9.565 10.5518 9.64654 10.5285 9.73793C10.5576 9.72436 10.6101 9.70875 10.6586 9.60392C10.7071 9.49908 11.0464 8.86024 11.0464 8.86024H10.7962V8.86011Z" fill="#685026"/>
<path fill-rule="evenodd" clip-rule="evenodd" d="M12.1345 7.38626C12.1345 7.38626 12.1635 7.30869 12.1345 7.25237C12.1053 7.19413 11.9287 7.17468 11.8412 7.10863C11.75 7.04066 11.6393 6.99343 11.548 7.02326C11.5616 6.99023 11.616 6.9183 11.5713 6.90281C11.5285 6.88924 11.3694 6.96105 11.3267 6.99407C11.2839 7.0271 11.1868 7.06588 11.1674 7.0893C11.1481 7.11273 11.115 7.15727 11.0955 7.13782C11.0761 7.12425 11.0665 7.0893 11.0334 7.10863C11.0004 7.12796 10.8414 7.25813 10.8121 7.33391C10.7828 7.40968 10.7169 7.57864 10.5189 7.77077C10.3209 7.96289 10.2354 8.08731 10.2936 8.15912C10.3518 8.23092 10.3791 8.17857 10.3888 8.24065C10.3963 8.30159 10.393 8.36338 10.3791 8.42318C10.3558 8.52417 10.317 8.61927 10.3694 8.63873C10.5034 8.68148 10.6336 8.60033 10.6626 8.62516C10.7209 8.67751 10.6296 8.86593 10.7675 8.90279C10.9074 8.94119 11.0452 8.86977 11.0452 8.86977L11.5539 8.59598L12.0432 8.3378L12.2936 7.84258L12.1593 7.42901L12.1337 7.38626H12.1345Z" fill="#D4B968"/>
<path fill-rule="evenodd" clip-rule="evenodd" d="M11.6544 8.5689C11.6544 8.5689 11.5689 8.43885 11.6739 8.32416C11.7788 8.20947 11.9282 8.16109 11.9864 8.08928C11.9754 8.07561 11.9605 8.0655 11.9437 8.06023C11.9824 7.99105 12.0413 7.93542 12.1127 7.90087C12.0836 7.87181 12.0447 7.84852 12.0021 7.84852C11.9068 7.84852 11.8485 7.90676 11.7612 7.90676C11.6758 7.90676 11.6661 7.864 11.6661 7.864C11.6661 7.864 11.8098 7.85044 11.7961 7.78631C11.7825 7.71834 11.7577 7.71834 11.7577 7.71834C11.7577 7.71834 12.0353 7.60314 12.0839 7.5417C12.1324 7.48026 12.1266 7.40769 12.1363 7.37863C12.1692 7.37863 12.3615 7.27764 12.4392 7.32039C12.5169 7.36314 12.4625 7.47962 12.4625 7.47962C12.4625 7.47962 12.6976 7.30286 12.8174 7.12955C12.9223 7.13927 12.971 7.05774 13.0478 7.05774C13.1431 7.05774 13.2926 7.18779 13.3216 7.46542C13.3411 7.62465 13.3701 7.71591 13.3411 7.99751C13.3275 8.15674 13.3314 8.4967 13.3795 8.66541C13.4124 8.79942 13.4901 8.78585 13.4901 8.78585C13.4782 8.82669 13.4545 8.86314 13.4221 8.89069C13.3696 8.9392 13.3639 9.06745 13.3696 9.11596C13.3774 9.15143 13.3871 9.18643 13.3988 9.22079C13.3988 9.22079 13.3367 9.2926 13.3211 9.34124C13.3075 9.38975 13.2435 9.42278 13.1968 9.42278C13.1501 9.42278 13.1735 9.41881 13.1115 9.42278C13.0494 9.42674 13.0299 9.43634 12.991 9.42278C12.9521 9.40921 12.923 9.39359 12.9387 9.26918C12.9522 9.14489 12.459 8.85561 12.459 8.85561L11.6526 8.56826L11.6544 8.5689Z" fill="#CCA849"/>
<path fill-rule="evenodd" clip-rule="evenodd" d="M10.7282 9.79612C10.7282 9.79612 10.9048 10.0311 11.6311 10.0311C11.9767 10.0311 12.0972 9.99811 12.1687 9.97865C12.2464 9.95919 12.5377 9.84476 12.8309 9.49903C13.095 9.18646 13.0367 9.05833 13.0367 9.05833L12.8831 9.03503L12.3839 9.103L10.9067 9.73212L10.7275 9.79612H10.7282Z" fill="#585136"/>
<path fill-rule="evenodd" clip-rule="evenodd" d="M11.2697 9.85428C11.2697 9.85428 10.6406 9.99417 10.6406 9.59611C10.6406 9.20777 11.029 8.79998 11.1261 8.72818C11.2271 8.65625 11.4679 8.57458 11.4679 8.57458H12.0485L12.1591 8.86782L12.1106 9.50075L11.2697 9.85415V9.85428Z" fill="#252211"/>
<path fill-rule="evenodd" clip-rule="evenodd" d="M11.8505 8.69323C11.8505 8.69323 11.7302 8.5825 11.4564 8.73163C11.1826 8.88075 10.9612 9.19244 10.9476 9.47545C10.934 9.72582 11.1534 9.91232 11.4952 9.92205C11.7495 9.93165 11.903 9.9026 11.9807 9.88365C11.9613 9.86035 11.8603 9.73414 11.8603 9.73414L11.8507 8.69335L11.8505 8.69323Z" fill="#C3B378"/>
<path fill-rule="evenodd" clip-rule="evenodd" d="M11.7321 8.75521C11.7321 8.75521 11.7031 8.73192 11.6169 8.77851C11.5451 8.81691 11.4403 8.91841 11.3588 8.99021C11.3063 9.03296 11.2733 9.05229 11.2436 9.08531C11.1231 9.22905 11.0221 9.46405 11.0805 9.58052C11.1389 9.697 11.331 9.83101 11.8203 9.73975L11.7307 8.75534L11.7321 8.75521Z" fill="#E6D89C"/>
<path fill-rule="evenodd" clip-rule="evenodd" d="M11.5731 8.99612C11.5731 8.99612 11.4954 9.11657 11.4954 9.30883C11.4954 9.50493 11.6061 9.81751 12.0139 9.84081C12.3264 9.86027 12.5361 9.39037 12.7633 9.20784C12.9361 9.06806 13.0409 9.06409 13.0409 9.06409C13.0409 9.06409 12.8643 8.87209 12.3925 8.62338C11.9265 8.37288 11.4041 8.33985 11.1206 8.72437C11.2546 8.71465 11.6876 8.60392 11.6876 8.60392L11.8993 8.67189L11.5731 8.99625V8.99612Z" fill="#252211"/>
<path fill-rule="evenodd" clip-rule="evenodd" d="M12.1825 9.25039C12.169 9.22133 12.1593 9.18242 12.2156 9.17282C12.2719 9.16322 12.2971 9.16885 12.3165 9.21122C12.336 9.25359 12.3549 9.28892 12.3261 9.30645C12.2971 9.32194 12.2213 9.30645 12.1824 9.25013L12.1825 9.25039ZM12.0913 8.9766C12.0913 8.9766 12.0719 8.99017 12.0816 8.96303C12.0854 8.93014 12.1108 8.87177 12.1728 8.88547C12.2349 8.89916 12.2215 8.967 12.2112 8.98646C12.201 9.00591 12.1491 9.03881 12.1102 9.02486C12.1053 9.0236 12.1007 9.02119 12.0969 9.01783C12.0931 9.01448 12.0901 9.01026 12.0882 9.00554C12.0863 9.00081 12.0856 8.9957 12.086 8.99063C12.0865 8.98556 12.0881 8.98067 12.0908 8.97635L12.0913 8.9766Z" fill="#6F674D"/>
<path fill-rule="evenodd" clip-rule="evenodd" d="M6.83521 9.10071C6.83521 9.10071 6.98881 9.21591 7.16724 9.21143C7.34388 9.20746 7.57108 9.02506 7.67591 8.90845C7.73799 8.84049 7.79111 8.76868 7.84871 8.71236C7.89735 8.66385 7.93024 8.64055 7.95354 8.60753C7.98656 8.56913 8.02151 8.49693 8.03904 8.47351C7.99629 8.50653 7.93421 8.5649 7.87008 8.60369C7.808 8.64209 7.67399 8.71428 7.61959 8.73374C7.56724 8.75319 7.02349 9.04094 7.02349 9.04094L6.83521 9.10071Z" fill="#AC924C"/>
<path fill-rule="evenodd" clip-rule="evenodd" d="M7.06982 7.66601C7.06982 7.66601 7.1552 7.60777 7.32032 7.57078C7.47955 7.53238 7.79994 7.50281 7.79994 7.50281L8.064 7.61801L8.16883 8.01609L7.97683 8.42978L7.73222 8.58338L7.45446 8.13679L7.07046 7.66678L7.06982 7.66601Z" fill="#9F8E57"/>
<path fill-rule="evenodd" clip-rule="evenodd" d="M6.72445 8.02141L6.63306 8.08963C6.63306 8.08963 6.65648 8.04688 6.67581 7.91683C6.69514 7.78678 6.79626 7.47023 6.94384 7.28769C7.09143 7.10516 7.08759 7.11489 7.08759 7.11489C7.07401 7.11241 7.06005 7.11285 7.04666 7.11618C7.03326 7.11951 7.02073 7.12566 7.00989 7.13422C7.02935 7.09121 7.15364 6.93761 7.27793 6.86081C7.40221 6.784 7.45073 6.75981 7.58077 6.8224C7.71082 6.885 7.74385 6.91751 7.83908 6.91367C7.93431 6.90983 8.01572 6.80884 8.01572 6.80884C8.01572 6.80884 8.03518 6.87092 7.96337 7.01466C7.89156 7.15841 7.60804 7.45154 7.60804 7.45154L7.0177 7.85539L6.72445 8.02179V8.02141Z" fill="#EAC970"/>
<path fill-rule="evenodd" clip-rule="evenodd" d="M7.16091 7.61761C7.16091 7.61761 7.58818 7.67585 7.71822 7.55553C7.72206 7.5691 7.73768 7.5691 7.73768 7.57883C7.73663 7.58616 7.73322 7.59294 7.72795 7.59815C7.7421 7.5959 7.75638 7.59461 7.7707 7.59431C7.7878 7.5994 7.8054 7.60266 7.82318 7.60404C7.83751 7.60373 7.8518 7.60241 7.86594 7.60007C7.86459 7.60972 7.86131 7.61901 7.85629 7.62736C7.85128 7.63572 7.84463 7.64298 7.83675 7.64871C7.85621 7.64871 7.87515 7.65255 7.87515 7.66804C7.87515 7.68353 7.87899 7.73025 7.8557 7.73998C7.8364 7.74531 7.81585 7.74391 7.79746 7.73601C7.799 7.77277 7.80898 7.80869 7.82664 7.84097C7.86504 7.91278 7.94696 7.99457 8.05704 7.97102C8.05704 7.97102 8.11515 8.11079 7.87054 8.42145C7.83765 8.4642 7.80258 8.52244 7.75995 8.57095C7.74311 8.60766 7.73024 8.64607 7.72155 8.68551C7.72155 8.68551 8.13525 8.52628 8.25365 8.16314C8.3741 7.79809 8.39739 7.43892 8.3741 7.10305C8.37013 7.00782 8.35464 6.93998 8.33134 6.89134C8.2731 6.77089 8.1099 6.79035 8.04398 6.85831C7.94875 6.95355 7.78952 7.19035 7.56821 7.35342C7.34293 7.51649 7.33333 7.54542 7.1604 7.61761H7.16091Z" fill="#D7BC6B"/>
<path fill-rule="evenodd" clip-rule="evenodd" d="M6.64856 8.1418C6.64856 8.1418 6.56701 8.19031 6.52426 8.3722C6.4815 8.55857 6.56266 8.78577 6.60964 8.85758C6.65662 8.92938 6.76325 9.12561 6.98446 9.13534C7.03921 9.13505 7.09335 9.12382 7.14371 9.10231C7.22093 9.06691 7.29336 9.02188 7.35928 8.9683C7.45452 8.89649 7.53209 8.83441 7.52236 8.82852C7.49907 8.81879 6.93594 8.35274 6.93594 8.35274L6.72421 8.11646L6.64843 8.14206L6.64856 8.1418Z" fill="#585136"/>
<path fill-rule="evenodd" clip-rule="evenodd" d="M7.18089 8.91461C7.18089 8.91461 7.29546 8.90501 7.36343 8.86225C7.4314 8.8195 6.96533 8.35742 6.96533 8.35742L6.99836 8.85662L7.18089 8.91461Z" fill="#453A25"/>
<path fill-rule="evenodd" clip-rule="evenodd" d="M6.68541 8.10679C6.68541 8.10679 6.62717 8.21751 6.62717 8.24669C6.61744 8.3418 6.64662 8.6408 6.66992 8.73591C6.69321 8.8369 6.81942 8.99024 6.98262 8.99024C7.08348 8.99024 7.22338 8.92816 7.22338 8.91268C7.22338 8.89322 7.07964 8.87428 7.04086 8.80196C7.01756 8.76356 7.00783 8.66807 7.00246 8.57156C6.99862 8.50948 6.99862 8.44151 7.02191 8.41796C7.07439 8.35972 7.08399 8.19268 7.08399 8.19268L7.27036 7.84644H7.02524L6.732 8.02896L6.68541 8.10679Z" fill="#84754B"/>
<path fill-rule="evenodd" clip-rule="evenodd" d="M6.61377 8.21361C6.61377 8.21361 6.80576 7.95928 6.97881 7.90091C7.15187 7.84254 7.2293 7.87761 7.2293 7.87761L7.12831 8.13591L6.98457 8.29514L6.9943 8.37668C6.9943 8.37668 6.97088 8.59223 7.11462 8.74173C7.25836 8.89123 7.36511 8.88547 7.42731 8.88547C7.48952 8.88547 7.66807 8.83299 7.75934 8.61744C7.84087 8.41559 7.90883 8.15665 7.74577 7.89707C7.58641 7.63877 7.30495 7.62878 7.25055 7.62878C7.19615 7.62878 6.76903 7.65016 6.61377 8.21322V8.21361Z" fill="#252211"/>
<path fill-rule="evenodd" clip-rule="evenodd" d="M11.5437 9.0777C11.4719 9.04467 11.5399 8.84282 11.6117 8.78061C11.6835 8.71841 11.7748 8.64673 11.9341 8.63687C11.9923 8.63303 12.0486 8.6699 12.039 8.70881C12.0254 8.78061 11.9244 8.8816 11.8332 8.95341C11.7069 9.05248 11.6253 9.11456 11.5437 9.0777Z" fill="#F7F7E7"/>
<path fill-rule="evenodd" clip-rule="evenodd" d="M7.65994 7.9768C7.71243 7.97296 7.7804 8.01521 7.79397 8.07204C7.80754 8.13412 7.76094 8.25842 7.65994 8.25842C7.5784 8.25842 7.53564 8.15742 7.53564 8.12836C7.53656 8.10447 7.54324 8.08115 7.5551 8.06039C7.55894 8.0545 7.56867 7.98653 7.65994 7.9768Z" fill="#F8F6DE"/>
<path fill-rule="evenodd" clip-rule="evenodd" d="M6.9028 8.02136C6.9028 8.02136 6.76878 8.08344 6.7067 8.21335C6.66235 8.30928 6.64893 8.41664 6.6683 8.52054C6.67803 8.56905 6.72654 8.68936 6.75957 8.73211C6.79259 8.77486 6.83726 8.80404 6.87029 8.80007C6.90331 8.79611 6.97115 8.70881 6.97115 8.65646C6.97115 8.60412 6.97512 8.38269 7.03912 8.26225C7.09544 8.14193 6.90319 8.02149 6.90319 8.02149L6.9028 8.02136Z" fill="#D4C38B"/>
<path fill-rule="evenodd" clip-rule="evenodd" d="M6.92239 8.01168C6.89909 8.02525 6.86031 8.0447 6.86991 8.06992C6.87963 8.09321 6.96117 8.10831 6.99036 8.16514C7.02338 8.22338 7.02338 8.28545 7.01365 8.31463C7.03902 8.30258 7.06203 8.28612 7.08162 8.266C7.12437 8.21749 7.17672 8.15157 7.2214 8.15157C7.25058 8.15157 7.27964 8.16514 7.3069 8.16514C7.34965 8.16514 7.39228 8.15157 7.39817 8.1069C7.40777 8.04867 7.31663 7.99619 7.26415 8.00592C7.27388 7.96752 7.28745 7.91082 7.24469 7.87191C7.20194 7.833 7.06805 7.90109 7.03887 7.92055C7.00968 7.94 6.92239 8.01181 6.92239 8.01181V8.01168Z" fill="#E2D59D"/>
<path fill-rule="evenodd" clip-rule="evenodd" d="M10.0077 12.0913L10.295 12.0065L10.3766 12.0647C10.3766 12.0647 10.4347 12.189 10.5261 12.2045C10.4969 12.2666 10.4211 12.3197 10.4251 12.3637C10.4291 12.4077 10.4678 12.4414 10.4678 12.4414C10.4678 12.4414 10.2095 12.8685 10.7183 13.299C10.5979 13.3475 10.4445 13.4142 10.363 13.4526C10.4211 13.4662 10.5454 13.491 10.5979 13.5381C10.6504 13.5852 10.6504 13.6002 10.6989 13.6294C10.7474 13.6586 10.7764 13.6973 10.7668 13.7148C10.7338 13.6953 10.6231 13.6372 10.6038 13.6915C10.5844 13.7457 10.1242 13.7245 10.1242 13.7245L9.34746 13.874C9.34746 13.874 9.37651 13.7963 9.29498 13.7245C9.19987 13.6391 9.08339 13.7283 8.9591 13.6332C8.79603 13.5089 8.79014 13.3652 8.73779 13.3109C8.79014 13.2779 8.89702 13.2294 9.15136 13.1957C9.14163 13.1763 9.10861 13.118 9.12806 13.0657C9.15136 12.9977 9.24839 12.9549 9.21933 12.8737C9.26208 12.8639 9.28141 12.8639 9.38829 12.7299C9.48928 12.5959 9.55136 12.5669 9.62906 12.5571C9.70675 12.5474 9.75334 12.5571 9.89709 12.4231C9.99795 12.328 9.96506 12.2465 9.96506 12.2465C9.96506 12.2465 10.031 12.2251 10.0078 12.0911L10.0077 12.0913Z" fill="#CBAC5A"/>
<path fill-rule="evenodd" clip-rule="evenodd" d="M9.15914 12.1345C9.16298 12.1151 9.1786 12.1053 9.28343 12.1151C9.38826 12.1248 10.0523 12.053 10.2329 12.0433C10.4155 12.0297 11.0582 12.0393 11.3709 12.1053C11.6836 12.1714 12 12.2491 12.1534 12.2879C12.307 12.3306 12.3553 12.346 12.3494 12.3654C12.3456 12.3849 12.311 12.4038 12.2912 12.3984C12.2719 12.3946 11.7631 12.2392 11.6059 12.2065C11.4487 12.1737 10.9048 12.086 10.6075 12.0913C10.3298 12.0952 10.2191 12.0874 9.98424 12.1146C9.74923 12.1437 9.36087 12.1825 9.24439 12.167C9.12919 12.1535 9.153 12.1535 9.15888 12.134L9.15914 12.1345Z" fill="#D6BC6F"/>
<path fill-rule="evenodd" clip-rule="evenodd" d="M10.7223 13.6564C10.7223 13.6564 11.1204 13.872 11.2641 14.136C11.3689 14.3321 11.202 14.4293 11.202 14.4293C11.202 14.4293 11.4273 14.4293 11.3981 14.5536C11.3846 14.6311 11.0098 14.8408 10.7593 14.9515C10.5049 15.0622 10.5147 15.0565 10.3904 15.0758C10.2699 15.0953 9.93983 15.0374 9.87186 15.134C9.8039 15.2307 9.83347 15.3303 9.85241 15.3457C9.87186 15.3593 10.0292 15.3788 10.0292 15.3788C10.0292 15.3788 9.99615 15.47 9.67001 15.4798C9.34387 15.4895 9.26221 15.5127 9.24275 15.5477C9.22329 15.5806 9.30483 15.5613 9.45446 15.5861C9.60396 15.6094 9.81363 15.6245 9.81363 15.6245C9.81363 15.6245 9.74566 15.6828 9.56902 15.7294C9.36704 15.7817 9.05049 15.8303 8.95539 15.8886C9.0039 15.9216 9.07584 15.9701 9.10899 15.974C9.02745 15.9934 8.91277 16.0362 8.89344 16.0517C8.9225 16.0711 8.96141 16.0944 8.96141 16.0944C8.96141 16.0944 8.79821 16.2905 8.7031 16.3391C8.608 16.3878 8.06042 16.642 7.87201 16.5935C7.40212 16.4692 7.34388 15.9546 7.22932 15.9158C7.05652 15.8576 6.97499 15.974 6.82152 15.8924C6.88948 15.8439 6.92648 15.8149 6.99828 15.7818C6.92059 15.7434 6.51867 15.4886 6.51867 15.4886C6.47664 15.397 6.42999 15.3076 6.3789 15.2207C6.3012 15.0867 6.1869 14.908 6.10114 14.7507C5.91477 14.4051 5.90504 14.2459 5.73608 14.0498C5.76527 14.0114 5.86613 14.0167 5.86613 14.0167L7.2818 14.4828L9.79199 14.5555L10.4448 13.6235L10.7224 13.6566L10.7223 13.6564Z" fill="#DFC677"/>
<path fill-rule="evenodd" clip-rule="evenodd" d="M7.00391 15.0776C7.01905 15.0945 7.03671 15.1089 7.05626 15.1204C7.1049 15.1534 7.17671 15.1923 7.22522 15.2504C7.24467 15.2213 7.29319 15.1689 7.37882 15.2504C7.46445 15.3319 7.57082 15.2738 7.63699 15.2932C7.70496 15.3166 7.7088 15.3262 7.7088 15.3262C7.7088 15.3262 7.7472 15.2932 7.83309 15.2582C7.88557 15.2388 7.94765 15.2252 8.01562 15.2059C8.0777 15.1923 8.14567 15.1728 8.19239 15.1728C8.23514 15.2019 8.38848 15.3648 9.00403 15.1243C9.58464 14.899 9.71853 14.8738 9.81568 14.9086C9.82541 14.8853 9.83514 14.8407 9.98464 14.8466C9.98464 14.7845 9.86035 14.5728 9.86035 14.5728L9.17491 14.3379H8.8L7.67578 14.5437L7.0528 14.8992L7.00429 15.0784L7.00391 15.0776Z" fill="#C4A859"/>
<path fill-rule="evenodd" clip-rule="evenodd" d="M6.62891 14.6834C6.62891 14.6834 6.64247 14.7883 6.79787 14.899C6.95147 15.0096 6.99972 15.0756 6.99972 15.0756C6.99972 15.0756 7.02891 15.0372 7.0522 14.9981C7.0755 14.9553 7.09495 14.9068 7.13374 14.8932C7.21143 14.8602 7.38807 14.9223 7.42699 14.9126C7.46001 14.903 7.45028 14.835 7.48523 14.835C7.56676 14.831 7.61911 14.8873 7.6483 14.8873C7.67748 14.8873 7.74916 14.8835 7.75889 14.868C7.76862 14.8525 7.77246 14.6913 7.88318 14.6136C8.00363 14.5282 8.15121 14.565 8.19038 14.5845C8.19038 14.6136 8.19422 14.6855 8.27191 14.6893C8.34961 14.6932 8.35729 14.6796 8.42551 14.7029C8.49374 14.7262 8.57502 14.6991 8.61188 14.8135C8.64491 14.8039 8.7226 14.7942 8.70315 14.6834C8.74155 14.6544 8.77508 14.6349 8.85675 14.5204C8.8762 14.4913 8.9091 14.4583 8.93444 14.4155C9.00241 14.4155 9.08395 14.402 9.19262 14.4971C9.15959 14.5204 9.14014 14.5355 9.13054 14.5592C9.15896 14.5873 9.18491 14.6178 9.20811 14.6504C9.23729 14.6888 9.25675 14.7359 9.29361 14.7457C9.37515 14.7689 9.50916 14.7359 9.65866 14.7457C9.80241 14.7554 9.92273 14.8077 9.97521 14.8408C9.99467 14.8312 9.99467 14.8272 10.0432 14.8369C10.0917 14.8466 10.1286 14.8505 10.0762 14.7884C10.1053 14.802 10.1383 14.8312 10.1675 14.802C10.1966 14.7728 10.2198 14.7302 10.3014 14.7204C10.3829 14.7107 10.4121 14.7243 10.4451 14.6389C10.4878 14.5341 10.3403 14.5341 10.3403 14.5341C10.3403 14.5341 10.4082 14.4719 10.484 14.3903C10.5753 14.3049 10.6801 14.1942 10.7053 14.0583C10.7481 13.8078 10.5035 13.7749 10.5035 13.7749L9.31703 14.14L7.86654 14.068L6.62967 14.6836L6.62891 14.6834Z" fill="#927D49"/>
<path fill-rule="evenodd" clip-rule="evenodd" d="M5.56326 11.2563C5.56326 11.2563 5.52486 11.3048 5.50118 11.4194C5.4775 11.5339 5.48761 11.5204 5.46815 11.6019C5.4487 11.6834 5.20972 12.4951 5.29932 12.7689C5.38892 13.0427 5.54406 13.1437 5.64108 13.365C5.66054 13.4135 5.67948 13.4427 5.68959 13.4855C5.72262 13.6291 5.69356 13.7398 5.73235 13.8836C5.74591 13.9321 5.78099 13.9884 5.83334 14.0466C5.94854 14.167 6.13631 14.2815 6.21734 14.3631C6.33177 14.4835 6.49497 14.7283 6.70271 14.7514C6.81343 14.765 6.97075 14.7184 7.10079 14.6408C7.21599 14.5689 7.28716 14.468 7.40799 14.4104C7.49337 14.3677 7.58463 14.3522 7.66617 14.3327C7.83513 14.2997 7.9886 14.2943 8.07987 14.3133C8.21964 14.3425 8.54975 14.4435 8.73267 14.4435C8.87559 14.4411 9.01772 14.4216 9.15596 14.3852C9.43359 14.3037 9.76947 14.1638 9.99091 14.1017C10.121 14.0633 10.2258 14.0532 10.3327 14.0299C10.5152 13.9871 10.6685 13.9289 10.756 13.8182C10.6977 13.7502 10.6259 13.6454 10.2374 13.6492C9.79673 13.6589 9.28793 13.9035 9.03743 13.9424C8.78694 13.9814 8.67827 14.0143 8.39859 13.9133C8.12441 13.8112 8.11532 13.7438 8.11532 13.7438C8.11532 13.7438 7.82745 13.5424 7.707 13.0291C7.58655 12.5158 7.707 12.1418 8.01971 11.7864C8.10124 11.6951 8.08179 11.6135 8.08179 11.6135C8.08179 11.6135 8.28761 11.3359 8.23129 11.0759C8.16921 10.8176 7.77113 10.8701 7.77113 10.8701L5.56339 11.2563H5.56326Z" fill="#6E6342"/>
<path fill-rule="evenodd" clip-rule="evenodd" d="M5.89514 12.1204C5.87803 12.1525 5.86997 12.1888 5.87185 12.2252C5.87569 12.2775 5.8913 12.3455 6.04849 12.499C6.1825 12.6329 6.15332 12.7824 6.15332 12.7824C6.15332 12.7824 6.22077 12.7959 6.40381 12.7103C6.54756 12.6423 6.59581 12.7628 6.59581 12.7628C6.63766 12.7408 6.68301 12.7264 6.72983 12.72C6.77225 12.7161 6.81331 12.703 6.85015 12.6816C6.85015 12.6816 7.01911 12.8544 7.16669 12.9359C7.3007 13.0079 7.3784 13.0564 7.44445 13.0079C7.50653 12.9651 7.50653 12.8777 7.50256 12.8389C7.48716 12.8031 7.46766 12.7692 7.44445 12.7379C7.4017 12.6759 7.33373 12.6039 7.32925 12.5459C7.31952 12.4121 7.43024 12.2527 7.40682 12.2139C7.38339 12.1751 7.29622 12.1654 7.08067 12.2431C6.85744 12.3168 5.89425 12.1207 5.89425 12.1207L5.89514 12.1204Z" fill="#39331F"/>
<path fill-rule="evenodd" clip-rule="evenodd" d="M6.40375 12.9886C6.40375 12.9886 6.29321 12.8837 6.33197 12.3749C6.37891 12.3743 6.42577 12.3788 6.47169 12.3885C6.47169 12.3885 6.53195 12.7827 6.40375 12.9886Z" fill="#292311"/>
<path fill-rule="evenodd" clip-rule="evenodd" d="M5.61553 10.8679C5.63096 10.8565 5.64527 10.8436 5.65828 10.8295C5.61988 10.9013 5.4426 11.1887 5.58634 11.6411C5.73009 12.0916 6.09117 12.4274 6.53585 12.443C6.98052 12.4586 7.21425 12.2411 7.48151 11.9149C7.58634 11.7849 7.70679 11.6217 7.81354 11.5111C7.97277 11.3382 8.09706 11.2896 8.09706 11.1227C8.09706 10.781 7.74749 10.6275 7.23293 10.4742C6.71837 10.3208 6.25425 10.3398 6.01348 10.4447C5.7786 10.5592 5.67761 10.6796 5.6154 10.868L5.61553 10.8679Z" fill="#252211"/>
<path fill-rule="evenodd" clip-rule="evenodd" d="M7.26796 13.1417L7.30636 13.1223C7.30636 13.1223 7.31595 12.9686 7.37815 12.9727C7.44022 12.9825 7.4694 13.0641 7.46352 13.0932C7.45968 13.1223 7.44419 13.1709 7.38199 13.165C7.30047 13.1669 7.26758 13.1417 7.26758 13.1417H7.26796Z" fill="#3F3824"/>
<path fill-rule="evenodd" clip-rule="evenodd" d="M7.09521 12.4894C7.09521 12.4894 7.13361 12.4758 7.18059 12.5224C7.21899 12.5224 7.38641 12.503 7.43889 12.536C7.49137 12.569 7.50686 12.598 7.50686 12.598C7.50686 12.598 7.31077 12.6408 7.20389 12.598C7.09521 12.5612 7.09521 12.4894 7.09521 12.4894Z" fill="#2D2815"/>
<path fill-rule="evenodd" clip-rule="evenodd" d="M7.9593 12.5184C7.9593 12.5086 7.85446 12.4368 7.74373 12.4134C7.72427 12.4096 7.72031 12.4232 7.70533 12.4232C7.6956 12.4193 7.69176 12.3901 7.69176 12.3901L7.62878 12.4233C7.62878 12.4233 7.61905 12.4368 7.65208 12.4617C7.68113 12.485 7.72978 12.5044 7.74335 12.5432C7.75692 12.5819 7.75692 12.5955 7.76281 12.6014C7.76665 12.6052 7.83462 12.6014 7.86765 12.5819C7.90067 12.5625 7.96289 12.5308 7.95892 12.518L7.9593 12.5184Z" fill="#82764F"/>
<path fill-rule="evenodd" clip-rule="evenodd" d="M6.97876 12.9128C6.97876 12.9128 6.99809 12.7789 7.12826 12.773C7.26215 12.7633 7.2875 12.8933 7.2875 12.8933L7.2098 12.971C7.2098 12.9691 7.15156 12.8876 6.9794 12.9128H6.97876Z" fill="#2D2816"/>
<path fill-rule="evenodd" clip-rule="evenodd" d="M7.82349 12.3358C7.82349 12.3358 7.75155 12.4135 7.59246 12.4369C7.57889 12.4174 7.54971 12.3786 7.59246 12.3165C7.63521 12.2544 7.68372 12.2349 7.73223 12.2542C7.75363 12.2577 7.7736 12.2672 7.78977 12.2817C7.80594 12.2961 7.81764 12.3149 7.82349 12.3358Z" fill="#574F35"/>
<path fill-rule="evenodd" clip-rule="evenodd" d="M8.11639 12.431C8.12036 12.4115 8.10679 12.4077 8.11639 12.3979C8.12599 12.3882 8.1786 12.3689 8.18833 12.3785C8.19217 12.3825 8.18833 12.3979 8.18833 12.4169C8.18833 12.4358 8.18833 12.4553 8.1786 12.4692C8.16503 12.4887 8.12625 12.4984 8.10679 12.4926C8.08734 12.4869 8.0835 12.4596 8.0835 12.4542C8.0931 12.4504 8.11639 12.4407 8.11639 12.431ZM8.44791 12.2213C8.44791 12.2116 8.48094 12.1921 8.50039 12.1921C8.52945 12.1921 8.52945 12.2154 8.53342 12.2213C8.54302 12.2252 8.54302 12.2174 8.55274 12.2349C8.56247 12.2524 8.57617 12.2834 8.56631 12.3028C8.55646 12.3223 8.5178 12.3357 8.5082 12.3319C8.49463 12.3222 8.45188 12.2349 8.44791 12.2213Z" fill="#82764F"/>
<path fill-rule="evenodd" clip-rule="evenodd" d="M7.78076 12.4757C7.78076 12.4757 7.82351 12.4853 7.88175 12.534C7.8623 12.5475 7.83311 12.563 7.83311 12.563C7.83311 12.563 7.82927 12.5183 7.78076 12.4756V12.4757Z" fill="#6E6342"/>
<path fill-rule="evenodd" clip-rule="evenodd" d="M7.68562 12.0487C7.67589 12.0391 7.71467 12.0158 7.73797 12.0196C7.76127 12.0235 7.771 12.0391 7.79621 12.0429C7.82143 12.0468 7.8254 12.0332 7.83462 12.0235C7.84383 12.0137 7.87737 12.0196 7.88313 12.0235C7.88672 12.0277 7.88997 12.0323 7.89286 12.037C7.89326 12.0297 7.89519 12.0224 7.89852 12.0158C7.90184 12.0092 7.9065 12.0034 7.91219 11.9986C7.91964 11.9932 7.92822 11.9894 7.93731 11.9878C7.9464 11.9861 7.95575 11.9865 7.96467 11.9889C7.96851 12.0025 7.98797 12.051 7.98413 12.0607C7.98028 12.0705 7.92204 12.0841 7.91219 12.0743C7.92191 12.0977 7.96467 12.1462 7.97043 12.1558C7.97619 12.1654 7.92768 12.1889 7.90835 12.185C7.88121 12.1831 7.71416 12.0859 7.68511 12.0491L7.68562 12.0487ZM7.93996 11.7264C7.93637 11.7166 7.92949 11.7083 7.92051 11.7031C7.90694 11.6992 7.86226 11.7031 7.86226 11.7264C7.86226 11.7497 7.90067 11.88 7.9438 11.9478C7.99245 12.0158 8.02534 12.072 8.05837 12.0876C8.06874 12.0923 8.08051 12.0929 8.09132 12.0893C8.10212 12.0857 8.11116 12.0782 8.11661 12.0681C8.12045 12.0584 8.13018 11.9866 8.12634 11.8176C8.1225 11.6487 8.11661 11.4856 8.10688 11.4758C8.09715 11.4661 8.05837 11.4662 8.0448 11.4856C8.03123 11.5049 7.9438 11.6973 7.93984 11.7264H7.93996Z" fill="#585136"/>
<path fill-rule="evenodd" clip-rule="evenodd" d="M7.76705 12.7204C7.76705 12.7204 7.69907 12.6777 7.63301 12.7068C7.57091 12.736 7.57475 12.8505 7.57475 12.8505C7.58872 12.856 7.60382 12.858 7.61872 12.8563C7.63363 12.8546 7.64789 12.8493 7.66028 12.8408C7.70304 12.8118 7.75732 12.7633 7.76705 12.7205V12.7204Z" fill="#574F35"/>
<path fill-rule="evenodd" clip-rule="evenodd" d="M7.89533 12.8739C7.89149 12.8355 7.85693 12.8355 7.85693 12.8156C7.85931 12.8061 7.86481 12.7977 7.87254 12.7917C7.88027 12.7858 7.88978 12.7825 7.89956 12.7826C7.91901 12.7826 7.93796 12.8059 7.96177 12.821C7.98506 12.8346 8.02001 12.8594 8.02385 12.889C8.02769 12.9185 7.98545 12.9996 7.93847 12.9996C7.89149 12.9996 7.90545 12.9121 7.89572 12.8734L7.89533 12.8739ZM8.27012 12.8214C8.27012 12.8214 8.19242 12.8447 8.19818 12.8214C8.20394 12.7981 8.22161 12.7923 8.24682 12.7923C8.25963 12.7789 8.27687 12.7706 8.29533 12.7689C8.3059 12.7684 8.31627 12.7719 8.32439 12.7786C8.32439 12.7786 8.37687 12.7553 8.39236 12.7689C8.40785 12.7825 8.39633 12.7825 8.40593 12.7981C8.41815 12.8154 8.42617 12.8354 8.42935 12.8563C8.42935 12.8718 8.37111 12.9049 8.32439 12.8991C8.27012 12.8874 8.27972 12.8311 8.27012 12.8214ZM8.72247 12.734C8.72247 12.734 8.74577 12.7475 8.72644 12.7631C8.71287 12.7767 8.6449 12.8016 8.58653 12.8059C8.52829 12.8059 8.47594 12.8155 8.47594 12.7962C8.47594 12.7768 8.52445 12.7379 8.55351 12.7282C8.55934 12.7209 8.56674 12.715 8.57516 12.711C8.58358 12.7069 8.59281 12.7049 8.60215 12.7049C8.62545 12.7049 8.71658 12.6952 8.74193 12.6913C8.76522 12.6874 8.78468 12.7009 8.77098 12.7204C8.76522 12.734 8.72247 12.734 8.72247 12.734ZM8.85649 12.1344C8.85649 12.1344 8.8273 12.1965 8.79441 12.1965C8.76138 12.1926 8.76138 12.1829 8.76138 12.1732C8.76138 12.1596 8.79441 12.1247 8.79044 12.1149C8.78084 12.1149 8.75741 12.1149 8.76138 12.0916C8.76138 12.0722 8.79441 12.0489 8.82346 12.0532C8.84542 12.0352 8.87275 12.025 8.90116 12.0242C8.93418 12.0242 8.96324 12.0338 8.96324 12.0532C8.96324 12.0727 8.92484 12.1153 8.91076 12.1252C8.89527 12.1407 8.87581 12.1508 8.85649 12.1348V12.1344ZM8.41373 13.282C8.41373 13.282 8.37533 13.2859 8.37533 13.3053C8.37533 13.315 8.38493 13.315 8.39863 13.3092C8.40652 13.3088 8.41433 13.3074 8.42193 13.3053C8.42577 13.3092 8.42577 13.3286 8.45495 13.3286C8.47891 13.3253 8.50201 13.3174 8.52292 13.3053C8.54621 13.2957 8.56567 13.2858 8.56567 13.2669C8.55594 13.2338 8.53649 13.2182 8.50743 13.2182C8.49254 13.2173 8.47769 13.2206 8.46468 13.2279C8.46468 13.2279 8.45495 13.2085 8.42193 13.2279C8.3889 13.2474 8.39274 13.2474 8.40247 13.2571C8.41988 13.2726 8.41412 13.2827 8.41412 13.2827L8.41373 13.282ZM8.19434 13.484C8.19434 13.4742 8.24285 13.4548 8.25642 13.4607C8.26999 13.4645 8.30877 13.5382 8.30877 13.546C8.30877 13.5558 8.26026 13.5791 8.24081 13.5791C8.22135 13.5791 8.18845 13.546 8.18845 13.5407C8.18845 13.5368 8.21175 13.5311 8.21175 13.5271C8.21751 13.5175 8.19434 13.4941 8.19434 13.4843V13.484ZM8.04074 13.2004C8.05047 13.1966 8.05047 13.1868 8.06404 13.1771C8.06829 13.1743 8.07312 13.1725 8.07818 13.1718C8.08324 13.1711 8.08839 13.1716 8.09322 13.1733C8.09665 13.1672 8.10138 13.1619 8.1071 13.1578C8.11281 13.1538 8.11935 13.1511 8.12625 13.1499C8.14954 13.146 8.169 13.1499 8.16465 13.1596C8.16465 13.1888 8.1841 13.2081 8.1841 13.2314C8.1841 13.2547 8.17053 13.2839 8.12202 13.3033C8.07351 13.3169 8.00746 13.3169 7.99773 13.3131C7.98801 13.3092 7.97828 13.2703 7.98801 13.2509C7.99773 13.2314 8.02487 13.2101 8.04049 13.2004H8.04074Z" fill="#82764F"/>
<path fill-rule="evenodd" clip-rule="evenodd" d="M8.10239 13.2136C8.10239 13.2136 8.06934 13.2331 8.06934 13.2428C8.06641 13.2522 8.06511 13.262 8.0655 13.2718C8.0655 13.2776 8.10828 13.268 8.11404 13.2621C8.11596 13.2583 8.10239 13.2237 8.10239 13.2136Z" fill="#6E6342"/>
<path fill-rule="evenodd" clip-rule="evenodd" d="M7.81373 13.1222C7.83305 13.1262 7.86607 13.1222 7.89129 13.1319C7.91074 13.1417 7.92431 13.1611 7.90485 13.1844C7.8854 13.2077 7.86646 13.2426 7.82333 13.2367C7.77482 13.2329 7.72823 13.2077 7.72823 13.1882C7.72742 13.1759 7.72905 13.1636 7.73305 13.1519C7.73705 13.1403 7.74333 13.1295 7.75152 13.1203C7.77098 13.1048 7.78058 13.1145 7.8136 13.1222H7.81373Z" fill="#585136"/>
<path fill-rule="evenodd" clip-rule="evenodd" d="M7.79011 13.1417C7.79011 13.1417 7.72804 13.1902 7.71242 13.2137C7.69297 13.237 7.59788 13.3573 7.56883 13.3825C7.57848 13.3655 7.58947 13.3492 7.60172 13.334C7.56332 13.3585 7.53454 13.3955 7.52019 13.4388C7.4969 13.5107 7.65035 13.5495 7.7512 13.5787C7.85205 13.6079 7.89108 13.6171 7.89108 13.6171C7.85395 13.5613 7.82208 13.5022 7.79587 13.4405C7.75747 13.3492 7.73763 13.3395 7.76285 13.2967C7.7823 13.254 7.81148 13.2249 7.81148 13.1919C7.79983 13.1612 7.79011 13.1417 7.79011 13.1417Z" fill="#574F35"/>
<path fill-rule="evenodd" clip-rule="evenodd" d="M5.57667 13.2953C5.5908 13.2979 5.60529 13.2979 5.61942 13.2953C5.64848 13.2913 5.95146 13.1801 6.268 13.2C6.50497 13.2143 6.73984 13.253 6.96893 13.3152C7.36701 13.4201 7.86211 13.6278 8.1825 13.7464C8.26787 13.7793 8.35146 13.8376 8.4129 13.8608C8.65763 13.956 8.66723 13.956 8.81098 13.9813C8.97994 14.0046 9.15274 13.9482 9.33334 13.9094C9.55466 13.8608 9.93328 13.8375 10.2653 13.789C10.3727 13.7741 10.4786 13.7501 10.5819 13.7172C10.5819 13.7172 10.3178 13.9813 9.6847 14.0764C9.42881 14.1152 9.16876 14.1185 8.91197 14.0861C8.70998 14.0666 8.5761 14.0375 8.4751 14.0084C8.36054 13.9754 8.12554 13.8879 7.83626 13.8164C7.63427 13.7639 7.40899 13.7251 7.15082 13.6766C6.51389 13.56 5.82269 13.4261 5.57642 13.296L5.57667 13.2953Z" fill="#252211"/>
<path fill-rule="evenodd" clip-rule="evenodd" d="M4.86209 12.0952C4.70849 12.2253 4.54554 12.3496 4.38644 12.4699L3.90682 12.8384C3.74375 12.9587 3.58452 13.083 3.42132 13.2034C3.25812 13.3239 3.09518 13.4383 2.92212 13.549C3.07572 13.419 3.23866 13.2985 3.40174 13.1801C3.56481 13.0617 3.7339 12.9456 3.89121 12.8256L4.37082 12.4566C4.53582 12.3362 4.69505 12.212 4.86209 12.0955V12.0952ZM4.01358 13.4544C4.01358 13.4544 4.18638 13.3107 4.40193 13.1088C4.66983 12.8585 4.99802 12.538 5.10286 12.4799L4.01345 13.4546L4.01358 13.4544Z" fill="#CFB66C"/>
<path fill-rule="evenodd" clip-rule="evenodd" d="M4.01367 13.4543C4.09918 13.3689 4.19044 13.2854 4.2817 13.2038L4.42148 13.0835C4.46423 13.0451 4.51287 13.0019 4.5555 12.9592C4.64087 12.8738 4.72446 12.7824 4.80983 12.6951C4.85215 12.6512 4.89689 12.6097 4.94385 12.5708C4.96732 12.55 4.9934 12.5324 5.02142 12.5183C5.04484 12.5048 5.07006 12.4799 5.10295 12.4756C5.08362 12.5048 5.06033 12.5183 5.04087 12.5436C5.01758 12.563 4.99812 12.5863 4.97879 12.6056C4.93604 12.6484 4.88753 12.6872 4.84478 12.7261C4.75351 12.8038 4.65841 12.8797 4.56714 12.961C4.47588 13.0422 4.3905 13.1299 4.29911 13.2115C4.20017 13.295 4.1089 13.3766 4.01367 13.4547V13.4543ZM5.17489 12.6776C5.17489 12.6776 4.54193 13.2971 4.41175 13.398L5.17489 12.6776Z" fill="#CFB66C"/>
<path fill-rule="evenodd" clip-rule="evenodd" d="M5.17476 12.6776C5.11782 12.7435 5.05677 12.8058 4.99197 12.864L4.79997 13.0465C4.73789 13.1086 4.67952 13.1708 4.6136 13.2329C4.54564 13.2911 4.48356 13.3481 4.41162 13.4018L4.59799 13.2193C4.6602 13.1572 4.72816 13.1049 4.79421 13.0427L4.98058 12.8601C5.04458 12.7961 5.10679 12.7339 5.17476 12.6776ZM5.20381 13.0135C5.14547 13.1763 5.07672 13.3352 4.99799 13.4893C4.83492 13.8155 4.59031 14.2232 4.48343 14.4311L5.20381 13.0135Z" fill="#CFB66C"/>
<path fill-rule="evenodd" clip-rule="evenodd" d="M5.20382 13.0137C5.20382 13.0855 5.18436 13.1477 5.16106 13.2098C5.13835 13.2719 5.11246 13.3328 5.0835 13.3923C5.05431 13.4505 5.02129 13.5127 4.98826 13.5691C4.95524 13.6254 4.91646 13.6835 4.88727 13.7419L4.69118 14.0875C4.62321 14.2027 4.55716 14.3185 4.48535 14.4292C4.53386 14.3049 4.59991 14.1885 4.66212 14.0739C4.73009 13.9587 4.79217 13.8435 4.85412 13.7243C4.88437 13.6649 4.91158 13.6041 4.93566 13.5419C4.96471 13.4797 4.99377 13.4215 5.01719 13.3652C5.04625 13.3031 5.06954 13.2447 5.09873 13.1885C5.13162 13.1282 5.15889 13.07 5.20356 13.0137H5.20382Z" fill="#CFB66C"/>
<path fill-rule="evenodd" clip-rule="evenodd" d="M5.89534 14.6058C5.89534 14.6058 5.70334 14.8602 5.72254 15.1825C5.77489 15.0136 5.84094 14.7553 5.89534 14.6058ZM6.07787 14.8608C6.07787 14.8608 6.0099 15.552 5.95358 15.8919C6.0332 15.499 6.04869 15.532 6.07787 14.8608ZM7.34969 15.9327C7.34969 15.9327 7.06233 16.7775 7.05644 17.0122C7.11865 16.7708 7.23897 16.2776 7.34969 15.932V15.9327Z" fill="#DEC270"/>
<path fill-rule="evenodd" clip-rule="evenodd" d="M8.02148 14.5537C8.02148 14.5537 8.48753 15.3226 8.8371 15.9789C8.74251 15.6486 8.52491 15.0429 8.02148 14.5537Z" fill="#CBAF59"/>
<path fill-rule="evenodd" clip-rule="evenodd" d="M9.27393 15.6855C9.52981 16.1379 9.76056 16.6039 9.96513 17.0816C9.92634 16.7515 9.82138 16.1865 9.27393 15.6855Z" fill="#E3C677"/>
<path fill-rule="evenodd" clip-rule="evenodd" d="M12.9555 16.8192C13.0331 16.7707 13.1865 16.5065 13.3206 16.4405C13.4544 16.3726 13.5554 16.359 13.6759 16.225C13.7962 16.0851 13.8295 15.9997 14.0933 15.8891C14.4623 15.7298 14.2085 15.5239 14.2085 15.5239C14.2492 15.484 14.2926 15.4471 14.3385 15.4133C14.4338 15.3415 14.5444 15.2541 14.5348 15.1006C14.5212 14.8425 14.4727 14.4677 14.261 14.2502C14.4668 14.2075 14.8609 14.1784 15.1058 14.1163C15.3892 14.0444 15.5194 13.9434 15.5194 13.9434C15.5194 13.9434 15.3563 13.6658 15.6204 13.3862C15.8844 13.1067 16.1 12.9396 16.2592 12.6269C16.0767 12.6036 15.7984 12.5066 15.0883 12.7764C15.1266 12.7945 15.1636 12.8152 15.199 12.8385C15.199 12.8385 14.7621 12.9589 14.6029 13.093C14.3251 13.3278 14.2902 13.5201 13.9892 13.6638C13.6883 13.8076 13.3853 13.7687 13.135 13.8852C12.8846 14.0016 12.8476 14.1007 12.7562 14.1435C12.7757 14.1668 12.7524 14.2055 12.7892 14.2386C12.7659 14.2716 12.63 14.4929 12.4921 14.4929C12.5057 14.5454 12.6222 14.5842 12.6222 14.5842C12.6222 14.5842 12.5368 14.6464 12.3193 14.6619C12.4299 14.7771 12.5349 14.9026 12.8242 15.0852C12.8009 15.1337 12.7037 15.2056 12.7426 15.2969C12.7854 15.3881 12.8962 15.5124 13.3387 15.6134C13.1135 15.623 12.8495 15.6755 12.4939 15.627C12.1386 15.5842 12.0804 15.559 11.861 15.6134C11.8843 15.6367 11.9463 15.6367 12.0007 15.6988C11.9425 15.7026 11.5774 15.656 11.4532 15.8192C11.3231 15.9881 11.2668 16.2658 11.2765 16.4522C11.2085 16.4852 11.1425 16.5435 11.1755 16.6639C11.2085 16.7844 11.3813 16.8231 11.4921 16.8988C11.6027 16.9803 11.6124 17.0094 11.7173 16.99C11.8279 16.9668 11.991 16.8562 12.0862 16.8562C12.1815 16.8562 12.2493 16.928 12.2493 16.928C12.2493 16.928 12.5076 16.8037 12.5328 16.827C12.5561 16.8503 12.5367 16.9998 12.5619 17.0231C12.5875 17.0406 12.8784 16.8678 12.9561 16.8192H12.9555Z" fill="#ECD592"/>
<path fill-rule="evenodd" clip-rule="evenodd" d="M18.6001 9.04868C17.3866 5.91472 14.3865 5.33411 14.3865 5.33411H5.82728L5.8603 8.52631H7.56488V15.6545H5.82715V18.841H14.1496C16.1553 18.841 17.7631 16.8253 17.7631 16.8253C20.3379 13.1711 18.6 9.04868 18.6 9.04868H18.6001ZM14.1943 14.6777C14.1943 14.6777 13.5415 15.6196 12.8312 15.6196H11.4104L11.3767 8.53411H13.2001C13.2001 8.53411 14.0449 8.71076 14.6351 10.3826C14.6351 10.3826 15.4175 12.7762 14.1943 14.6777Z" fill="white" fill-opacity="0.8"/>
</g>
<defs>
<clipPath id="clip0_8_2958">
<rect width="24" height="24" fill="white"/>
</clipPath>
</defs>
</svg>
