<svg width="24" height="24" viewBox="0 0 24 24" fill="none" xmlns="http://www.w3.org/2000/svg">
<g clip-path="url(#clip0_8_2940)">
<circle cx="12" cy="12" r="12" fill="#EDEFF0"/>
<path d="M10.1738 11.2722L12 15.2542L14.7125 13.7124H14.7177V10.6271L10.1738 11.2722Z" fill="#2BBDF7"/>
<path d="M18.2208 8.31351L16.5281 7.68743L14.7175 7.54175V10.627V17.1549L17.4334 18.6984L19.5995 14.3523L18.226 10.1709L18.2208 8.31351Z" fill="#2891F9"/>
<path d="M18.0629 7.54175L17.4333 9.08526V18.6741L20.1492 17.1306V7.54175H18.0629Z" fill="#2BBDF7"/>
<path d="M17.4334 6L14.7175 7.54178L17.4334 9.0853L20.1493 7.54178L17.4334 6Z" fill="#2B6DEF"/>
<path d="M12 12.1688L9.28411 9.17198L3.85059 7.54175V17.1306L6.56648 18.6741L7.34517 13.3672L9.28411 13.7123L12 15.2541V12.1688Z" fill="#2891F9"/>
<path d="M6.56648 6L3.85059 7.54178L12 12.1689L13.2313 11.4717L14.7176 10.6271L6.56648 6Z" fill="#2B6DEF"/>
<path d="M6.56665 12.1688V18.6741L9.28428 17.1306V13.7123L6.56665 12.1688Z" fill="#2BBDF7"/>
</g>
<defs>
<clipPath id="clip0_8_2940">
<rect width="24" height="24" fill="white"/>
</clipPath>
</defs>
</svg>
