<svg width="42" height="42" viewBox="0 0 42 42" fill="none" xmlns="http://www.w3.org/2000/svg">
<circle cx="21" cy="21" r="20.75" fill="white" stroke="#CFD9E2" stroke-width="0.5"/>
<path d="M21 12.75C16.5574 12.75 12.956 16.1638 12.956 20.375H9C9 14.0928 14.3726 9 21 9C27.6274 9 33 14.0928 33 20.375H29.044C29.044 16.1638 25.4426 12.75 21 12.75Z" fill="black"/>
<path d="M25.0352 16.625C25.0879 16.625 25.1301 16.645 25.1618 16.685C25.204 16.715 25.2251 16.755 25.2251 16.805V18.59C25.2251 18.64 25.204 18.685 25.1618 18.725C25.1301 18.755 25.0879 18.77 25.0352 18.77H22.2659C22.2132 18.77 22.1868 18.795 22.1868 18.845V26.945C22.1868 26.995 22.1657 27.04 22.1235 27.08C22.0919 27.11 22.0497 27.125 21.9969 27.125H19.7499C19.6971 27.125 19.6497 27.11 19.6075 27.08C19.5758 27.04 19.56 26.995 19.56 26.945V18.845C19.56 18.795 19.5336 18.77 19.4809 18.77H16.8066C16.7538 18.77 16.7064 18.755 16.6642 18.725C16.6325 18.685 16.6167 18.64 16.6167 18.59V16.805C16.6167 16.755 16.6325 16.715 16.6642 16.685C16.7064 16.645 16.7538 16.625 16.8066 16.625H25.0352Z" fill="black"/>
<path d="M28.4579 25.0435C27.1708 27.5092 24.3927 29.25 21.1319 29.25C17.871 29.25 15.0929 27.5092 13.8058 25.0435L10.2601 26.7065C12.2143 30.4503 16.3665 33 21.1319 33C25.8972 33 30.0494 30.4503 32.0036 26.7065L28.4579 25.0435Z" fill="black"/>
</svg>
