<svg width="24" height="24" viewBox="0 0 24 24" fill="none" xmlns="http://www.w3.org/2000/svg">
<g clip-path="url(#clip0_2450_35756)">
<path d="M12 24C18.6274 24 24 18.6274 24 12C24 5.37258 18.6274 0 12 0C5.37258 0 0 5.37258 0 12C0 18.6274 5.37258 24 12 24Z" fill="#F3F4F5"/>
<path d="M10.463 15.5035C10.8468 16.9233 12.2235 18.0063 12.9188 17.9614C12.9431 17.9598 15.5558 17.4727 16.9861 15.0836C18.0988 13.2239 17.7203 11.4286 16.2064 11.3894C15.6619 11.4291 9.73228 12.7994 10.4634 15.5039L10.463 15.5035ZM16.0652 6.3857L16.0636 6.38436L16.0657 6.38302C15.1123 5.57201 13.949 5.04688 12.7101 4.86813C11.4712 4.68939 10.2069 4.8643 9.06309 5.37272C8.91841 5.4329 8.77746 5.5017 8.64102 5.57877C8.54778 5.62846 8.45453 5.67776 8.36398 5.73225L8.38604 5.73916C8.1183 5.92142 7.88155 6.14548 7.68482 6.40278C5.77933 8.92162 12.1707 10.7532 15.5884 10.7586C17.1599 11.8871 17.6012 7.58133 16.0652 6.3857Z" fill="#0E3CA5"/>
<path d="M9.449 6.43642C8.57089 7.75638 5.64608 8.68629 5.1651 8.54144L5.16184 8.5353C5.18103 8.49559 5.20155 8.45587 5.22189 8.41654C5.72066 7.45586 6.43431 6.62319 7.30734 5.98327C7.4873 5.85127 7.67365 5.72791 7.8664 5.61318C8.16274 5.44956 8.49469 5.36116 8.83315 5.35571C10.1356 5.38065 9.45552 6.42626 9.44862 6.43681L9.449 6.43642ZM8.7284 15.763C8.79152 16.1776 8.72686 17.8158 8.64206 17.9536C8.56897 17.958 8.41683 17.9674 7.97614 17.7201C6.56896 16.9172 5.48331 15.6517 4.90379 14.1387C4.32426 12.6258 4.28664 10.9588 4.79732 9.42128C4.82073 9.35093 4.84522 9.28104 4.8708 9.21158C5.37557 9.88307 5.95976 10.4905 6.45628 11.1685C6.9292 11.8141 7.57977 12.8666 7.71215 13.0916C8.53405 14.4877 8.66509 15.3492 8.72782 15.7632L8.7284 15.763ZM18.4448 11.6345C18.4459 12.5149 18.2805 13.3875 17.9575 14.2065C17.1325 15.0929 11.5719 12.9109 11.5174 12.8869C10.7567 12.5537 8.44177 11.5397 8.23284 9.94734C7.93336 7.65469 12.582 6.0577 14.6252 5.99727C14.8702 6.00015 15.6157 6.00878 16.0505 6.36179C16.8034 7.01838 17.4067 7.8288 17.8197 8.73837C18.2328 9.64795 18.4459 10.6355 18.4448 11.6345ZM14.6805 17.8452C14.0744 18.1282 13.4069 17.9219 13.5804 17.3318C13.9132 16.1981 16.82 15.0359 17.462 14.972C17.5412 14.9641 17.5748 15.018 17.5397 15.0796C16.8709 16.2556 15.8788 17.2151 14.681 17.8442" fill="#5493F7"/>
<path d="M7.53747 18.9558C7.52891 19.0838 7.57093 19.21 7.65449 19.3074C7.73805 19.4047 7.85648 19.4654 7.9843 19.4763C13.8742 19.5166 19.5598 19.2461 19.5598 18.3635C19.5598 15.6922 7.53747 18.9558 7.53747 18.9558Z" fill="url(#paint0_linear_2450_35756)"/>
<path d="M7.53725 18.9558C7.52856 19.0842 7.57081 19.2108 7.65485 19.3082C7.73889 19.4056 7.85793 19.466 7.98619 19.4763C13.8746 19.521 19.5525 19.336 19.5596 18.3635C19.5596 15.6922 7.53725 18.9558 7.53725 18.9558ZM7.98638 19.4423C7.97067 19.4423 7.95498 19.4414 7.93937 19.4396C7.84962 19.4271 7.76556 19.3883 7.69775 19.3282C7.62994 19.268 7.58138 19.1892 7.55816 19.1016C7.58335 19.1966 7.63863 19.2808 7.71573 19.3417C7.79282 19.4026 7.88758 19.4369 7.9858 19.4395C13.8701 19.4026 19.4673 17.5908 19.4673 18.3885C19.4673 19.2027 13.8705 19.4824 7.98638 19.4423Z" fill="url(#paint1_linear_2450_35756)"/>
<path d="M7.98662 11.3905C7.92758 11.3905 7.86911 11.4021 7.81456 11.4247C7.76001 11.4473 7.71044 11.4805 7.6687 11.5222C7.62696 11.564 7.59385 11.6136 7.57127 11.6681C7.54869 11.7227 7.53708 11.7812 7.53711 11.8402V18.9559C7.53696 19.0747 7.58388 19.1888 7.66763 19.2731C7.75137 19.3574 7.8651 19.4051 7.98394 19.4058C13.8735 19.3616 19.5665 17.4122 19.5594 18.364V10.3489C19.5665 9.39734 13.8754 11.3466 7.98662 11.3905Z" fill="url(#paint2_linear_2450_35756)"/>
<path d="M8.8549 16.3017C9.06459 16.2935 9.27007 16.2847 9.4719 16.2733C9.67373 16.262 9.87134 16.2492 10.0657 16.235C10.26 16.2208 10.4505 16.2043 10.6386 16.1872C10.8266 16.1701 11.0119 16.1527 11.1949 16.1344C11.378 16.1162 11.5585 16.0972 11.7369 16.0769C12.0885 16.0369 12.4398 15.9936 12.7906 15.947C12.9642 15.9238 13.1359 15.9002 13.3086 15.8751C13.4813 15.8499 13.651 15.8231 13.8231 15.7966C13.9952 15.7701 14.1685 15.7434 14.3411 15.716C14.5138 15.6886 14.6882 15.6608 14.8626 15.6316C15.037 15.6024 15.2125 15.5715 15.3904 15.541C15.5682 15.5105 15.7484 15.4798 15.9305 15.4482C16.1125 15.4165 16.2969 15.3849 16.4838 15.3523C16.6706 15.3196 16.86 15.2857 17.053 15.2533C17.246 15.2208 17.4425 15.189 17.6426 15.1585C17.8427 15.128 18.0263 15.1009 18.2757 15.0695C18.5476 15.0308 18.8223 15.0162 19.0968 15.0257C19.3548 15.0432 19.5592 15.1088 19.5592 15.2888V14.6718C19.5592 14.4941 19.3633 14.4304 19.1229 14.4106C18.8666 14.3976 18.6097 14.4084 18.3555 14.4429C18.1159 14.4703 17.9432 14.4966 17.7628 14.5233C17.5825 14.5499 17.4066 14.5777 17.2335 14.6061C17.0605 14.6345 16.8901 14.6637 16.7209 14.693C16.5517 14.7224 16.3832 14.7525 16.2136 14.7823C16.044 14.812 15.8731 14.8415 15.6995 14.8713L15.1686 14.9626C14.9879 14.9937 14.8041 15.025 14.6122 15.0562C14.4204 15.0875 14.2201 15.1186 14.0123 15.1506C13.8045 15.1827 13.5889 15.2168 13.3636 15.2502V14.6336C13.5889 14.6004 13.8049 14.566 14.0123 14.534C14.2197 14.502 14.42 14.4705 14.6122 14.4396C14.8045 14.4087 14.9886 14.3771 15.1686 14.3458C15.3486 14.3145 15.526 14.2844 15.6997 14.2547L16.2136 14.1656L16.7209 14.0764C16.8901 14.0467 17.0603 14.0189 17.2335 13.9895C17.4068 13.9602 17.5823 13.9335 17.7628 13.9066C17.9434 13.8798 18.1159 13.8535 18.3555 13.8263C18.6098 13.792 18.8666 13.7811 19.1229 13.7938C19.3635 13.813 19.5594 13.8775 19.5594 14.0549V13.4391C19.5594 13.2618 19.3635 13.1977 19.1231 13.1778C18.8668 13.1651 18.61 13.176 18.3557 13.2102C18.1161 13.2378 17.9436 13.2637 17.763 13.2906C17.5825 13.3175 17.4068 13.3451 17.2337 13.3735C17.0607 13.4019 16.8903 13.431 16.7211 13.4604C16.5519 13.4897 16.3834 13.5202 16.2138 13.5498L15.6997 13.6388C15.526 13.6687 15.3497 13.6987 15.1688 13.7299C14.9879 13.7612 14.8043 13.7925 14.6124 13.8234C14.4206 13.8543 14.2203 13.8859 14.0125 13.918C13.8047 13.95 13.5891 13.9841 13.364 14.0173V13.4009C13.5889 13.3675 13.8053 13.3338 14.0127 13.3013C14.2201 13.2689 14.4204 13.2378 14.6126 13.2069C14.8049 13.1761 14.9886 13.1446 15.169 13.1133L15.7 13.0222C15.8727 12.9923 16.0444 12.9629 16.214 12.9332L16.7213 12.844C17.0679 12.783 17.4152 12.7264 17.7632 12.6742C17.9438 12.6477 18.1162 12.621 18.3559 12.5936C18.6102 12.5595 18.867 12.5487 19.1233 12.5614C19.3637 12.5805 19.5596 12.6452 19.5596 12.8227V12.2055C19.5596 12.028 19.3637 11.9645 19.1233 11.9446C18.867 11.9317 18.6101 11.9425 18.3559 11.9768C18.1162 12.0042 17.9438 12.0305 17.7632 12.0572C17.5827 12.0838 17.407 12.1118 17.2339 12.1401C17.0609 12.1683 16.8905 12.1976 16.7213 12.2268L16.214 12.3164L15.6998 12.4052C15.5262 12.4351 15.3499 12.4649 15.169 12.4963C14.9881 12.5278 14.8045 12.5589 14.6126 12.5898C14.4208 12.6206 14.2203 12.6523 14.0123 12.6845C13.8043 12.7168 13.5887 12.7507 13.3638 12.7841V12.1675C13.5887 12.1341 13.804 12.1 14.0121 12.0677C14.2203 12.0355 14.4204 12.0044 14.6126 11.9731C14.8049 11.9419 14.9881 11.9108 15.169 11.8797L15.7 11.7886C15.8727 11.7586 16.0444 11.7295 16.214 11.6996C16.3836 11.6696 16.5519 11.6399 16.7213 11.6103C16.8907 11.5808 17.0607 11.5514 17.2339 11.5232C17.4072 11.495 17.5827 11.4672 17.763 11.4406C17.9434 11.4139 18.1162 11.3876 18.3559 11.3602C18.6101 11.3259 18.867 11.315 19.1233 11.3277C19.3639 11.3469 19.5597 11.4116 19.5597 11.5889V10.9724C19.5597 10.795 19.3639 10.7311 19.1235 10.7111C18.8672 10.6985 18.6103 10.7094 18.3561 10.7436C18.1164 10.771 17.944 10.7971 17.7634 10.8239C17.5829 10.8508 17.4072 10.8784 17.2341 10.9068C17.061 10.9352 16.8907 10.9644 16.7215 10.9937C16.5523 11.0231 16.3838 11.0536 16.2142 11.0831C16.0446 11.1127 15.8737 11.1422 15.7002 11.1718L15.1692 11.2633C14.7842 11.3298 14.3986 11.3924 14.0123 11.4511C13.8041 11.4833 13.5887 11.5173 13.3638 11.5509V10.9256C11.5842 11.2042 9.78743 11.3595 7.98638 11.3905C7.92733 11.3905 7.86886 11.4021 7.81431 11.4247C7.75976 11.4473 7.7102 11.4804 7.66846 11.5222C7.62671 11.564 7.59361 11.6135 7.57103 11.6681C7.54845 11.7227 7.53684 11.7811 7.53687 11.8402V16.3296C7.76709 16.3296 7.99117 16.3267 8.21065 16.3219C8.43014 16.3171 8.64501 16.3098 8.8549 16.3017Z" fill="url(#paint3_linear_2450_35756)"/>
<path d="M8.85408 17.535C9.06416 17.5269 9.26944 17.5177 9.47127 17.5066C9.6731 17.4954 9.8709 17.4822 10.066 17.4682C10.2611 17.4542 10.4507 17.4379 10.6387 17.4206C10.8267 17.4033 11.012 17.3863 11.1951 17.3677C11.3781 17.349 11.5596 17.3304 11.7371 17.3101C12.0885 17.2699 12.4396 17.2267 12.7903 17.1804C12.9638 17.1572 13.1357 17.1332 13.3083 17.1083C13.481 17.0833 13.6512 17.0563 13.8231 17.0296C13.995 17.0029 14.1684 16.9767 14.3411 16.9494C14.5138 16.9222 14.6883 16.8938 14.8629 16.8648C15.0375 16.8358 15.2131 16.8049 15.3909 16.7743L15.9308 16.6814C16.1129 16.6499 16.2974 16.6183 16.4841 16.5855C16.6708 16.5527 16.8605 16.5191 17.0535 16.4865C17.2465 16.4539 17.443 16.4222 17.6431 16.3917C17.8432 16.3612 18.0256 16.3341 18.2762 16.3027C18.5481 16.2638 18.8229 16.2491 19.0973 16.2587C19.3554 16.2764 19.5597 16.3422 19.5597 16.522V15.9048C19.5597 15.725 19.3554 15.659 19.0975 15.6415C18.823 15.6319 18.5481 15.6465 18.2762 15.6853C18.0254 15.716 17.843 15.7442 17.6431 15.7745C17.4432 15.8048 17.2465 15.8365 17.0535 15.8691C16.8605 15.9017 16.6712 15.9349 16.4843 15.9681C16.2974 16.0013 16.113 16.0329 15.9308 16.064C15.7485 16.0951 15.5688 16.126 15.3909 16.1569C15.2131 16.1878 15.0375 16.2183 14.8631 16.2474C14.6887 16.2766 14.5145 16.305 14.3413 16.3318L13.8233 16.4126C13.6506 16.4395 13.4802 16.4659 13.3085 16.4909C13.1368 16.5158 12.9643 16.5402 12.7905 16.563C12.6167 16.5859 12.4425 16.6083 12.2672 16.63C12.0918 16.6517 11.9157 16.673 11.7373 16.6927C11.5588 16.7125 11.3783 16.7311 11.1953 16.7503C11.0122 16.7695 10.8269 16.786 10.6389 16.803C10.4509 16.8201 10.2602 16.8364 10.066 16.8508C9.87186 16.8652 9.67368 16.8782 9.47127 16.8892C9.26887 16.9001 9.06397 16.9095 8.85408 16.9176C8.64419 16.9256 8.4297 16.9323 8.21003 16.9368C7.99035 16.9412 7.76646 16.9448 7.53662 16.9448V17.5612C7.97589 17.5599 8.41511 17.5511 8.85408 17.535Z" fill="url(#paint4_linear_2450_35756)"/>
<path d="M19.0974 16.8744C18.8229 16.8649 18.5482 16.8795 18.2763 16.9182C18.0255 16.949 17.8431 16.9769 17.6432 17.0074C17.4433 17.0379 17.2468 17.0695 17.0538 17.102C16.8608 17.1344 16.6701 17.168 16.4842 17.2009C16.2983 17.2339 16.1129 17.266 15.9309 17.2969L15.3908 17.3897C15.213 17.4202 15.0374 17.4513 14.8628 17.4803C14.6882 17.5093 14.5142 17.5378 14.341 17.5647C14.1677 17.5916 13.9956 17.6188 13.823 17.6451C13.6503 17.6714 13.4799 17.6982 13.308 17.7236C13.1361 17.7489 12.9627 17.7731 12.79 17.7959C12.4393 17.8421 12.0882 17.8853 11.7368 17.9256C11.5583 17.9455 11.3778 17.9639 11.1948 17.9831C11.0117 18.0023 10.8266 18.019 10.6384 18.0361C10.4502 18.0532 10.2597 18.0693 10.0655 18.0837C9.87137 18.0981 9.67319 18.1109 9.47078 18.122C8.82649 18.1573 8.18139 18.1759 7.53613 18.1777V18.7954C7.76636 18.7954 7.99083 18.7929 8.20954 18.7878C8.42825 18.7827 8.64294 18.7763 8.85359 18.7686C9.06367 18.7605 9.26895 18.7513 9.47078 18.7402C9.67261 18.7291 9.87041 18.7158 10.0655 18.7018C10.2606 18.6878 10.4504 18.6711 10.6384 18.6542C10.8264 18.6374 11.0116 18.6199 11.1948 18.6015C11.378 18.5831 11.5593 18.5643 11.7368 18.5439C11.9142 18.5236 12.0915 18.5029 12.2669 18.481C12.4422 18.4591 12.6164 18.4374 12.7898 18.4142C12.9633 18.391 13.1352 18.3672 13.3079 18.3421C13.4805 18.317 13.6507 18.2899 13.8228 18.2636C13.9949 18.2373 14.1681 18.2103 14.3408 18.183C14.5135 18.1558 14.6879 18.1278 14.8626 18.0984C15.0374 18.0691 15.2132 18.0386 15.391 18.0079L15.9309 17.9152L16.484 17.8193C16.6709 17.7865 16.8606 17.7527 17.0538 17.7203C17.247 17.6879 17.4431 17.656 17.6432 17.6255C17.8433 17.595 18.0269 17.568 18.2763 17.5367C18.5482 17.4981 18.823 17.4835 19.0974 17.4929C19.3555 17.51 19.5598 17.5758 19.5598 17.7558V17.1374C19.5598 16.9575 19.3555 16.8923 19.0974 16.8744Z" fill="url(#paint5_linear_2450_35756)"/>
<path d="M8.81573 15.6871C9.01142 15.6798 9.19943 15.6715 9.38419 15.6617C9.56894 15.652 9.74871 15.641 9.92521 15.6285C10.1017 15.6161 10.2775 15.6023 10.452 15.5873C10.8082 15.5563 11.164 15.522 11.5195 15.4843C11.7037 15.4647 11.8917 15.4434 12.087 15.4196C12.2823 15.3958 12.4857 15.3707 12.6979 15.3429C12.9101 15.3151 13.1319 15.2853 13.3636 15.2504V10.926C11.5843 11.2046 9.78784 11.3598 7.98711 11.3907C7.92806 11.3907 7.8696 11.4023 7.81505 11.4249C7.7605 11.4475 7.71093 11.4807 7.66919 11.5224C7.62745 11.5642 7.59434 11.6138 7.57176 11.6683C7.54918 11.7229 7.53757 11.7814 7.5376 11.8404V15.713C7.7707 15.713 7.99229 15.7103 8.20467 15.7055C8.41705 15.7007 8.61984 15.6942 8.81573 15.6871Z" fill="url(#paint6_linear_2450_35756)"/>
<path d="M8.92433 11.5725C8.90227 11.6414 8.89153 11.6759 8.86966 11.7452L8.69238 11.7517L8.8357 11.8522L8.78083 12.0249C8.83838 11.9806 8.86697 11.9589 8.92433 11.9144C8.98189 11.9545 9.0099 11.9741 9.06765 12.0138C9.04539 11.9466 9.03465 11.913 9.01278 11.8457L9.15628 11.7339C9.0853 11.7373 9.04961 11.7383 8.97882 11.7415L8.92433 11.5725Z" fill="url(#paint7_linear_2450_35756)"/>
<path d="M9.43692 13.6997L9.38225 13.8733L9.20459 13.8822L9.3481 13.9806C9.32623 14.0498 9.31529 14.0846 9.29323 14.1532C9.35078 14.1085 9.37956 14.0859 9.43692 14.0404C9.49448 14.0788 9.52326 14.098 9.58081 14.1375L9.52575 13.9702L9.66964 13.8561C9.59847 13.8607 9.56297 13.8628 9.49199 13.8666L9.43692 13.6997Z" fill="url(#paint8_linear_2450_35756)"/>
<path d="M9.49199 14.7278L9.43692 14.5603L9.38225 14.7341L9.20459 14.7428C9.26215 14.7823 9.29073 14.8022 9.3481 14.8412C9.32623 14.9106 9.31529 14.9452 9.29323 15.0138C9.35078 14.9688 9.37956 14.9461 9.43692 14.9007C9.49448 14.939 9.52326 14.9594 9.58081 14.9981L9.52575 14.8308L9.66964 14.7167C9.59847 14.7218 9.56297 14.7247 9.49199 14.7278Z" fill="url(#paint9_linear_2450_35756)"/>
<path d="M8.92433 13.2933C8.90227 13.3626 8.89133 13.3967 8.86966 13.466C8.79867 13.4689 8.76318 13.4704 8.69238 13.4725C8.74994 13.5126 8.77814 13.533 8.83551 13.5727L8.78102 13.7453C8.83858 13.7012 8.86697 13.6788 8.92433 13.6343C8.98189 13.6742 9.01009 13.6941 9.06784 13.734C9.04558 13.6667 9.03465 13.6331 9.01278 13.5656L9.15648 13.4539C9.08549 13.4572 9.04981 13.4589 8.97901 13.4616L8.92433 13.2933Z" fill="url(#paint10_linear_2450_35756)"/>
<path d="M8.92409 14.1538L8.8696 14.3265C8.79862 14.3288 8.76293 14.3305 8.69214 14.333L8.83545 14.4331L8.78077 14.6058L8.92409 14.4943L9.06779 14.5939C9.04553 14.5266 9.0346 14.4932 9.01273 14.4257C9.07028 14.3813 9.09887 14.3585 9.15642 14.3138L8.97896 14.3215L8.92409 14.1538Z" fill="url(#paint11_linear_2450_35756)"/>
<path d="M8.92453 12.4329L8.86966 12.6055L8.69238 12.6121L8.8357 12.7124L8.78102 12.8851C8.83858 12.8409 8.86716 12.8187 8.92453 12.7742C8.98208 12.8141 9.01009 12.834 9.06784 12.8737C9.04558 12.8066 9.03465 12.7728 9.01278 12.7055L9.15648 12.5936C9.08549 12.5969 9.05 12.5986 8.97901 12.6015C8.95733 12.5338 8.9462 12.5004 8.92453 12.4329Z" fill="url(#paint12_linear_2450_35756)"/>
<path d="M10.462 14.4874L10.4073 14.6624C10.3362 14.6685 10.3005 14.6712 10.2295 14.6772C10.287 14.7155 10.3158 14.7347 10.3732 14.771L10.3185 14.9461L10.462 14.8287L10.6055 14.9214C10.5871 14.8662 10.5689 14.8109 10.5507 14.7556L10.6942 14.6371C10.623 14.6438 10.5875 14.6467 10.5167 14.653C10.4948 14.5866 10.4847 14.5538 10.462 14.4874Z" fill="url(#paint13_linear_2450_35756)"/>
<path d="M9.43692 12.8392L9.38225 13.0129C9.31107 13.0167 9.27558 13.0182 9.20459 13.0217L9.3481 13.1199L9.29323 13.2935L9.43692 13.1805C9.49448 13.2189 9.52326 13.2381 9.58081 13.2776C9.55894 13.2109 9.54762 13.1773 9.52575 13.1101L9.66964 12.9964C9.59847 13.0006 9.56297 13.0031 9.49199 13.0067L9.43692 12.8392Z" fill="url(#paint14_linear_2450_35756)"/>
<path d="M9.95011 14.0978L9.89505 14.2724L9.71777 14.2833L9.86166 14.3792L9.80679 14.5532L9.95049 14.4381L10.0942 14.5329L10.0393 14.3664C10.0969 14.3201 10.1255 14.2967 10.1828 14.2501L10.0054 14.2635C9.98654 14.2084 9.96812 14.1532 9.95011 14.0978Z" fill="url(#paint15_linear_2450_35756)"/>
<path d="M10.0056 15.1248L9.95074 14.9583L9.89567 15.1326C9.82488 15.1376 9.7892 15.1397 9.71802 15.1444L9.86191 15.2403L9.80704 15.4149C9.86459 15.369 9.89318 15.3454 9.95074 15.2998C10.0083 15.3381 10.0369 15.3573 10.0944 15.3947L10.0396 15.2282C10.0971 15.1818 10.1257 15.1587 10.1831 15.1119L10.0056 15.1248Z" fill="url(#paint16_linear_2450_35756)"/>
<path d="M9.43692 11.9788L9.38225 12.1514C9.31107 12.1553 9.27558 12.1568 9.20459 12.1604L9.3481 12.2589C9.32623 12.3283 9.31529 12.363 9.29323 12.4315C9.35078 12.3864 9.37956 12.364 9.43692 12.3185C9.49448 12.3569 9.52326 12.3761 9.58081 12.4158L9.52575 12.2483C9.58331 12.203 9.61189 12.1798 9.66964 12.1342C9.59847 12.1386 9.56297 12.1409 9.49199 12.1447L9.43692 11.9788Z" fill="url(#paint17_linear_2450_35756)"/>
<path d="M9.94992 13.2375L9.89524 13.4119C9.82406 13.4165 9.78895 13.4192 9.71777 13.4235L9.86147 13.5194L9.80641 13.6938L9.9503 13.5787L10.094 13.6734L10.0391 13.5067L10.1826 13.3916L10.0052 13.405L9.94992 13.2375Z" fill="url(#paint18_linear_2450_35756)"/>
<path d="M8.97896 15.183L8.92409 15.0145L8.86941 15.1872L8.69214 15.1939C8.74969 15.2336 8.77809 15.2542 8.83545 15.2941L8.78077 15.4667L8.92409 15.3556L9.06779 15.4554L9.01273 15.2872L9.15642 15.1753L8.97896 15.183Z" fill="url(#paint19_linear_2450_35756)"/>
<path d="M7.89844 13.3213L7.84338 13.4926C7.7722 13.4926 7.73651 13.4926 7.66553 13.4938C7.72308 13.5356 7.75186 13.5567 7.80942 13.5981L7.75436 13.7695L7.89825 13.6622C7.9558 13.7038 7.98458 13.7242 8.04214 13.7656L7.98746 13.596L8.13116 13.488C8.05998 13.4892 8.02449 13.4903 7.95331 13.4911L7.89844 13.3213Z" fill="url(#paint20_linear_2450_35756)"/>
<path d="M7.89844 12.4606L7.84338 12.6317C7.7722 12.6317 7.73651 12.6327 7.66553 12.6329L7.80942 12.7372L7.75455 12.9085L7.89844 12.8017L8.04214 12.9047L7.98746 12.7349C8.04501 12.6919 8.0736 12.6707 8.13116 12.6271C8.06017 12.6284 8.02449 12.629 7.95331 12.63L7.89844 12.4606Z" fill="url(#paint21_linear_2450_35756)"/>
<path d="M7.95233 15.2123L7.89727 15.0425L7.84221 15.2134C7.77103 15.2144 7.73554 15.2146 7.66455 15.215L7.80844 15.3191L7.75357 15.4907L7.89727 15.3836L8.04116 15.487C8.02278 15.4303 8.00449 15.3736 7.98629 15.3168L8.12999 15.209C8.05958 15.2107 8.02428 15.2109 7.95233 15.2123Z" fill="url(#paint22_linear_2450_35756)"/>
<path d="M9.80636 12.8335L9.94986 12.7184C10.0074 12.7567 10.0364 12.7759 10.0938 12.8133L10.0391 12.6466L10.1826 12.5302C10.1114 12.5359 10.0761 12.5386 10.0051 12.5438L9.95006 12.3774L9.89519 12.5515C9.82439 12.5564 9.78871 12.5586 9.71753 12.5633L9.86142 12.6593L9.80636 12.8335Z" fill="url(#paint23_linear_2450_35756)"/>
<path d="M9.80636 11.9725C9.86391 11.9267 9.89269 11.9037 9.95006 11.8574C10.0076 11.8958 10.0364 11.915 10.0938 11.9522L10.0391 11.7857C10.0966 11.7394 10.1252 11.716 10.1826 11.6694C10.1114 11.6752 10.0761 11.6777 10.0051 11.6828L9.95006 11.5161L9.89519 11.6905C9.82439 11.6957 9.78871 11.698 9.71753 11.7024L9.86142 11.7983L9.80636 11.9725Z" fill="url(#paint24_linear_2450_35756)"/>
<path d="M7.89844 14.1819L7.84318 14.3532H7.66553L7.80942 14.4582L7.75436 14.6291L7.89825 14.522L8.04214 14.6253L7.98746 14.4555L8.13096 14.3476C8.05998 14.349 8.02449 14.3496 7.95331 14.3505L7.89844 14.1819Z" fill="url(#paint25_linear_2450_35756)"/>
<path d="M8.41143 12.0193L8.35656 12.191C8.28557 12.1927 8.25008 12.1939 8.17871 12.1954L8.3226 12.2977L8.26773 12.4703L8.41143 12.361L8.55532 12.4623L8.50026 12.2933L8.64396 12.1831L8.46668 12.1887C8.44443 12.1212 8.43349 12.0874 8.41143 12.0193Z" fill="url(#paint26_linear_2450_35756)"/>
<path d="M8.41143 12.8804L8.35656 13.053L8.17871 13.0573C8.23627 13.0983 8.26505 13.1185 8.3226 13.1591C8.30054 13.2278 8.2896 13.2625 8.26773 13.3318C8.32529 13.2881 8.35387 13.2666 8.41124 13.2226C8.46879 13.2633 8.49776 13.2833 8.55532 13.3236L8.50026 13.1547L8.64396 13.0448L8.4663 13.0504C8.44424 12.9817 8.43349 12.9481 8.41143 12.8804Z" fill="url(#paint27_linear_2450_35756)"/>
<path d="M8.46625 14.7705L8.41138 14.6014L8.35651 14.7741C8.28533 14.776 8.24964 14.7768 8.17847 14.7783L8.32255 14.8804L8.26749 15.0531L8.41119 14.9439L8.55527 15.0452L8.50021 14.8762L8.6439 14.7661L8.46625 14.7705Z" fill="url(#paint28_linear_2450_35756)"/>
<path d="M8.41124 13.741L8.35637 13.9136C8.28538 13.9154 8.2497 13.9165 8.17871 13.9177L8.32241 14.0199C8.30035 14.0886 8.28941 14.1233 8.26754 14.1926L8.41124 14.0832L8.55513 14.1845C8.53326 14.117 8.52232 14.0832 8.50007 14.0157C8.55762 13.972 8.58659 13.9495 8.64396 13.9054C8.57278 13.9077 8.53729 13.9092 8.4663 13.9113L8.41124 13.741Z" fill="url(#paint29_linear_2450_35756)"/>
<path d="M7.89844 11.6001L7.84357 11.7714C7.77239 11.7714 7.73651 11.7726 7.66553 11.773C7.72308 11.8148 7.75205 11.8359 7.80942 11.8771L7.75455 12.0481L7.89844 11.9416C7.95599 11.983 7.98477 12.0034 8.04233 12.0444L7.98765 11.8748L8.13154 11.7668C8.06036 11.7684 8.02449 11.7691 7.95331 11.7701L7.89844 11.6001Z" fill="url(#paint30_linear_2450_35756)"/>
<path d="M10.4618 13.6273L10.4071 13.8023C10.336 13.8084 10.3007 13.8111 10.2295 13.8169C10.287 13.8552 10.3156 13.8733 10.373 13.9105L10.3183 14.0858C10.3759 14.039 10.4045 14.0152 10.4618 13.9682L10.6053 14.0609L10.5505 13.8953L10.694 13.7768C10.6228 13.7835 10.5873 13.7864 10.5165 13.7927C10.4946 13.7269 10.4845 13.6937 10.4618 13.6273Z" fill="url(#paint31_linear_2450_35756)"/>
<path d="M12.5125 13.4075L12.4574 13.5849L12.2795 13.6074L12.4232 13.6949L12.3682 13.8723L12.5123 13.7488C12.5698 13.7833 12.5986 13.801 12.6561 13.8357L12.6011 13.6722L12.7452 13.5479L12.5673 13.5711L12.5125 13.4075Z" fill="url(#paint32_linear_2450_35756)"/>
<path d="M12.5125 12.5472C12.4904 12.6184 12.4793 12.6535 12.4574 12.7247C12.3862 12.7337 12.3505 12.7383 12.2795 12.7468C12.3371 12.7823 12.3659 12.7995 12.4234 12.8346L12.3686 13.0119C12.4261 12.9624 12.4549 12.938 12.5125 12.8884L12.6563 12.9753L12.6013 12.812L12.7454 12.6875C12.6744 12.6967 12.6385 12.7017 12.5675 12.7107L12.5125 12.5472Z" fill="url(#paint33_linear_2450_35756)"/>
<path d="M12.5671 14.4313L12.5123 14.2678L12.4572 14.4455C12.3862 14.4541 12.3505 14.4591 12.2795 14.4675L12.4232 14.5552L12.3682 14.7327L12.5121 14.6091C12.5696 14.6439 12.5986 14.6611 12.656 14.696L12.6011 14.5328L12.745 14.4083L12.5671 14.4313Z" fill="url(#paint34_linear_2450_35756)"/>
<path d="M12.0009 12.1797C11.9792 12.2505 11.9685 12.286 11.9464 12.357L11.7695 12.3773L11.9127 12.4661L11.8582 12.6432C11.9157 12.5945 11.9437 12.5699 12.0009 12.521L12.1442 12.6091L12.0894 12.4452L12.2332 12.3222L12.0556 12.3439C12.0366 12.2894 12.0184 12.2347 12.0009 12.1797Z" fill="url(#paint35_linear_2450_35756)"/>
<path d="M12.5126 11.6863L12.4574 11.8637C12.3862 11.8728 12.3507 11.8772 12.2795 11.8858L12.4236 11.9737L12.3686 12.1513C12.4261 12.102 12.4549 12.0767 12.5125 12.0274L12.6565 12.1147C12.6383 12.0601 12.6199 12.0055 12.6015 11.951C12.659 11.9017 12.688 11.8762 12.7456 11.8265L12.5675 11.8497L12.5126 11.6863Z" fill="url(#paint36_linear_2450_35756)"/>
<path d="M12.0009 11.3196C11.9792 11.3902 11.9685 11.4259 11.9464 11.4967L11.7695 11.517C11.8271 11.5523 11.8557 11.5703 11.9127 11.6058L11.8582 11.7827C11.9157 11.734 11.9437 11.7094 12.0009 11.6605L12.1444 11.7486L12.0895 11.5849C12.1471 11.5356 12.1755 11.511 12.2332 11.4619L12.0556 11.4836C12.0367 11.4292 12.0184 11.3745 12.0009 11.3196Z" fill="url(#paint37_linear_2450_35756)"/>
<path d="M13.0255 12.9094L12.9704 13.0877C12.8994 13.0972 12.864 13.1022 12.793 13.1114L12.9367 13.1976L12.8816 13.3756L13.0253 13.2505L13.1688 13.3359C13.1467 13.2709 13.136 13.2383 13.1141 13.173C13.1717 13.1228 13.2001 13.0978 13.2573 13.0472C13.1865 13.0575 13.1512 13.0621 13.0804 13.0723L13.0255 12.9094Z" fill="url(#paint38_linear_2450_35756)"/>
<path d="M13.0262 12.0488L12.9711 12.2267C12.9001 12.2367 12.8646 12.2413 12.7935 12.2509C12.851 12.2856 12.8796 12.3023 12.937 12.3366L12.8821 12.515L13.026 12.3896L13.1693 12.4753C13.1472 12.4101 13.1365 12.3775 13.1146 12.3121C13.1722 12.2618 13.2006 12.2368 13.2577 12.1864L13.0809 12.2115L13.0262 12.0488Z" fill="url(#paint39_linear_2450_35756)"/>
<path d="M13.0797 14.7933L13.0251 14.6304L12.97 14.8084C12.8992 14.8182 12.8635 14.823 12.7927 14.8324L12.9362 14.9185L12.8812 15.097C12.9387 15.0471 12.9677 15.0216 13.0251 14.9713L13.1684 15.0571L13.1135 14.894L13.2568 14.7681C13.186 14.7785 13.1515 14.7835 13.0797 14.7933Z" fill="url(#paint40_linear_2450_35756)"/>
<path d="M13.0264 11.1879L12.9713 11.3661C12.9003 11.3759 12.8646 11.3809 12.7935 11.3903L12.9375 11.4762L12.8823 11.6541L13.0264 11.5292C13.0839 11.5633 13.1123 11.5806 13.1697 11.6144C13.1478 11.5493 13.1367 11.5167 13.115 11.4515C13.1726 11.4012 13.2008 11.3763 13.2579 11.3256C13.1873 11.336 13.152 11.3412 13.0812 11.3509L13.0264 11.1879Z" fill="url(#paint41_linear_2450_35756)"/>
<path d="M13.0255 13.7698L12.9704 13.9478L12.793 13.9716L12.9365 14.0579L12.8816 14.2358L13.0253 14.1109L13.1686 14.1961L13.1139 14.0332C13.1715 13.9829 13.1999 13.958 13.2571 13.9073C13.1865 13.9179 13.151 13.9227 13.08 13.9325L13.0255 13.7698Z" fill="url(#paint42_linear_2450_35756)"/>
<path d="M12.0011 13.0405C11.9794 13.1113 11.9687 13.1468 11.9466 13.2176L11.7695 13.2381C11.8271 13.2736 11.8557 13.2919 11.9128 13.3272L11.8584 13.504L12.0011 13.3816L12.1446 13.4699L12.0897 13.3061C12.1473 13.2569 12.1757 13.2322 12.2334 13.1831C12.1623 13.1919 12.1264 13.1961 12.0558 13.2046L12.0011 13.0405Z" fill="url(#paint43_linear_2450_35756)"/>
<path d="M10.462 11.906L10.4073 12.081C10.3362 12.0871 10.3005 12.0902 10.2295 12.0957L10.3732 12.1898L10.3185 12.3649C10.3761 12.3181 10.4047 12.2941 10.462 12.2471C10.5196 12.2855 10.548 12.303 10.6055 12.34L10.5507 12.1744C10.6082 12.1272 10.6368 12.1028 10.6942 12.0557L10.5167 12.0718C10.4948 12.0052 10.4847 11.9724 10.462 11.906Z" fill="url(#paint44_linear_2450_35756)"/>
<path d="M10.9747 14.0104L10.9198 14.1863C10.8488 14.193 10.8131 14.1965 10.7419 14.2028L10.8858 14.2947L10.8308 14.4706L10.9747 14.3515C11.0322 14.3883 11.061 14.4064 11.1186 14.443L11.0635 14.278C11.121 14.2304 11.1496 14.2063 11.2072 14.1583L11.0297 14.1759C11.0077 14.1107 10.9965 14.0768 10.9747 14.0104Z" fill="url(#paint45_linear_2450_35756)"/>
<path d="M12.0011 13.9008L11.9466 14.0778C11.8758 14.0861 11.8405 14.0905 11.7695 14.0984C11.8271 14.1342 11.8555 14.1521 11.9128 14.1874L11.8582 14.3641C11.9157 14.3154 11.9439 14.291 12.0011 14.2421L12.1444 14.3301L12.0897 14.1665C12.1473 14.1172 12.1757 14.0924 12.2334 14.0433C12.1623 14.0521 12.1264 14.0562 12.0558 14.0648C12.0368 14.0104 12.0185 13.9557 12.0011 13.9008Z" fill="url(#paint46_linear_2450_35756)"/>
<path d="M10.9747 12.2893L10.9198 12.465L10.7419 12.4817L10.8858 12.5736L10.8308 12.7496C10.8883 12.7018 10.9173 12.6782 10.9747 12.6304C11.0322 12.6671 11.061 12.6851 11.1186 12.7219C11.0965 12.6557 11.0854 12.6227 11.0637 12.5566C11.1212 12.5088 11.1498 12.4852 11.2074 12.437L11.0297 12.4545L10.9747 12.2893Z" fill="url(#paint47_linear_2450_35756)"/>
<path d="M10.9747 14.8711L10.9198 15.0468C10.8488 15.0537 10.8131 15.057 10.7419 15.0635L10.8858 15.1554L10.8308 15.3315L10.9747 15.2122L11.1186 15.3039L11.0635 15.1385C11.121 15.091 11.1496 15.067 11.2072 15.019L11.0297 15.0363L10.9747 14.8711Z" fill="url(#paint48_linear_2450_35756)"/>
<path d="M10.4618 12.7677L10.4071 12.9429C10.336 12.9488 10.3007 12.9519 10.2295 12.9574C10.287 12.9958 10.3156 13.015 10.373 13.0513L10.3183 13.2264L10.4618 13.1088C10.5194 13.146 10.5478 13.1646 10.6053 13.2015L10.5505 13.0359L10.694 12.9173C10.6228 12.9241 10.5873 12.9269 10.5165 12.9335L10.4618 12.7677Z" fill="url(#paint49_linear_2450_35756)"/>
<path d="M10.9749 11.4287L10.9198 11.6046C10.8488 11.6115 10.8131 11.6146 10.7419 11.6211L10.8856 11.7132L10.8308 11.8888L10.9749 11.7698C11.0324 11.8061 11.0608 11.8249 11.1186 11.8613L11.0637 11.6962C11.1212 11.6486 11.1498 11.6244 11.2076 11.5764C11.1364 11.5835 11.1009 11.5874 11.0297 11.5941L10.9749 11.4287Z" fill="url(#paint50_linear_2450_35756)"/>
<path d="M10.9747 13.1498L10.9198 13.3255L10.7419 13.3432L10.8858 13.4353L10.831 13.6112L10.9747 13.4919L11.1186 13.5834L11.0637 13.4182L11.2074 13.2985C11.1364 13.3058 11.1009 13.3092 11.0297 13.3161C11.0079 13.2488 10.9967 13.2162 10.9747 13.1498Z" fill="url(#paint51_linear_2450_35756)"/>
<path d="M12.0546 14.9261C12.0327 14.8606 12.0219 14.8275 11.9999 14.7618L11.9454 14.9389C11.8746 14.9476 11.8393 14.9512 11.7683 14.9593L11.9114 15.0483L11.8569 15.2254C11.9145 15.1766 11.9427 15.1517 11.9999 15.1028C12.0574 15.1383 12.086 15.1561 12.1434 15.1912L12.0885 15.0274L12.2322 14.9042L12.0546 14.9261Z" fill="url(#paint52_linear_2450_35756)"/>
<path d="M11.5433 14.5537L11.4884 14.3889L11.4333 14.5656L11.2559 14.5848L11.3996 14.6755L11.3447 14.8519L11.4886 14.7312L11.6321 14.8214L11.577 14.6567C11.6346 14.6084 11.6634 14.5838 11.7207 14.5351C11.6497 14.5422 11.6142 14.5462 11.5433 14.5537Z" fill="url(#paint53_linear_2450_35756)"/>
<path d="M11.4884 11.8073L11.4335 11.9836C11.3625 11.9912 11.3268 11.9943 11.2559 12.0027L11.3996 12.0937L11.3447 12.27L11.4886 12.1493L11.6321 12.2393L11.577 12.0749L11.7207 11.9534L11.5433 11.9726L11.4884 11.8073Z" fill="url(#paint54_linear_2450_35756)"/>
<path d="M11.4884 13.5284L11.4335 13.7048L11.2559 13.7239L11.3997 13.8145L11.3449 13.9908L11.4886 13.8705L11.6323 13.9601L11.5772 13.7959L11.7209 13.6744C11.6499 13.6821 11.6142 13.6863 11.5434 13.6936L11.4884 13.5284Z" fill="url(#paint55_linear_2450_35756)"/>
<path d="M11.4886 12.6677C11.4667 12.7385 11.4556 12.7734 11.4335 12.8442C11.3627 12.8519 11.3268 12.8552 11.2559 12.8625L11.3997 12.953L11.3449 13.1293L11.4886 13.009L11.6323 13.0988L11.5772 12.9344C11.6348 12.8861 11.6635 12.8615 11.7209 12.813C11.6501 12.821 11.6144 12.8247 11.5434 12.8321L11.4886 12.6677Z" fill="url(#paint56_linear_2450_35756)"/>
</g>
<defs>
<linearGradient id="paint0_linear_2450_35756" x1="7.53747" y1="18.3963" x2="19.5598" y2="18.3963" gradientUnits="userSpaceOnUse">
<stop stop-color="#600000"/>
<stop offset="0.327" stop-color="#630000"/>
<stop offset="0.59" stop-color="#6D0000"/>
<stop offset="0.83" stop-color="#7E0000"/>
<stop offset="1" stop-color="#8F0000"/>
</linearGradient>
<linearGradient id="paint1_linear_2450_35756" x1="13.5484" y1="17.3126" x2="13.5484" y2="19.4824" gradientUnits="userSpaceOnUse">
<stop offset="0.35" stop-color="#BF1010"/>
<stop offset="0.645" stop-color="#BD1010"/>
<stop offset="0.752" stop-color="#B60F0F"/>
<stop offset="0.828" stop-color="#AB0D0D"/>
<stop offset="0.889" stop-color="#9A0A0A"/>
<stop offset="0.941" stop-color="#840606"/>
<stop offset="0.987" stop-color="#690202"/>
<stop offset="1" stop-color="#600000"/>
</linearGradient>
<linearGradient id="paint2_linear_2450_35756" x1="7.53711" y1="14.7464" x2="19.5594" y2="14.7464" gradientUnits="userSpaceOnUse">
<stop stop-color="#BF1010"/>
<stop offset="0.021" stop-color="#C11212"/>
<stop offset="0.244" stop-color="#D22323"/>
<stop offset="0.487" stop-color="#DC2D2D"/>
<stop offset="0.791" stop-color="#DF3030"/>
<stop offset="0.841" stop-color="#DC2E2E"/>
<stop offset="0.882" stop-color="#D22626"/>
<stop offset="0.919" stop-color="#C11919"/>
<stop offset="0.954" stop-color="#A90808"/>
<stop offset="0.966" stop-color="#9F0000"/>
<stop offset="1" stop-color="#DF3030"/>
</linearGradient>
<linearGradient id="paint3_linear_2450_35756" x1="7.53706" y1="13.5168" x2="19.5594" y2="13.5168" gradientUnits="userSpaceOnUse">
<stop stop-color="#DFDFDF"/>
<stop offset="0.021" stop-color="#E1E1E1"/>
<stop offset="0.244" stop-color="#F2F2F2"/>
<stop offset="0.487" stop-color="#FCFCFC"/>
<stop offset="0.791" stop-color="white"/>
<stop offset="0.841" stop-color="#FCFCFC"/>
<stop offset="0.882" stop-color="#F2F2F2"/>
<stop offset="0.919" stop-color="#E1E1E1"/>
<stop offset="0.954" stop-color="#C9C9C9"/>
<stop offset="0.966" stop-color="#BFBFBF"/>
<stop offset="1" stop-color="white"/>
</linearGradient>
<linearGradient id="paint4_linear_2450_35756" x1="7.5372" y1="16.5995" x2="19.5595" y2="16.5995" gradientUnits="userSpaceOnUse">
<stop stop-color="#DFDFDF"/>
<stop offset="0.021" stop-color="#E1E1E1"/>
<stop offset="0.244" stop-color="#F2F2F2"/>
<stop offset="0.487" stop-color="#FCFCFC"/>
<stop offset="0.791" stop-color="white"/>
<stop offset="0.841" stop-color="#FCFCFC"/>
<stop offset="0.882" stop-color="#F2F2F2"/>
<stop offset="0.919" stop-color="#E1E1E1"/>
<stop offset="0.954" stop-color="#C9C9C9"/>
<stop offset="0.966" stop-color="#BFBFBF"/>
<stop offset="1" stop-color="white"/>
</linearGradient>
<linearGradient id="paint5_linear_2450_35756" x1="7.53748" y1="17.8325" x2="19.5598" y2="17.8325" gradientUnits="userSpaceOnUse">
<stop stop-color="#DFDFDF"/>
<stop offset="0.021" stop-color="#E1E1E1"/>
<stop offset="0.244" stop-color="#F2F2F2"/>
<stop offset="0.487" stop-color="#FCFCFC"/>
<stop offset="0.791" stop-color="white"/>
<stop offset="0.841" stop-color="#FCFCFC"/>
<stop offset="0.882" stop-color="#F2F2F2"/>
<stop offset="0.919" stop-color="#E1E1E1"/>
<stop offset="0.954" stop-color="#C9C9C9"/>
<stop offset="0.966" stop-color="#BFBFBF"/>
<stop offset="1" stop-color="white"/>
</linearGradient>
<linearGradient id="paint6_linear_2450_35756" x1="7.53721" y1="13.3194" x2="19.5595" y2="13.3194" gradientUnits="userSpaceOnUse">
<stop stop-color="#00209F"/>
<stop offset="0.021" stop-color="#0222A1"/>
<stop offset="0.244" stop-color="#1333B2"/>
<stop offset="0.487" stop-color="#1D3DBC"/>
<stop offset="0.791" stop-color="#2040BF"/>
<stop offset="0.841" stop-color="#1E3DBC"/>
<stop offset="0.882" stop-color="#1933B2"/>
<stop offset="0.919" stop-color="#1122A1"/>
<stop offset="0.954" stop-color="#050A89"/>
<stop offset="0.966" stop-color="#00007F"/>
<stop offset="1" stop-color="#2040BF"/>
</linearGradient>
<linearGradient id="paint7_linear_2450_35756" x1="7.53743" y1="11.7983" x2="19.559" y2="11.7983" gradientUnits="userSpaceOnUse">
<stop stop-color="#DFDFDF"/>
<stop offset="0.021" stop-color="#E1E1E1"/>
<stop offset="0.244" stop-color="#F2F2F2"/>
<stop offset="0.487" stop-color="#FCFCFC"/>
<stop offset="0.791" stop-color="white"/>
<stop offset="0.841" stop-color="#FCFCFC"/>
<stop offset="0.882" stop-color="#F2F2F2"/>
<stop offset="0.919" stop-color="#E1E1E1"/>
<stop offset="0.954" stop-color="#C9C9C9"/>
<stop offset="0.966" stop-color="#BFBFBF"/>
<stop offset="1" stop-color="white"/>
</linearGradient>
<linearGradient id="paint8_linear_2450_35756" x1="7.53777" y1="13.9269" x2="19.5587" y2="13.9269" gradientUnits="userSpaceOnUse">
<stop stop-color="#DFDFDF"/>
<stop offset="0.021" stop-color="#E1E1E1"/>
<stop offset="0.244" stop-color="#F2F2F2"/>
<stop offset="0.487" stop-color="#FCFCFC"/>
<stop offset="0.791" stop-color="white"/>
<stop offset="0.841" stop-color="#FCFCFC"/>
<stop offset="0.882" stop-color="#F2F2F2"/>
<stop offset="0.919" stop-color="#E1E1E1"/>
<stop offset="0.954" stop-color="#C9C9C9"/>
<stop offset="0.966" stop-color="#BFBFBF"/>
<stop offset="1" stop-color="white"/>
</linearGradient>
<linearGradient id="paint9_linear_2450_35756" x1="7.53777" y1="14.7875" x2="19.5587" y2="14.7875" gradientUnits="userSpaceOnUse">
<stop stop-color="#DFDFDF"/>
<stop offset="0.021" stop-color="#E1E1E1"/>
<stop offset="0.244" stop-color="#F2F2F2"/>
<stop offset="0.487" stop-color="#FCFCFC"/>
<stop offset="0.791" stop-color="white"/>
<stop offset="0.841" stop-color="#FCFCFC"/>
<stop offset="0.882" stop-color="#F2F2F2"/>
<stop offset="0.919" stop-color="#E1E1E1"/>
<stop offset="0.954" stop-color="#C9C9C9"/>
<stop offset="0.966" stop-color="#BFBFBF"/>
<stop offset="1" stop-color="white"/>
</linearGradient>
<linearGradient id="paint10_linear_2450_35756" x1="7.53762" y1="13.5195" x2="19.5592" y2="13.5195" gradientUnits="userSpaceOnUse">
<stop stop-color="#DFDFDF"/>
<stop offset="0.021" stop-color="#E1E1E1"/>
<stop offset="0.244" stop-color="#F2F2F2"/>
<stop offset="0.487" stop-color="#FCFCFC"/>
<stop offset="0.791" stop-color="white"/>
<stop offset="0.841" stop-color="#FCFCFC"/>
<stop offset="0.882" stop-color="#F2F2F2"/>
<stop offset="0.919" stop-color="#E1E1E1"/>
<stop offset="0.954" stop-color="#C9C9C9"/>
<stop offset="0.966" stop-color="#BFBFBF"/>
<stop offset="1" stop-color="white"/>
</linearGradient>
<linearGradient id="paint11_linear_2450_35756" x1="7.53756" y1="14.3798" x2="19.5591" y2="14.3798" gradientUnits="userSpaceOnUse">
<stop stop-color="#DFDFDF"/>
<stop offset="0.021" stop-color="#E1E1E1"/>
<stop offset="0.244" stop-color="#F2F2F2"/>
<stop offset="0.487" stop-color="#FCFCFC"/>
<stop offset="0.791" stop-color="white"/>
<stop offset="0.841" stop-color="#FCFCFC"/>
<stop offset="0.882" stop-color="#F2F2F2"/>
<stop offset="0.919" stop-color="#E1E1E1"/>
<stop offset="0.954" stop-color="#C9C9C9"/>
<stop offset="0.966" stop-color="#BFBFBF"/>
<stop offset="1" stop-color="white"/>
</linearGradient>
<linearGradient id="paint12_linear_2450_35756" x1="7.53762" y1="12.6589" x2="19.5592" y2="12.6589" gradientUnits="userSpaceOnUse">
<stop stop-color="#DFDFDF"/>
<stop offset="0.021" stop-color="#E1E1E1"/>
<stop offset="0.244" stop-color="#F2F2F2"/>
<stop offset="0.487" stop-color="#FCFCFC"/>
<stop offset="0.791" stop-color="white"/>
<stop offset="0.841" stop-color="#FCFCFC"/>
<stop offset="0.882" stop-color="#F2F2F2"/>
<stop offset="0.919" stop-color="#E1E1E1"/>
<stop offset="0.954" stop-color="#C9C9C9"/>
<stop offset="0.966" stop-color="#BFBFBF"/>
<stop offset="1" stop-color="white"/>
</linearGradient>
<linearGradient id="paint13_linear_2450_35756" x1="7.53645" y1="14.7169" x2="19.5611" y2="14.7169" gradientUnits="userSpaceOnUse">
<stop stop-color="#DFDFDF"/>
<stop offset="0.021" stop-color="#E1E1E1"/>
<stop offset="0.244" stop-color="#F2F2F2"/>
<stop offset="0.487" stop-color="#FCFCFC"/>
<stop offset="0.791" stop-color="white"/>
<stop offset="0.841" stop-color="#FCFCFC"/>
<stop offset="0.882" stop-color="#F2F2F2"/>
<stop offset="0.919" stop-color="#E1E1E1"/>
<stop offset="0.954" stop-color="#C9C9C9"/>
<stop offset="0.966" stop-color="#BFBFBF"/>
<stop offset="1" stop-color="white"/>
</linearGradient>
<linearGradient id="paint14_linear_2450_35756" x1="7.53777" y1="13.0664" x2="19.5587" y2="13.0664" gradientUnits="userSpaceOnUse">
<stop stop-color="#DFDFDF"/>
<stop offset="0.021" stop-color="#E1E1E1"/>
<stop offset="0.244" stop-color="#F2F2F2"/>
<stop offset="0.487" stop-color="#FCFCFC"/>
<stop offset="0.791" stop-color="white"/>
<stop offset="0.841" stop-color="#FCFCFC"/>
<stop offset="0.882" stop-color="#F2F2F2"/>
<stop offset="0.919" stop-color="#E1E1E1"/>
<stop offset="0.954" stop-color="#C9C9C9"/>
<stop offset="0.966" stop-color="#BFBFBF"/>
<stop offset="1" stop-color="white"/>
</linearGradient>
<linearGradient id="paint15_linear_2450_35756" x1="7.53774" y1="14.3261" x2="19.5587" y2="14.3261" gradientUnits="userSpaceOnUse">
<stop stop-color="#DFDFDF"/>
<stop offset="0.021" stop-color="#E1E1E1"/>
<stop offset="0.244" stop-color="#F2F2F2"/>
<stop offset="0.487" stop-color="#FCFCFC"/>
<stop offset="0.791" stop-color="white"/>
<stop offset="0.841" stop-color="#FCFCFC"/>
<stop offset="0.882" stop-color="#F2F2F2"/>
<stop offset="0.919" stop-color="#E1E1E1"/>
<stop offset="0.954" stop-color="#C9C9C9"/>
<stop offset="0.966" stop-color="#BFBFBF"/>
<stop offset="1" stop-color="white"/>
</linearGradient>
<linearGradient id="paint16_linear_2450_35756" x1="7.53779" y1="15.1866" x2="19.5588" y2="15.1866" gradientUnits="userSpaceOnUse">
<stop stop-color="#DFDFDF"/>
<stop offset="0.021" stop-color="#E1E1E1"/>
<stop offset="0.244" stop-color="#F2F2F2"/>
<stop offset="0.487" stop-color="#FCFCFC"/>
<stop offset="0.791" stop-color="white"/>
<stop offset="0.841" stop-color="#FCFCFC"/>
<stop offset="0.882" stop-color="#F2F2F2"/>
<stop offset="0.919" stop-color="#E1E1E1"/>
<stop offset="0.954" stop-color="#C9C9C9"/>
<stop offset="0.966" stop-color="#BFBFBF"/>
<stop offset="1" stop-color="white"/>
</linearGradient>
<linearGradient id="paint17_linear_2450_35756" x1="7.53777" y1="12.2057" x2="19.5587" y2="12.2057" gradientUnits="userSpaceOnUse">
<stop stop-color="#DFDFDF"/>
<stop offset="0.021" stop-color="#E1E1E1"/>
<stop offset="0.244" stop-color="#F2F2F2"/>
<stop offset="0.487" stop-color="#FCFCFC"/>
<stop offset="0.791" stop-color="white"/>
<stop offset="0.841" stop-color="#FCFCFC"/>
<stop offset="0.882" stop-color="#F2F2F2"/>
<stop offset="0.919" stop-color="#E1E1E1"/>
<stop offset="0.954" stop-color="#C9C9C9"/>
<stop offset="0.966" stop-color="#BFBFBF"/>
<stop offset="1" stop-color="white"/>
</linearGradient>
<linearGradient id="paint18_linear_2450_35756" x1="7.53793" y1="13.4657" x2="19.5593" y2="13.4657" gradientUnits="userSpaceOnUse">
<stop stop-color="#DFDFDF"/>
<stop offset="0.021" stop-color="#E1E1E1"/>
<stop offset="0.244" stop-color="#F2F2F2"/>
<stop offset="0.487" stop-color="#FCFCFC"/>
<stop offset="0.791" stop-color="white"/>
<stop offset="0.841" stop-color="#FCFCFC"/>
<stop offset="0.882" stop-color="#F2F2F2"/>
<stop offset="0.919" stop-color="#E1E1E1"/>
<stop offset="0.954" stop-color="#C9C9C9"/>
<stop offset="0.966" stop-color="#BFBFBF"/>
<stop offset="1" stop-color="white"/>
</linearGradient>
<linearGradient id="paint19_linear_2450_35756" x1="7.53756" y1="15.2407" x2="19.5591" y2="15.2407" gradientUnits="userSpaceOnUse">
<stop stop-color="#DFDFDF"/>
<stop offset="0.021" stop-color="#E1E1E1"/>
<stop offset="0.244" stop-color="#F2F2F2"/>
<stop offset="0.487" stop-color="#FCFCFC"/>
<stop offset="0.791" stop-color="white"/>
<stop offset="0.841" stop-color="#FCFCFC"/>
<stop offset="0.882" stop-color="#F2F2F2"/>
<stop offset="0.919" stop-color="#E1E1E1"/>
<stop offset="0.954" stop-color="#C9C9C9"/>
<stop offset="0.966" stop-color="#BFBFBF"/>
<stop offset="1" stop-color="white"/>
</linearGradient>
<linearGradient id="paint20_linear_2450_35756" x1="7.53737" y1="13.5454" x2="19.5612" y2="13.5454" gradientUnits="userSpaceOnUse">
<stop stop-color="#DFDFDF"/>
<stop offset="0.021" stop-color="#E1E1E1"/>
<stop offset="0.244" stop-color="#F2F2F2"/>
<stop offset="0.487" stop-color="#FCFCFC"/>
<stop offset="0.791" stop-color="white"/>
<stop offset="0.841" stop-color="#FCFCFC"/>
<stop offset="0.882" stop-color="#F2F2F2"/>
<stop offset="0.919" stop-color="#E1E1E1"/>
<stop offset="0.954" stop-color="#C9C9C9"/>
<stop offset="0.966" stop-color="#BFBFBF"/>
<stop offset="1" stop-color="white"/>
</linearGradient>
<linearGradient id="paint21_linear_2450_35756" x1="7.53737" y1="12.6847" x2="19.5612" y2="12.6847" gradientUnits="userSpaceOnUse">
<stop stop-color="#DFDFDF"/>
<stop offset="0.021" stop-color="#E1E1E1"/>
<stop offset="0.244" stop-color="#F2F2F2"/>
<stop offset="0.487" stop-color="#FCFCFC"/>
<stop offset="0.791" stop-color="white"/>
<stop offset="0.841" stop-color="#FCFCFC"/>
<stop offset="0.882" stop-color="#F2F2F2"/>
<stop offset="0.919" stop-color="#E1E1E1"/>
<stop offset="0.954" stop-color="#C9C9C9"/>
<stop offset="0.966" stop-color="#BFBFBF"/>
<stop offset="1" stop-color="white"/>
</linearGradient>
<linearGradient id="paint22_linear_2450_35756" x1="7.53716" y1="15.2666" x2="19.5577" y2="15.2666" gradientUnits="userSpaceOnUse">
<stop stop-color="#DFDFDF"/>
<stop offset="0.021" stop-color="#E1E1E1"/>
<stop offset="0.244" stop-color="#F2F2F2"/>
<stop offset="0.487" stop-color="#FCFCFC"/>
<stop offset="0.791" stop-color="white"/>
<stop offset="0.841" stop-color="#FCFCFC"/>
<stop offset="0.882" stop-color="#F2F2F2"/>
<stop offset="0.919" stop-color="#E1E1E1"/>
<stop offset="0.954" stop-color="#C9C9C9"/>
<stop offset="0.966" stop-color="#BFBFBF"/>
<stop offset="1" stop-color="white"/>
</linearGradient>
<linearGradient id="paint23_linear_2450_35756" x1="7.53788" y1="12.6054" x2="19.5588" y2="12.6054" gradientUnits="userSpaceOnUse">
<stop stop-color="#DFDFDF"/>
<stop offset="0.021" stop-color="#E1E1E1"/>
<stop offset="0.244" stop-color="#F2F2F2"/>
<stop offset="0.487" stop-color="#FCFCFC"/>
<stop offset="0.791" stop-color="white"/>
<stop offset="0.841" stop-color="#FCFCFC"/>
<stop offset="0.882" stop-color="#F2F2F2"/>
<stop offset="0.919" stop-color="#E1E1E1"/>
<stop offset="0.954" stop-color="#C9C9C9"/>
<stop offset="0.966" stop-color="#BFBFBF"/>
<stop offset="1" stop-color="white"/>
</linearGradient>
<linearGradient id="paint24_linear_2450_35756" x1="7.53788" y1="11.7442" x2="19.5588" y2="11.7442" gradientUnits="userSpaceOnUse">
<stop stop-color="#DFDFDF"/>
<stop offset="0.021" stop-color="#E1E1E1"/>
<stop offset="0.244" stop-color="#F2F2F2"/>
<stop offset="0.487" stop-color="#FCFCFC"/>
<stop offset="0.791" stop-color="white"/>
<stop offset="0.841" stop-color="#FCFCFC"/>
<stop offset="0.882" stop-color="#F2F2F2"/>
<stop offset="0.919" stop-color="#E1E1E1"/>
<stop offset="0.954" stop-color="#C9C9C9"/>
<stop offset="0.966" stop-color="#BFBFBF"/>
<stop offset="1" stop-color="white"/>
</linearGradient>
<linearGradient id="paint25_linear_2450_35756" x1="7.53737" y1="14.406" x2="19.558" y2="14.406" gradientUnits="userSpaceOnUse">
<stop stop-color="#DFDFDF"/>
<stop offset="0.021" stop-color="#E1E1E1"/>
<stop offset="0.244" stop-color="#F2F2F2"/>
<stop offset="0.487" stop-color="#FCFCFC"/>
<stop offset="0.791" stop-color="white"/>
<stop offset="0.841" stop-color="#FCFCFC"/>
<stop offset="0.882" stop-color="#F2F2F2"/>
<stop offset="0.919" stop-color="#E1E1E1"/>
<stop offset="0.954" stop-color="#C9C9C9"/>
<stop offset="0.966" stop-color="#BFBFBF"/>
<stop offset="1" stop-color="white"/>
</linearGradient>
<linearGradient id="paint26_linear_2450_35756" x1="7.53696" y1="12.2451" x2="19.5579" y2="12.2451" gradientUnits="userSpaceOnUse">
<stop stop-color="#DFDFDF"/>
<stop offset="0.021" stop-color="#E1E1E1"/>
<stop offset="0.244" stop-color="#F2F2F2"/>
<stop offset="0.487" stop-color="#FCFCFC"/>
<stop offset="0.791" stop-color="white"/>
<stop offset="0.841" stop-color="#FCFCFC"/>
<stop offset="0.882" stop-color="#F2F2F2"/>
<stop offset="0.919" stop-color="#E1E1E1"/>
<stop offset="0.954" stop-color="#C9C9C9"/>
<stop offset="0.966" stop-color="#BFBFBF"/>
<stop offset="1" stop-color="white"/>
</linearGradient>
<linearGradient id="paint27_linear_2450_35756" x1="7.53696" y1="13.1056" x2="19.5579" y2="13.1056" gradientUnits="userSpaceOnUse">
<stop stop-color="#DFDFDF"/>
<stop offset="0.021" stop-color="#E1E1E1"/>
<stop offset="0.244" stop-color="#F2F2F2"/>
<stop offset="0.487" stop-color="#FCFCFC"/>
<stop offset="0.791" stop-color="white"/>
<stop offset="0.841" stop-color="#FCFCFC"/>
<stop offset="0.882" stop-color="#F2F2F2"/>
<stop offset="0.919" stop-color="#E1E1E1"/>
<stop offset="0.954" stop-color="#C9C9C9"/>
<stop offset="0.966" stop-color="#BFBFBF"/>
<stop offset="1" stop-color="white"/>
</linearGradient>
<linearGradient id="paint28_linear_2450_35756" x1="7.5371" y1="14.8267" x2="19.5581" y2="14.8267" gradientUnits="userSpaceOnUse">
<stop stop-color="#DFDFDF"/>
<stop offset="0.021" stop-color="#E1E1E1"/>
<stop offset="0.244" stop-color="#F2F2F2"/>
<stop offset="0.487" stop-color="#FCFCFC"/>
<stop offset="0.791" stop-color="white"/>
<stop offset="0.841" stop-color="#FCFCFC"/>
<stop offset="0.882" stop-color="#F2F2F2"/>
<stop offset="0.919" stop-color="#E1E1E1"/>
<stop offset="0.954" stop-color="#C9C9C9"/>
<stop offset="0.966" stop-color="#BFBFBF"/>
<stop offset="1" stop-color="white"/>
</linearGradient>
<linearGradient id="paint29_linear_2450_35756" x1="7.53696" y1="13.9662" x2="19.5579" y2="13.9662" gradientUnits="userSpaceOnUse">
<stop stop-color="#DFDFDF"/>
<stop offset="0.021" stop-color="#E1E1E1"/>
<stop offset="0.244" stop-color="#F2F2F2"/>
<stop offset="0.487" stop-color="#FCFCFC"/>
<stop offset="0.791" stop-color="white"/>
<stop offset="0.841" stop-color="#FCFCFC"/>
<stop offset="0.882" stop-color="#F2F2F2"/>
<stop offset="0.919" stop-color="#E1E1E1"/>
<stop offset="0.954" stop-color="#C9C9C9"/>
<stop offset="0.966" stop-color="#BFBFBF"/>
<stop offset="1" stop-color="white"/>
</linearGradient>
<linearGradient id="paint30_linear_2450_35756" x1="7.53737" y1="11.8242" x2="19.5608" y2="11.8242" gradientUnits="userSpaceOnUse">
<stop stop-color="#DFDFDF"/>
<stop offset="0.021" stop-color="#E1E1E1"/>
<stop offset="0.244" stop-color="#F2F2F2"/>
<stop offset="0.487" stop-color="#FCFCFC"/>
<stop offset="0.791" stop-color="white"/>
<stop offset="0.841" stop-color="#FCFCFC"/>
<stop offset="0.882" stop-color="#F2F2F2"/>
<stop offset="0.919" stop-color="#E1E1E1"/>
<stop offset="0.954" stop-color="#C9C9C9"/>
<stop offset="0.966" stop-color="#BFBFBF"/>
<stop offset="1" stop-color="white"/>
</linearGradient>
<linearGradient id="paint31_linear_2450_35756" x1="7.53625" y1="13.8566" x2="19.5609" y2="13.8566" gradientUnits="userSpaceOnUse">
<stop stop-color="#DFDFDF"/>
<stop offset="0.021" stop-color="#E1E1E1"/>
<stop offset="0.244" stop-color="#F2F2F2"/>
<stop offset="0.487" stop-color="#FCFCFC"/>
<stop offset="0.791" stop-color="white"/>
<stop offset="0.841" stop-color="#FCFCFC"/>
<stop offset="0.882" stop-color="#F2F2F2"/>
<stop offset="0.919" stop-color="#E1E1E1"/>
<stop offset="0.954" stop-color="#C9C9C9"/>
<stop offset="0.966" stop-color="#BFBFBF"/>
<stop offset="1" stop-color="white"/>
</linearGradient>
<linearGradient id="paint32_linear_2450_35756" x1="7.53789" y1="13.6398" x2="19.5586" y2="13.6398" gradientUnits="userSpaceOnUse">
<stop stop-color="#DFDFDF"/>
<stop offset="0.021" stop-color="#E1E1E1"/>
<stop offset="0.244" stop-color="#F2F2F2"/>
<stop offset="0.487" stop-color="#FCFCFC"/>
<stop offset="0.791" stop-color="white"/>
<stop offset="0.841" stop-color="#FCFCFC"/>
<stop offset="0.882" stop-color="#F2F2F2"/>
<stop offset="0.919" stop-color="#E1E1E1"/>
<stop offset="0.954" stop-color="#C9C9C9"/>
<stop offset="0.966" stop-color="#BFBFBF"/>
<stop offset="1" stop-color="white"/>
</linearGradient>
<linearGradient id="paint33_linear_2450_35756" x1="7.53789" y1="12.7796" x2="19.5586" y2="12.7796" gradientUnits="userSpaceOnUse">
<stop stop-color="#DFDFDF"/>
<stop offset="0.021" stop-color="#E1E1E1"/>
<stop offset="0.244" stop-color="#F2F2F2"/>
<stop offset="0.487" stop-color="#FCFCFC"/>
<stop offset="0.791" stop-color="white"/>
<stop offset="0.841" stop-color="#FCFCFC"/>
<stop offset="0.882" stop-color="#F2F2F2"/>
<stop offset="0.919" stop-color="#E1E1E1"/>
<stop offset="0.954" stop-color="#C9C9C9"/>
<stop offset="0.966" stop-color="#BFBFBF"/>
<stop offset="1" stop-color="white"/>
</linearGradient>
<linearGradient id="paint34_linear_2450_35756" x1="7.53788" y1="14.5003" x2="19.5587" y2="14.5003" gradientUnits="userSpaceOnUse">
<stop stop-color="#DFDFDF"/>
<stop offset="0.021" stop-color="#E1E1E1"/>
<stop offset="0.244" stop-color="#F2F2F2"/>
<stop offset="0.487" stop-color="#FCFCFC"/>
<stop offset="0.791" stop-color="white"/>
<stop offset="0.841" stop-color="#FCFCFC"/>
<stop offset="0.882" stop-color="#F2F2F2"/>
<stop offset="0.919" stop-color="#E1E1E1"/>
<stop offset="0.954" stop-color="#C9C9C9"/>
<stop offset="0.966" stop-color="#BFBFBF"/>
<stop offset="1" stop-color="white"/>
</linearGradient>
<linearGradient id="paint35_linear_2450_35756" x1="7.5359" y1="12.4114" x2="19.5628" y2="12.4114" gradientUnits="userSpaceOnUse">
<stop stop-color="#DFDFDF"/>
<stop offset="0.021" stop-color="#E1E1E1"/>
<stop offset="0.244" stop-color="#F2F2F2"/>
<stop offset="0.487" stop-color="#FCFCFC"/>
<stop offset="0.791" stop-color="white"/>
<stop offset="0.841" stop-color="#FCFCFC"/>
<stop offset="0.882" stop-color="#F2F2F2"/>
<stop offset="0.919" stop-color="#E1E1E1"/>
<stop offset="0.954" stop-color="#C9C9C9"/>
<stop offset="0.966" stop-color="#BFBFBF"/>
<stop offset="1" stop-color="white"/>
</linearGradient>
<linearGradient id="paint36_linear_2450_35756" x1="7.53807" y1="11.9188" x2="19.5585" y2="11.9188" gradientUnits="userSpaceOnUse">
<stop stop-color="#DFDFDF"/>
<stop offset="0.021" stop-color="#E1E1E1"/>
<stop offset="0.244" stop-color="#F2F2F2"/>
<stop offset="0.487" stop-color="#FCFCFC"/>
<stop offset="0.791" stop-color="white"/>
<stop offset="0.841" stop-color="#FCFCFC"/>
<stop offset="0.882" stop-color="#F2F2F2"/>
<stop offset="0.919" stop-color="#E1E1E1"/>
<stop offset="0.954" stop-color="#C9C9C9"/>
<stop offset="0.966" stop-color="#BFBFBF"/>
<stop offset="1" stop-color="white"/>
</linearGradient>
<linearGradient id="paint37_linear_2450_35756" x1="7.5359" y1="11.5511" x2="19.5628" y2="11.5511" gradientUnits="userSpaceOnUse">
<stop stop-color="#DFDFDF"/>
<stop offset="0.021" stop-color="#E1E1E1"/>
<stop offset="0.244" stop-color="#F2F2F2"/>
<stop offset="0.487" stop-color="#FCFCFC"/>
<stop offset="0.791" stop-color="white"/>
<stop offset="0.841" stop-color="#FCFCFC"/>
<stop offset="0.882" stop-color="#F2F2F2"/>
<stop offset="0.919" stop-color="#E1E1E1"/>
<stop offset="0.954" stop-color="#C9C9C9"/>
<stop offset="0.966" stop-color="#BFBFBF"/>
<stop offset="1" stop-color="white"/>
</linearGradient>
<linearGradient id="paint38_linear_2450_35756" x1="7.53733" y1="13.1425" x2="19.5589" y2="13.1425" gradientUnits="userSpaceOnUse">
<stop stop-color="#DFDFDF"/>
<stop offset="0.021" stop-color="#E1E1E1"/>
<stop offset="0.244" stop-color="#F2F2F2"/>
<stop offset="0.487" stop-color="#FCFCFC"/>
<stop offset="0.791" stop-color="white"/>
<stop offset="0.841" stop-color="#FCFCFC"/>
<stop offset="0.882" stop-color="#F2F2F2"/>
<stop offset="0.919" stop-color="#E1E1E1"/>
<stop offset="0.954" stop-color="#C9C9C9"/>
<stop offset="0.966" stop-color="#BFBFBF"/>
<stop offset="1" stop-color="white"/>
</linearGradient>
<linearGradient id="paint39_linear_2450_35756" x1="7.53763" y1="12.2819" x2="19.5592" y2="12.2819" gradientUnits="userSpaceOnUse">
<stop stop-color="#DFDFDF"/>
<stop offset="0.021" stop-color="#E1E1E1"/>
<stop offset="0.244" stop-color="#F2F2F2"/>
<stop offset="0.487" stop-color="#FCFCFC"/>
<stop offset="0.791" stop-color="white"/>
<stop offset="0.841" stop-color="#FCFCFC"/>
<stop offset="0.882" stop-color="#F2F2F2"/>
<stop offset="0.919" stop-color="#E1E1E1"/>
<stop offset="0.954" stop-color="#C9C9C9"/>
<stop offset="0.966" stop-color="#BFBFBF"/>
<stop offset="1" stop-color="white"/>
</linearGradient>
<linearGradient id="paint40_linear_2450_35756" x1="7.53767" y1="14.8637" x2="19.5588" y2="14.8637" gradientUnits="userSpaceOnUse">
<stop stop-color="#DFDFDF"/>
<stop offset="0.021" stop-color="#E1E1E1"/>
<stop offset="0.244" stop-color="#F2F2F2"/>
<stop offset="0.487" stop-color="#FCFCFC"/>
<stop offset="0.791" stop-color="white"/>
<stop offset="0.841" stop-color="#FCFCFC"/>
<stop offset="0.882" stop-color="#F2F2F2"/>
<stop offset="0.919" stop-color="#E1E1E1"/>
<stop offset="0.954" stop-color="#C9C9C9"/>
<stop offset="0.966" stop-color="#BFBFBF"/>
<stop offset="1" stop-color="white"/>
</linearGradient>
<linearGradient id="paint41_linear_2450_35756" x1="7.53764" y1="11.421" x2="19.5592" y2="11.421" gradientUnits="userSpaceOnUse">
<stop stop-color="#DFDFDF"/>
<stop offset="0.021" stop-color="#E1E1E1"/>
<stop offset="0.244" stop-color="#F2F2F2"/>
<stop offset="0.487" stop-color="#FCFCFC"/>
<stop offset="0.791" stop-color="white"/>
<stop offset="0.841" stop-color="#FCFCFC"/>
<stop offset="0.882" stop-color="#F2F2F2"/>
<stop offset="0.919" stop-color="#E1E1E1"/>
<stop offset="0.954" stop-color="#C9C9C9"/>
<stop offset="0.966" stop-color="#BFBFBF"/>
<stop offset="1" stop-color="white"/>
</linearGradient>
<linearGradient id="paint42_linear_2450_35756" x1="7.53752" y1="14.0027" x2="19.5591" y2="14.0027" gradientUnits="userSpaceOnUse">
<stop stop-color="#DFDFDF"/>
<stop offset="0.021" stop-color="#E1E1E1"/>
<stop offset="0.244" stop-color="#F2F2F2"/>
<stop offset="0.487" stop-color="#FCFCFC"/>
<stop offset="0.791" stop-color="white"/>
<stop offset="0.841" stop-color="#FCFCFC"/>
<stop offset="0.882" stop-color="#F2F2F2"/>
<stop offset="0.919" stop-color="#E1E1E1"/>
<stop offset="0.954" stop-color="#C9C9C9"/>
<stop offset="0.966" stop-color="#BFBFBF"/>
<stop offset="1" stop-color="white"/>
</linearGradient>
<linearGradient id="paint43_linear_2450_35756" x1="7.53609" y1="13.2723" x2="19.563" y2="13.2723" gradientUnits="userSpaceOnUse">
<stop stop-color="#DFDFDF"/>
<stop offset="0.021" stop-color="#E1E1E1"/>
<stop offset="0.244" stop-color="#F2F2F2"/>
<stop offset="0.487" stop-color="#FCFCFC"/>
<stop offset="0.791" stop-color="white"/>
<stop offset="0.841" stop-color="#FCFCFC"/>
<stop offset="0.882" stop-color="#F2F2F2"/>
<stop offset="0.919" stop-color="#E1E1E1"/>
<stop offset="0.954" stop-color="#C9C9C9"/>
<stop offset="0.966" stop-color="#BFBFBF"/>
<stop offset="1" stop-color="white"/>
</linearGradient>
<linearGradient id="paint44_linear_2450_35756" x1="7.53645" y1="12.1355" x2="19.5611" y2="12.1355" gradientUnits="userSpaceOnUse">
<stop stop-color="#DFDFDF"/>
<stop offset="0.021" stop-color="#E1E1E1"/>
<stop offset="0.244" stop-color="#F2F2F2"/>
<stop offset="0.487" stop-color="#FCFCFC"/>
<stop offset="0.791" stop-color="white"/>
<stop offset="0.841" stop-color="#FCFCFC"/>
<stop offset="0.882" stop-color="#F2F2F2"/>
<stop offset="0.919" stop-color="#E1E1E1"/>
<stop offset="0.954" stop-color="#C9C9C9"/>
<stop offset="0.966" stop-color="#BFBFBF"/>
<stop offset="1" stop-color="white"/>
</linearGradient>
<linearGradient id="paint45_linear_2450_35756" x1="7.53742" y1="14.2404" x2="19.5584" y2="14.2404" gradientUnits="userSpaceOnUse">
<stop stop-color="#DFDFDF"/>
<stop offset="0.021" stop-color="#E1E1E1"/>
<stop offset="0.244" stop-color="#F2F2F2"/>
<stop offset="0.487" stop-color="#FCFCFC"/>
<stop offset="0.791" stop-color="white"/>
<stop offset="0.841" stop-color="#FCFCFC"/>
<stop offset="0.882" stop-color="#F2F2F2"/>
<stop offset="0.919" stop-color="#E1E1E1"/>
<stop offset="0.954" stop-color="#C9C9C9"/>
<stop offset="0.966" stop-color="#BFBFBF"/>
<stop offset="1" stop-color="white"/>
</linearGradient>
<linearGradient id="paint46_linear_2450_35756" x1="7.53609" y1="14.1325" x2="19.563" y2="14.1325" gradientUnits="userSpaceOnUse">
<stop stop-color="#DFDFDF"/>
<stop offset="0.021" stop-color="#E1E1E1"/>
<stop offset="0.244" stop-color="#F2F2F2"/>
<stop offset="0.487" stop-color="#FCFCFC"/>
<stop offset="0.791" stop-color="white"/>
<stop offset="0.841" stop-color="#FCFCFC"/>
<stop offset="0.882" stop-color="#F2F2F2"/>
<stop offset="0.919" stop-color="#E1E1E1"/>
<stop offset="0.954" stop-color="#C9C9C9"/>
<stop offset="0.966" stop-color="#BFBFBF"/>
<stop offset="1" stop-color="white"/>
</linearGradient>
<linearGradient id="paint47_linear_2450_35756" x1="7.53742" y1="12.5193" x2="19.5584" y2="12.5193" gradientUnits="userSpaceOnUse">
<stop stop-color="#DFDFDF"/>
<stop offset="0.021" stop-color="#E1E1E1"/>
<stop offset="0.244" stop-color="#F2F2F2"/>
<stop offset="0.487" stop-color="#FCFCFC"/>
<stop offset="0.791" stop-color="white"/>
<stop offset="0.841" stop-color="#FCFCFC"/>
<stop offset="0.882" stop-color="#F2F2F2"/>
<stop offset="0.919" stop-color="#E1E1E1"/>
<stop offset="0.954" stop-color="#C9C9C9"/>
<stop offset="0.966" stop-color="#BFBFBF"/>
<stop offset="1" stop-color="white"/>
</linearGradient>
<linearGradient id="paint48_linear_2450_35756" x1="7.53742" y1="15.1013" x2="19.5584" y2="15.1013" gradientUnits="userSpaceOnUse">
<stop stop-color="#DFDFDF"/>
<stop offset="0.021" stop-color="#E1E1E1"/>
<stop offset="0.244" stop-color="#F2F2F2"/>
<stop offset="0.487" stop-color="#FCFCFC"/>
<stop offset="0.791" stop-color="white"/>
<stop offset="0.841" stop-color="#FCFCFC"/>
<stop offset="0.882" stop-color="#F2F2F2"/>
<stop offset="0.919" stop-color="#E1E1E1"/>
<stop offset="0.954" stop-color="#C9C9C9"/>
<stop offset="0.966" stop-color="#BFBFBF"/>
<stop offset="1" stop-color="white"/>
</linearGradient>
<linearGradient id="paint49_linear_2450_35756" x1="7.53625" y1="12.996" x2="19.5609" y2="12.996" gradientUnits="userSpaceOnUse">
<stop stop-color="#DFDFDF"/>
<stop offset="0.021" stop-color="#E1E1E1"/>
<stop offset="0.244" stop-color="#F2F2F2"/>
<stop offset="0.487" stop-color="#FCFCFC"/>
<stop offset="0.791" stop-color="white"/>
<stop offset="0.841" stop-color="#FCFCFC"/>
<stop offset="0.882" stop-color="#F2F2F2"/>
<stop offset="0.919" stop-color="#E1E1E1"/>
<stop offset="0.954" stop-color="#C9C9C9"/>
<stop offset="0.966" stop-color="#BFBFBF"/>
<stop offset="1" stop-color="white"/>
</linearGradient>
<linearGradient id="paint50_linear_2450_35756" x1="7.53665" y1="11.6587" x2="19.5605" y2="11.6587" gradientUnits="userSpaceOnUse">
<stop stop-color="#DFDFDF"/>
<stop offset="0.021" stop-color="#E1E1E1"/>
<stop offset="0.244" stop-color="#F2F2F2"/>
<stop offset="0.487" stop-color="#FCFCFC"/>
<stop offset="0.791" stop-color="white"/>
<stop offset="0.841" stop-color="#FCFCFC"/>
<stop offset="0.882" stop-color="#F2F2F2"/>
<stop offset="0.919" stop-color="#E1E1E1"/>
<stop offset="0.954" stop-color="#C9C9C9"/>
<stop offset="0.966" stop-color="#BFBFBF"/>
<stop offset="1" stop-color="white"/>
</linearGradient>
<linearGradient id="paint51_linear_2450_35756" x1="7.53742" y1="13.38" x2="19.5584" y2="13.38" gradientUnits="userSpaceOnUse">
<stop stop-color="#DFDFDF"/>
<stop offset="0.021" stop-color="#E1E1E1"/>
<stop offset="0.244" stop-color="#F2F2F2"/>
<stop offset="0.487" stop-color="#FCFCFC"/>
<stop offset="0.791" stop-color="white"/>
<stop offset="0.841" stop-color="#FCFCFC"/>
<stop offset="0.882" stop-color="#F2F2F2"/>
<stop offset="0.919" stop-color="#E1E1E1"/>
<stop offset="0.954" stop-color="#C9C9C9"/>
<stop offset="0.966" stop-color="#BFBFBF"/>
<stop offset="1" stop-color="white"/>
</linearGradient>
<linearGradient id="paint52_linear_2450_35756" x1="7.53583" y1="14.9936" x2="19.5627" y2="14.9936" gradientUnits="userSpaceOnUse">
<stop stop-color="#DFDFDF"/>
<stop offset="0.021" stop-color="#E1E1E1"/>
<stop offset="0.244" stop-color="#F2F2F2"/>
<stop offset="0.487" stop-color="#FCFCFC"/>
<stop offset="0.791" stop-color="white"/>
<stop offset="0.841" stop-color="#FCFCFC"/>
<stop offset="0.882" stop-color="#F2F2F2"/>
<stop offset="0.919" stop-color="#E1E1E1"/>
<stop offset="0.954" stop-color="#C9C9C9"/>
<stop offset="0.966" stop-color="#BFBFBF"/>
<stop offset="1" stop-color="white"/>
</linearGradient>
<linearGradient id="paint53_linear_2450_35756" x1="7.53812" y1="14.6199" x2="19.5593" y2="14.6199" gradientUnits="userSpaceOnUse">
<stop stop-color="#DFDFDF"/>
<stop offset="0.021" stop-color="#E1E1E1"/>
<stop offset="0.244" stop-color="#F2F2F2"/>
<stop offset="0.487" stop-color="#FCFCFC"/>
<stop offset="0.791" stop-color="white"/>
<stop offset="0.841" stop-color="#FCFCFC"/>
<stop offset="0.882" stop-color="#F2F2F2"/>
<stop offset="0.919" stop-color="#E1E1E1"/>
<stop offset="0.954" stop-color="#C9C9C9"/>
<stop offset="0.966" stop-color="#BFBFBF"/>
<stop offset="1" stop-color="white"/>
</linearGradient>
<linearGradient id="paint54_linear_2450_35756" x1="7.53793" y1="12.0382" x2="19.5591" y2="12.0382" gradientUnits="userSpaceOnUse">
<stop stop-color="#DFDFDF"/>
<stop offset="0.021" stop-color="#E1E1E1"/>
<stop offset="0.244" stop-color="#F2F2F2"/>
<stop offset="0.487" stop-color="#FCFCFC"/>
<stop offset="0.791" stop-color="white"/>
<stop offset="0.841" stop-color="#FCFCFC"/>
<stop offset="0.882" stop-color="#F2F2F2"/>
<stop offset="0.919" stop-color="#E1E1E1"/>
<stop offset="0.954" stop-color="#C9C9C9"/>
<stop offset="0.966" stop-color="#BFBFBF"/>
<stop offset="1" stop-color="white"/>
</linearGradient>
<linearGradient id="paint55_linear_2450_35756" x1="7.53812" y1="13.7592" x2="19.5593" y2="13.7592" gradientUnits="userSpaceOnUse">
<stop stop-color="#DFDFDF"/>
<stop offset="0.021" stop-color="#E1E1E1"/>
<stop offset="0.244" stop-color="#F2F2F2"/>
<stop offset="0.487" stop-color="#FCFCFC"/>
<stop offset="0.791" stop-color="white"/>
<stop offset="0.841" stop-color="#FCFCFC"/>
<stop offset="0.882" stop-color="#F2F2F2"/>
<stop offset="0.919" stop-color="#E1E1E1"/>
<stop offset="0.954" stop-color="#C9C9C9"/>
<stop offset="0.966" stop-color="#BFBFBF"/>
<stop offset="1" stop-color="white"/>
</linearGradient>
<linearGradient id="paint56_linear_2450_35756" x1="7.53812" y1="12.8985" x2="19.5593" y2="12.8985" gradientUnits="userSpaceOnUse">
<stop stop-color="#DFDFDF"/>
<stop offset="0.021" stop-color="#E1E1E1"/>
<stop offset="0.244" stop-color="#F2F2F2"/>
<stop offset="0.487" stop-color="#FCFCFC"/>
<stop offset="0.791" stop-color="white"/>
<stop offset="0.841" stop-color="#FCFCFC"/>
<stop offset="0.882" stop-color="#F2F2F2"/>
<stop offset="0.919" stop-color="#E1E1E1"/>
<stop offset="0.954" stop-color="#C9C9C9"/>
<stop offset="0.966" stop-color="#BFBFBF"/>
<stop offset="1" stop-color="white"/>
</linearGradient>
<clipPath id="clip0_2450_35756">
<rect width="24" height="24" fill="white"/>
</clipPath>
</defs>
</svg>
