<svg width="64" height="64" viewBox="0 0 64 64" fill="none" xmlns="http://www.w3.org/2000/svg">
<circle cx="32" cy="32" r="32" fill="#1F2028"/>
<mask id="mask0_8753_69384" style="mask-type:alpha" maskUnits="userSpaceOnUse" x="0" y="0" width="64" height="64">
<circle cx="32" cy="32" r="31.5" fill="#1F2028" stroke="white"/>
</mask>
<g mask="url(#mask0_8753_69384)">
<path opacity="0.8" fill-rule="evenodd" clip-rule="evenodd" d="M32 72.2117L0.960478 8.98305L9.03949 5.01699L32 51.7884L54.9605 5.017L63.0395 8.98306L32 72.2117Z" fill="white"/>
</g>
<circle opacity="0.8" cx="32" cy="32" r="28" fill="url(#paint0_linear_8753_69384)"/>
<circle cx="32" cy="32" r="24" fill="#1F2028"/>
<path d="M43.8857 41.6798L34.7147 19.6924C34.5568 19.2081 34.2506 18.7849 33.8387 18.4815C33.4268 18.1781 32.9298 18.0098 32.4169 18H31.6057C31.0928 18.0098 30.5958 18.1781 30.1839 18.4815C29.772 18.7849 29.4658 19.2081 29.3079 19.6924L25.3177 29.2728H22.2992C21.8646 29.2745 21.4483 29.4461 21.1404 29.7503C20.8325 30.0545 20.6579 30.4668 20.6543 30.8979V30.9203C20.6579 31.3514 20.8325 31.7637 21.1404 32.0679C21.4483 32.3721 21.8646 32.5437 22.2992 32.5455H23.9214L20.1143 41.6798C20.0423 41.8799 20.0041 42.0905 20.0013 42.3029C19.9836 42.7547 20.1459 43.1952 20.4532 43.5291C20.6109 43.6887 20.8011 43.8131 21.0111 43.8939C21.2211 43.9747 21.4461 44.01 21.671 43.9976C22.0115 43.9933 22.3422 43.8844 22.6177 43.686C22.906 43.4741 23.1316 43.1892 23.2707 42.8611L27.4574 32.5477H30.3653C30.7998 32.5459 31.2162 32.3744 31.5241 32.0702C31.8319 31.766 32.0066 31.3536 32.0102 30.9226V30.8777C32.0066 30.4467 31.8319 30.0343 31.5241 29.7301C31.2162 29.4259 30.7998 29.2544 30.3653 29.2526H28.8131L32.0102 21.3422L40.7293 42.8611C40.8684 43.1892 41.094 43.4741 41.3823 43.686C41.6578 43.8844 41.9885 43.9933 42.329 43.9976C42.5539 44.01 42.7789 43.9747 42.9889 43.8939C43.1989 43.8131 43.3891 43.6887 43.5468 43.5291C43.8541 43.1952 44.0164 42.7547 43.9987 42.3029C44.007 42.0896 43.9685 41.8769 43.8857 41.6798V41.6798Z" fill="white"/>
<defs>
<linearGradient id="paint0_linear_8753_69384" x1="59.2836" y1="48.3154" x2="-9.42124" y2="6.9903" gradientUnits="userSpaceOnUse">
<stop stop-color="#5433FF"/>
<stop offset="0.5" stop-color="#20BDFF"/>
<stop offset="1" stop-color="#5CFFA2"/>
</linearGradient>
</defs>
</svg>
