<svg width="64" height="64" viewBox="0 0 64 64" fill="none" xmlns="http://www.w3.org/2000/svg">
<circle cx="32" cy="32" r="32" fill="#1F2028"/>
<mask id="mask0_8753_69392" style="mask-type:alpha" maskUnits="userSpaceOnUse" x="0" y="0" width="64" height="64">
<circle cx="32" cy="32" r="31.5" fill="#1F2028" stroke="white"/>
</mask>
<g mask="url(#mask0_8753_69392)">
<path opacity="0.8" fill-rule="evenodd" clip-rule="evenodd" d="M32 72.2117L0.960478 8.98305L9.03949 5.01699L32 51.7884L54.9605 5.017L63.0395 8.98306L32 72.2117Z" fill="white"/>
</g>
<circle opacity="0.8" cx="32" cy="32" r="28" fill="url(#paint0_linear_8753_69392)"/>
<circle cx="32" cy="32" r="24" fill="#1F2028"/>
<path d="M24.7726 31.8934C24.7043 33.0795 25.6173 34.0949 26.8034 34.1632C26.8461 34.1632 26.8887 34.1632 26.9314 34.1632C28.126 34.1632 29.0902 33.199 29.0817 32.0043C29.0817 30.8097 28.1175 29.8455 26.9229 29.8541C25.7795 29.8541 24.8323 30.75 24.7726 31.8934Z" fill="white"/>
<path d="M16.7345 31.3387C16.3506 31.3132 16.0178 31.6118 16.0007 31.9958C15.9836 32.3798 16.2738 32.7125 16.6577 32.7296C17.0417 32.7552 17.366 32.4566 17.3916 32.0726C17.4172 31.6886 17.1185 31.3643 16.7345 31.3387Z" fill="white"/>
<path d="M24.636 19.3842C24.9773 19.2135 25.1138 18.7869 24.9432 18.4455C24.7725 18.1042 24.3459 17.9677 24.0046 18.1384C23.6632 18.309 23.5267 18.7271 23.6974 19.0684C23.868 19.4183 24.2861 19.5633 24.636 19.3842C24.636 19.3842 24.6275 19.3842 24.636 19.3842Z" fill="white"/>
<path d="M26.8207 23.1984C27.3497 22.9339 27.563 22.2854 27.2985 21.7563C27.034 21.2273 26.3855 21.014 25.8564 21.2785C25.3274 21.543 25.1141 22.1915 25.3786 22.7206C25.6431 23.2496 26.2916 23.4629 26.8207 23.1984Z" fill="white"/>
<path d="M19.465 25.818C19.8746 26.0825 20.4207 25.9716 20.6938 25.562C20.9583 25.1524 20.8474 24.6063 20.4378 24.3333C20.0282 24.0687 19.4821 24.1797 19.209 24.5893C18.936 24.9988 19.0555 25.5535 19.465 25.818Z" fill="white"/>
<path d="M20.7704 30.9548C20.1731 30.9207 19.6697 31.3729 19.6355 31.9702C19.6014 32.5675 20.0537 33.071 20.651 33.1051C21.2483 33.1392 21.7517 32.687 21.7858 32.0897C21.82 31.5009 21.3677 30.9889 20.7704 30.9548Z" fill="white"/>
<path d="M19.5844 38.1822C19.1493 38.404 18.9701 38.9331 19.1919 39.3768C19.4138 39.8119 19.9428 39.9911 20.3865 39.7693C20.8217 39.5474 21.0009 39.0184 20.779 38.5747C20.5572 38.1395 20.0196 37.9603 19.5844 38.1822Z" fill="white"/>
<path d="M23.7657 28.7277C24.3544 29.1117 25.1395 28.9496 25.5149 28.3608C25.8989 27.772 25.7368 26.987 25.148 26.6116C24.5592 26.2276 23.7742 26.3897 23.3987 26.9785C23.0148 27.5587 23.1769 28.3437 23.7657 28.7277Z" fill="white"/>
<path d="M37.0343 23.1131C37.5292 23.4373 38.2033 23.3008 38.5276 22.8059C38.8518 22.311 38.7153 21.6369 38.2204 21.3127C37.7255 20.9884 37.0514 21.1249 36.7271 21.6198C36.3943 22.1233 36.5309 22.7888 37.0343 23.1131Z" fill="white"/>
<path d="M39.2357 19.316C39.56 19.5293 39.9866 19.4354 40.2 19.1112C40.4133 18.7869 40.3194 18.3603 39.9952 18.1469C39.6709 17.9336 39.2443 18.0275 39.0309 18.3432C38.8262 18.6675 38.92 19.1026 39.2357 19.316Z" fill="white"/>
<path d="M37.1965 29.837C36.0104 29.7687 34.9865 30.6817 34.9267 31.8678C34.8585 33.0539 35.7715 34.0778 36.9576 34.1375C37.0002 34.1375 37.0429 34.1375 37.077 34.1375C38.2631 34.1375 39.2273 33.1733 39.2273 31.9787C39.2359 30.8438 38.3399 29.8967 37.1965 29.837Z" fill="white"/>
<path d="M27.5286 28.5741C27.8955 29.2994 28.6379 29.7602 29.457 29.7602C30.6431 29.7602 31.6073 28.7959 31.6073 27.6013C31.6073 27.2686 31.5305 26.9358 31.377 26.6286C30.8394 25.562 29.5424 25.1353 28.4843 25.6729C27.4177 26.219 26.991 27.516 27.5286 28.5741Z" fill="white"/>
<path d="M44.4151 25.818C44.8502 25.5961 45.0209 25.0585 44.799 24.6233C44.5772 24.1882 44.0396 24.0175 43.6044 24.2394C43.1693 24.4612 42.9986 24.9903 43.2119 25.4254C43.4423 25.8606 43.9714 26.0398 44.4151 25.818Z" fill="white"/>
<path d="M38.9543 26.5006C38.3314 26.8164 38.0754 27.5758 38.3911 28.1987C38.7068 28.8216 39.4663 29.0776 40.0892 28.7619C40.7121 28.4461 40.968 27.6867 40.6523 27.0638C40.3366 26.4409 39.5772 26.1935 38.9543 26.5006Z" fill="white"/>
<path d="M31.9144 18.9917C32.4008 19.0173 32.8189 18.6418 32.853 18.1555C32.8872 17.6691 32.5032 17.251 32.0168 17.2168C31.5304 17.1912 31.1123 17.5582 31.0782 18.0445C31.0526 18.5394 31.428 18.9575 31.9144 18.9917Z" fill="white"/>
<path d="M31.9059 24.5636C32.6056 24.6063 33.2029 24.0687 33.2371 23.369C33.2797 22.6693 32.7422 22.072 32.0425 22.0379C31.3428 21.9952 30.7455 22.5328 30.7113 23.2325C30.6772 23.9322 31.2062 24.5295 31.9059 24.5636Z" fill="white"/>
<path d="M25.0453 37.4996C25.6682 37.1838 25.9242 36.4244 25.6084 35.8015C25.2927 35.1786 24.5333 34.9226 23.9104 35.2383C23.2875 35.5541 23.0315 36.3135 23.3472 36.9364C23.6629 37.5593 24.4224 37.8153 25.0453 37.4996Z" fill="white"/>
<path d="M32.7252 26.4153C32.0767 27.4137 32.3497 28.7448 33.3481 29.3933C34.3464 30.0418 35.6776 29.7687 36.3261 28.7704C36.9746 27.772 36.7015 26.4409 35.7032 25.7924C35.3533 25.562 34.9437 25.4426 34.5256 25.4426C33.8003 25.4426 33.1262 25.8095 32.7252 26.4153Z" fill="white"/>
<path d="M36.4713 35.426C35.9337 34.3594 34.6367 33.9328 33.5787 34.4703C32.512 35.0079 32.0854 36.3049 32.623 37.363C33.1605 38.4296 34.4575 38.8562 35.5156 38.3187C36.5737 37.7896 37.0089 36.5097 36.4798 35.4431C36.4798 35.4345 36.4798 35.4345 36.4713 35.426Z" fill="white"/>
<path d="M40.234 35.2725C39.6452 34.8885 38.8602 35.0506 38.4847 35.6394C38.1008 36.2281 38.2629 37.0132 38.8517 37.3886C39.4404 37.7726 40.2254 37.6105 40.6009 37.0217C40.9849 36.4415 40.8228 35.6564 40.234 35.2725Z" fill="white"/>
<path d="M44.3638 32.0384C44.3979 31.4411 43.9457 30.9377 43.3484 30.9035C42.7511 30.8694 42.2476 31.3217 42.2135 31.919C42.1793 32.5163 42.6316 33.0197 43.2289 33.0538C43.8177 33.088 44.3296 32.6272 44.3638 32.0384Z" fill="white"/>
<path d="M47.3421 31.2705C46.9582 31.2449 46.6254 31.5435 46.6083 31.9275C46.5913 32.3115 46.8814 32.6442 47.2654 32.6613C47.6493 32.6869 47.9736 32.3883 47.9992 32.0043C48.0162 31.6203 47.7261 31.2961 47.3421 31.2705Z" fill="white"/>
<path d="M44.5345 38.1822C44.125 37.9177 43.5789 38.0286 43.3058 38.4382C43.0413 38.8478 43.1522 39.3939 43.5618 39.6669C43.9714 39.9315 44.5175 39.8205 44.7905 39.4109C45.0636 39.0014 44.9441 38.4467 44.5345 38.1822Z" fill="white"/>
<path d="M24.7555 44.6842C24.4312 44.4709 24.0046 44.5648 23.7912 44.8805C23.5779 45.2047 23.6718 45.6314 23.9875 45.8447C24.3117 46.058 24.7384 45.9642 24.9517 45.6485C25.1736 45.3327 25.0797 44.8976 24.7555 44.6842Z" fill="white"/>
<path d="M39.3639 44.6159C39.0226 44.7866 38.886 45.2132 39.0567 45.5546C39.2273 45.8959 39.654 46.0324 39.9953 45.8617C40.3366 45.6911 40.4731 45.273 40.3025 44.9317C40.1318 44.5818 39.7137 44.4368 39.3639 44.6159C39.3639 44.6159 39.3724 44.6159 39.3639 44.6159Z" fill="white"/>
<path d="M31.2746 37.5849C31.9231 36.5865 31.65 35.2554 30.6517 34.5983C29.6533 33.9498 28.3222 34.2229 27.6652 35.2212C27.0081 36.2196 27.2897 37.5507 28.2881 38.2078C28.6379 38.4381 29.0475 38.5576 29.4656 38.5576C30.1994 38.5661 30.8735 38.1992 31.2746 37.5849Z" fill="white"/>
<path d="M26.9656 40.8871C26.4707 40.5628 25.7966 40.6993 25.4723 41.1942C25.1481 41.6892 25.2846 42.3632 25.7795 42.6875C26.2744 43.0117 26.9485 42.8752 27.2728 42.3803C27.6055 41.8854 27.469 41.2113 26.9656 40.8871Z" fill="white"/>
<path d="M31.9914 45.0084C31.505 44.9828 31.0869 45.3583 31.0528 45.8447C31.0186 46.331 31.4026 46.7491 31.889 46.7833C32.3754 46.8089 32.7935 46.442 32.8276 45.9556C32.8532 45.4607 32.4778 45.0426 31.9914 45.0084Z" fill="white"/>
<path d="M31.9999 39.4365C31.3002 39.3938 30.7029 39.9314 30.6688 40.6311C30.6261 41.3308 31.1637 41.9281 31.8634 41.9622C32.5631 41.9963 33.1604 41.4673 33.1945 40.7676C33.2372 40.0764 32.6996 39.4706 31.9999 39.4365Z" fill="white"/>
<path d="M37.1795 40.8018C36.6505 41.0748 36.4372 41.7233 36.7102 42.2524C36.9833 42.7814 37.6318 42.9947 38.1608 42.7217C38.6899 42.4572 38.9032 41.8087 38.6387 41.2796C38.3656 40.7506 37.7171 40.5287 37.1795 40.8018Z" fill="white"/>
<defs>
<linearGradient id="paint0_linear_8753_69392" x1="59.2836" y1="48.3154" x2="-9.42124" y2="6.9903" gradientUnits="userSpaceOnUse">
<stop stop-color="#5433FF"/>
<stop offset="0.5" stop-color="#20BDFF"/>
<stop offset="1" stop-color="#5CFFA2"/>
</linearGradient>
</defs>
</svg>
