<svg width="64" height="64" viewBox="0 0 64 64" fill="none" xmlns="http://www.w3.org/2000/svg">
<circle cx="32" cy="32" r="32" fill="#1F2028"/>
<mask id="mask0_8753_69431" style="mask-type:alpha" maskUnits="userSpaceOnUse" x="0" y="0" width="64" height="64">
<circle cx="32" cy="32" r="31.5" fill="#1F2028" stroke="white"/>
</mask>
<g mask="url(#mask0_8753_69431)">
<path opacity="0.8" fill-rule="evenodd" clip-rule="evenodd" d="M32 72.2117L0.960539 8.98305L9.03955 5.01699L32 51.7884L54.9605 5.017L63.0396 8.98306L32 72.2117Z" fill="white"/>
</g>
<circle opacity="0.8" cx="32" cy="32" r="28" fill="url(#paint0_linear_8753_69431)"/>
<circle cx="32" cy="32" r="24" fill="#1F2028"/>
<path d="M39.6812 24.0336C38.4799 21.2778 35.7195 20.6886 32.3402 21.2594L31.2542 17L28.6939 17.669L29.7617 21.9161C29.0883 22.088 28.3967 22.2353 27.7111 22.4317L26.6433 18.2091L24.0831 18.8781L25.169 23.1375C24.617 23.2971 20 24.4939 20 24.4939L20.7038 27.268C20.7038 27.268 22.5845 26.734 22.5663 26.777C23.6098 26.5008 24.1013 27.0286 24.3318 27.5258L27.3167 39.1993C27.3531 39.5368 27.2925 40.1137 26.5766 40.3101C26.619 40.3347 24.714 40.795 24.714 40.795L24.9931 44.0295C24.9931 44.0295 29.5676 42.8449 30.1682 42.6915L31.2663 47L33.8266 46.331L32.7285 41.9918C33.4322 41.8261 34.1178 41.6543 34.7852 41.4763L35.8772 45.7909L38.4375 45.1219L37.3394 40.8196C41.2829 39.8498 44.0676 37.3335 43.4973 33.4853C43.1333 31.1653 40.6276 29.2627 38.5467 29.0479C39.8268 27.9002 40.476 26.2246 39.6812 24.0336ZM38.4496 34.1911C38.9592 38.0025 33.7235 38.4689 31.9944 38.9292L30.4898 33.2275C32.2249 32.7672 37.5881 30.8339 38.4496 34.1911ZM35.2948 26.4272C35.8348 29.8151 31.3573 30.2079 29.9134 30.5822L28.5423 25.4083C29.9923 25.0462 34.1967 23.2909 35.2948 26.4272Z" fill="white"/>
<defs>
<linearGradient id="paint0_linear_8753_69431" x1="59.2836" y1="48.3154" x2="-9.42124" y2="6.9903" gradientUnits="userSpaceOnUse">
<stop stop-color="#5433FF"/>
<stop offset="0.5" stop-color="#20BDFF"/>
<stop offset="1" stop-color="#5CFFA2"/>
</linearGradient>
</defs>
</svg>
