<svg width="64" height="64" viewBox="0 0 64 64" fill="none" xmlns="http://www.w3.org/2000/svg">
<circle cx="32" cy="32" r="32" fill="#1F2028"/>
<mask id="mask0_8753_69439" style="mask-type:alpha" maskUnits="userSpaceOnUse" x="0" y="0" width="64" height="64">
<circle cx="32" cy="32" r="31.5" fill="#1F2028" stroke="white"/>
</mask>
<g mask="url(#mask0_8753_69439)">
<path opacity="0.8" fill-rule="evenodd" clip-rule="evenodd" d="M32 72.2117L0.960539 8.98305L9.03955 5.01699L32 51.7884L54.9605 5.017L63.0396 8.98306L32 72.2117Z" fill="white"/>
</g>
<circle opacity="0.8" cx="32" cy="32" r="28" fill="url(#paint0_linear_8753_69439)"/>
<circle cx="32" cy="32" r="24" fill="#1F2028"/>
<path d="M21 19H35.3941C37.7931 19 39.632 19.6207 40.9107 20.8622C42.2007 22.1037 42.8458 23.6407 42.8458 25.4734C42.8458 27.0105 42.3875 28.3288 41.4708 29.4284C40.8598 30.1614 39.9658 30.7408 38.7889 31.1664C40.5769 31.6157 41.8895 32.3902 42.7269 33.4898C43.5756 34.5775 44 35.9491 44 37.6044C44 38.9523 43.7001 40.1642 43.1004 41.2401C42.5006 42.3161 41.6802 43.1673 40.6391 43.794C39.9941 44.1842 39.0209 44.4679 37.7196 44.6453C35.9882 44.8818 34.8396 45 34.2738 45H21V19ZM28.7572 29.1978H32.1011C33.3006 29.1978 34.1323 28.985 34.5963 28.5593C35.0716 28.1219 35.3092 27.4952 35.3092 26.6794C35.3092 25.9227 35.0716 25.3315 34.5963 24.9059C34.1323 24.4802 33.3176 24.2674 32.152 24.2674H28.7572V29.1978ZM28.7572 39.4134H32.6782C34.0022 39.4134 34.9358 39.171 35.479 38.6862C36.0221 38.1896 36.2937 37.5275 36.2937 36.6999C36.2937 35.9313 36.0221 35.3165 35.479 34.8554C34.9471 34.3824 34.0079 34.146 32.6613 34.146H28.7572V39.4134Z" fill="white"/>
<defs>
<linearGradient id="paint0_linear_8753_69439" x1="59.2836" y1="48.3154" x2="-9.42124" y2="6.9903" gradientUnits="userSpaceOnUse">
<stop stop-color="#5433FF"/>
<stop offset="0.5" stop-color="#20BDFF"/>
<stop offset="1" stop-color="#5CFFA2"/>
</linearGradient>
</defs>
</svg>
