<svg width="64" height="64" viewBox="0 0 64 64" fill="none" xmlns="http://www.w3.org/2000/svg">
<circle cx="32" cy="32" r="32" fill="#1F2028"/>
<mask id="mask0_8753_69460" style="mask-type:alpha" maskUnits="userSpaceOnUse" x="0" y="0" width="64" height="64">
<circle cx="32" cy="32" r="31.5" fill="#1F2028" stroke="white"/>
</mask>
<g mask="url(#mask0_8753_69460)">
<path opacity="0.8" fill-rule="evenodd" clip-rule="evenodd" d="M32 72.2117L0.960539 8.98305L9.03955 5.01699L32 51.7884L54.9605 5.017L63.0396 8.98306L32 72.2117Z" fill="white"/>
</g>
<circle opacity="0.8" cx="32" cy="32" r="28" fill="url(#paint0_linear_8753_69460)"/>
<circle cx="32" cy="32" r="24" fill="#1F2028"/>
<path d="M42.6991 29.0606C43.1727 25.9083 40.7626 24.2137 37.4671 23.0832L38.5361 18.813L35.926 18.1653L34.8852 22.3229C34.199 22.1526 33.4943 21.992 32.794 21.8328L33.8422 17.6478L31.2336 17L30.1638 21.2687C29.5959 21.1399 29.0383 21.0125 28.4971 20.8785L28.5001 20.8652L24.9005 19.9702L24.2062 22.7464C24.2062 22.7464 26.1428 23.1883 26.1019 23.2157C27.159 23.4785 27.35 24.1752 27.3181 24.7275C24.3891 36.4253 27.3181 24.7275 24.3891 36.4253C24.2597 36.7451 23.9319 37.2248 23.1929 37.0427C23.2189 37.0804 21.2958 36.5711 21.2958 36.5711L20 39.5465L23.3966 40.3897C24.0285 40.5474 24.6478 40.7125 25.2574 40.8679L24.1772 45.187L26.7843 45.8347L27.8541 41.5616C28.5663 41.7541 29.2576 41.9318 29.9341 42.0991L28.8681 46.3522L31.4782 47L32.5583 42.6891C37.0091 43.5279 40.3559 43.1896 41.7647 39.1807C42.8999 35.9529 41.7082 34.091 39.3665 32.8769C41.0718 32.4853 42.3564 31.3681 42.6991 29.0606V29.0606ZM36.7355 37.3884C35.9289 40.6162 30.4716 38.8713 28.7023 38.4338L30.1356 32.7118C31.9049 33.1516 37.5786 34.0222 36.7355 37.3884ZM37.5429 29.0139C36.8069 31.95 32.2647 30.4583 30.7913 30.0926L32.0907 24.9029C33.5642 25.2686 38.3093 25.9512 37.5429 29.0139V29.0139Z" fill="white"/>
<defs>
<linearGradient id="paint0_linear_8753_69460" x1="59.2836" y1="48.3154" x2="-9.42124" y2="6.9903" gradientUnits="userSpaceOnUse">
<stop stop-color="#5433FF"/>
<stop offset="0.5" stop-color="#20BDFF"/>
<stop offset="1" stop-color="#5CFFA2"/>
</linearGradient>
</defs>
</svg>
