<svg width="64" height="64" viewBox="0 0 64 64" fill="none" xmlns="http://www.w3.org/2000/svg">
<circle cx="32" cy="32" r="32" fill="#1F2028"/>
<mask id="mask0_8753_69480" style="mask-type:alpha" maskUnits="userSpaceOnUse" x="0" y="0" width="64" height="64">
<circle cx="32" cy="32" r="31.5" fill="#1F2028" stroke="white"/>
</mask>
<g mask="url(#mask0_8753_69480)">
<path opacity="0.8" fill-rule="evenodd" clip-rule="evenodd" d="M32 72.2117L0.960539 8.98305L9.03955 5.01699L32 51.7884L54.9605 5.017L63.0396 8.98306L32 72.2117Z" fill="white"/>
</g>
<circle opacity="0.8" cx="32" cy="32" r="28" fill="url(#paint0_linear_8753_69480)"/>
<circle cx="32" cy="32" r="24" fill="#1F2028"/>
<path fill-rule="evenodd" clip-rule="evenodd" d="M23.4069 22.3003C23.0207 20.5692 24.3724 18.9343 26.1103 18.9343C27.6552 18.9343 28.9103 20.1845 28.9103 21.7232V28.0706C29.8759 27.9744 30.8414 27.8782 31.9034 27.8782C32.869 27.8782 33.8345 27.9744 34.8 28.0706V21.7232C34.8 20.1845 36.0552 18.9343 37.6 18.9343C39.3379 18.9343 40.6897 20.5692 40.4 22.3003L39.1448 29.2246C43.2 30.7634 46 33.4562 46 36.5337C46 41.2461 39.7241 45.093 32 45.093C24.2759 45.093 18 41.2461 18 36.5337C18 33.4562 20.7034 30.7634 24.7586 29.2246L23.4069 22.3003Z" fill="white"/>
<path d="M28.0413 35.8604C28.0413 37.1107 27.3655 38.1686 26.4965 38.1686C25.6275 38.1686 24.9517 37.1107 24.9517 35.8604C24.9517 34.6102 25.6275 33.5523 26.4965 33.5523C27.3655 33.5523 28.0413 34.6102 28.0413 35.8604Z" fill="#1F2028"/>
<path d="M38.7582 35.8604C38.7582 37.1107 38.0824 38.1686 37.2134 38.1686C36.3444 38.1686 35.6686 37.1107 35.6686 35.8604C35.6686 34.6102 36.3444 33.5523 37.2134 33.5523C38.0824 33.5523 38.7582 34.6102 38.7582 35.8604Z" fill="#1F2028"/>
<defs>
<linearGradient id="paint0_linear_8753_69480" x1="59.2836" y1="48.3154" x2="-9.42124" y2="6.9903" gradientUnits="userSpaceOnUse">
<stop stop-color="#5433FF"/>
<stop offset="0.5" stop-color="#20BDFF"/>
<stop offset="1" stop-color="#5CFFA2"/>
</linearGradient>
</defs>
</svg>
