<svg width="64" height="64" viewBox="0 0 64 64" fill="none" xmlns="http://www.w3.org/2000/svg">
<circle cx="32" cy="32" r="32" fill="#1F2028"/>
<mask id="mask0_8753_69492" style="mask-type:alpha" maskUnits="userSpaceOnUse" x="0" y="0" width="64" height="64">
<circle cx="32" cy="32" r="31.5" fill="#1F2028" stroke="white"/>
</mask>
<g mask="url(#mask0_8753_69492)">
<path opacity="0.8" fill-rule="evenodd" clip-rule="evenodd" d="M32 72.2117L0.960539 8.98305L9.03955 5.01699L32 51.7884L54.9605 5.017L63.0396 8.98306L32 72.2117Z" fill="white"/>
</g>
<circle opacity="0.8" cx="32" cy="32" r="28" fill="url(#paint0_linear_8753_69492)"/>
<circle cx="32" cy="32" r="24" fill="#1F2028"/>
<path d="M33.3344 33.5274H41.472C41.6455 33.5274 41.7274 33.5274 41.7399 33.2982C41.8064 32.4639 41.8064 31.6248 41.7399 30.7895C41.7399 30.6273 41.6599 30.5603 41.4855 30.5603H25.2902C25.0897 30.5603 25.0358 30.6273 25.0358 30.8167V33.2176C25.0358 33.5274 25.0358 33.5274 25.3567 33.5274H33.3344V33.5274ZM40.8311 27.7544C40.8543 27.6932 40.8543 27.6262 40.8311 27.566C40.6952 27.2678 40.5343 26.9832 40.3473 26.7161C40.0659 26.2596 39.7344 25.8391 39.3566 25.4613C39.1783 25.233 38.9721 25.0281 38.7408 24.8543C37.5824 23.8607 36.2053 23.1575 34.725 22.804C33.9781 22.635 33.2149 22.5544 32.4497 22.5612H25.2622C25.0618 22.5612 25.0348 22.6418 25.0348 22.8176V27.6058C25.0348 27.8078 25.0348 27.8622 25.2892 27.8622H40.7348C40.7348 27.8622 40.8687 27.835 40.8957 27.7544H40.8302H40.8311ZM40.8311 36.3334C40.6037 36.3081 40.3743 36.3081 40.1469 36.3334H25.3037C25.1032 36.3334 25.0358 36.3334 25.0358 36.6034V41.2847C25.0358 41.5004 25.0358 41.5548 25.3037 41.5548H32.1567C32.4844 41.58 32.812 41.5567 33.1329 41.4877C34.1275 41.4159 35.1057 41.1983 36.0386 40.8399C36.3778 40.7214 36.7054 40.567 37.0148 40.3815H37.1083C38.7148 39.5394 40.0197 38.2166 40.8427 36.5927C40.8427 36.5927 40.9362 36.3887 40.8311 36.3353V36.3334ZM22.346 43.9819V43.9013V40.7583V39.6929V36.5228C22.346 36.347 22.346 36.3207 22.1321 36.3207H19.2274C19.0665 36.3207 19 36.3207 19 36.1051V33.542H22.1051C22.2786 33.542 22.346 33.542 22.346 33.3128V30.7769C22.346 30.6147 22.346 30.5749 22.1321 30.5749H19.2274C19.0665 30.5749 19 30.5749 19 30.3593V27.9855C19 27.8369 19 27.7971 19.2139 27.7971H22.0916C22.2921 27.7971 22.346 27.7971 22.346 27.5407V20.27C22.346 20.0544 22.346 20 22.6139 20H32.652C33.3806 20.0291 34.1044 20.1098 34.8204 20.2428C36.2959 20.5177 37.7135 21.0489 39.0097 21.8075C39.8693 22.3174 40.6605 22.9331 41.365 23.6422C41.8951 24.1967 42.3731 24.797 42.7971 25.436C43.2183 26.0839 43.5681 26.7763 43.8428 27.4999C43.8765 27.6883 44.0557 27.8156 44.2427 27.7835H46.6385C46.9459 27.7835 46.9459 27.7835 46.9594 28.0807V30.2932C46.9594 30.5088 46.8794 30.5632 46.6645 30.5632H44.8171C44.6301 30.5632 44.5761 30.5632 44.5896 30.806C44.6629 31.6277 44.6629 32.4523 44.5896 33.274C44.5896 33.5032 44.5896 33.5304 44.845 33.5304H46.9585C47.0519 33.6518 46.9585 33.7732 46.9585 33.8955C46.9719 34.0519 46.9719 34.2102 46.9585 34.3666V35.9993C46.9585 36.2285 46.892 36.2965 46.6905 36.2965H44.1608C43.9844 36.2625 43.8129 36.3761 43.7724 36.5529C43.1701 38.1311 42.2064 39.5462 40.9612 40.6806C40.5064 41.0934 40.0283 41.4819 39.5291 41.8403C38.9933 42.1511 38.4719 42.4745 37.9226 42.7309C36.9117 43.1894 35.8516 43.5273 34.7636 43.742C33.7304 43.9285 32.6829 44.013 31.6315 43.9984H22.3422V43.9848L22.346 43.9819Z" fill="#FEFEFD"/>
<defs>
<linearGradient id="paint0_linear_8753_69492" x1="59.2836" y1="48.3154" x2="-9.42124" y2="6.9903" gradientUnits="userSpaceOnUse">
<stop stop-color="#5433FF"/>
<stop offset="0.5" stop-color="#20BDFF"/>
<stop offset="1" stop-color="#5CFFA2"/>
</linearGradient>
</defs>
</svg>
