<svg width="64" height="64" viewBox="0 0 64 64" fill="none" xmlns="http://www.w3.org/2000/svg">
<circle cx="32" cy="32" r="32" fill="#1F2028"/>
<mask id="mask0_8753_69508" style="mask-type:alpha" maskUnits="userSpaceOnUse" x="0" y="0" width="64" height="64">
<circle cx="32" cy="32" r="31.5" fill="#1F2028" stroke="white"/>
</mask>
<g mask="url(#mask0_8753_69508)">
<path opacity="0.8" fill-rule="evenodd" clip-rule="evenodd" d="M32 72.2117L0.960539 8.98305L9.03955 5.01699L32 51.7884L54.9605 5.017L63.0396 8.98306L32 72.2117Z" fill="white"/>
</g>
<circle opacity="0.8" cx="32" cy="32" r="28" fill="url(#paint0_linear_8753_69508)"/>
<circle cx="32" cy="32" r="24" fill="#1F2028"/>
<path d="M32.6041 17C29.5301 17.0114 26.5852 18.2274 24.4115 20.3828C22.2378 22.5383 21.0115 25.4584 21 28.5066C20.9999 29.7776 21.2063 31.0402 21.6115 32.2459C21.757 32.6405 22.0492 32.9651 22.4281 33.153C22.8071 33.3409 23.2442 33.3779 23.6499 33.2566C24.0436 33.1082 24.3653 32.8164 24.5493 32.4407C24.7333 32.065 24.7657 31.6339 24.6399 31.2353C24.2953 30.2977 24.1419 29.3014 24.1886 28.3045C24.2367 26.6952 24.7558 25.1345 25.6825 23.8124C26.6093 22.4904 27.9037 21.4642 29.4082 20.8586C30.9127 20.2531 32.5622 20.0945 34.156 20.402C35.7498 20.7096 37.219 21.4701 38.3846 22.5909C39.5503 23.7117 40.3622 25.1444 40.7213 26.7145C41.0804 28.2847 40.9713 29.9245 40.4073 31.4343C39.8433 32.9441 38.8487 34.2587 37.5447 35.2179C36.2407 36.1772 34.6835 36.7397 33.0628 36.837C33.0628 36.837 31.4393 36.9381 30.624 37.0392C30.325 37.081 30.0285 37.1388 29.7359 37.2124C29.7148 37.2281 29.6888 37.2356 29.6626 37.2338C29.6364 37.2319 29.6117 37.2208 29.5931 37.2024C29.5745 37.1839 29.5633 37.1595 29.5614 37.1335C29.5595 37.1075 29.5672 37.0817 29.583 37.0608L29.8378 35.6965L31.3665 28.8315C31.4544 28.4227 31.3749 27.9961 31.1455 27.6455C30.9162 27.2949 30.5557 27.0489 30.1435 26.9618C29.7313 26.8747 29.3011 26.9536 28.9475 27.181C28.5939 27.4084 28.3459 27.7658 28.258 28.1746C28.258 28.1746 24.6181 44.9364 24.6181 45.088C24.568 45.2903 24.56 45.5005 24.5947 45.7059C24.6294 45.9113 24.7059 46.1075 24.8198 46.2826C24.9336 46.4576 25.0822 46.6078 25.2566 46.7238C25.431 46.8399 25.6274 46.9195 25.8338 46.9577C26.0383 47.0062 26.2505 47.0131 26.4577 46.9778C26.6648 46.9425 26.8626 46.8658 27.0389 46.7524C27.2153 46.639 27.3665 46.4912 27.4835 46.318C27.6005 46.1448 27.6807 45.9498 27.7193 45.7449C27.7703 45.5428 28.2289 43.3194 28.2289 43.3194C28.3979 42.5011 28.8157 41.7537 29.4262 41.178C30.0367 40.6024 30.8104 40.2261 31.6432 40.0999C31.9926 40.0494 33.4704 39.9483 33.4704 39.9483C36.4237 39.6776 39.1601 38.2953 41.1171 36.0855C43.074 33.8757 44.1028 31.0064 43.9919 28.0675C43.8809 25.1287 42.6387 22.3437 40.5206 20.2851C38.4025 18.2266 35.5695 17.051 32.6041 17Z" fill="white"/>
<path d="M35.1891 43.2051C34.9435 43.1552 34.6905 43.1544 34.4445 43.2029C34.1986 43.2513 33.9647 43.348 33.7562 43.4873C33.5477 43.6266 33.3687 43.8059 33.2295 44.0148C33.0903 44.2237 32.9937 44.4581 32.9452 44.7046C32.8924 44.951 32.8895 45.2055 32.9365 45.4531C32.9836 45.7006 33.0797 45.9362 33.2192 46.1459C33.3586 46.3556 33.5386 46.5352 33.7485 46.6739C33.9584 46.8127 34.1939 46.9078 34.4411 46.9538C34.6867 47.0098 34.9411 47.015 35.1888 46.969C35.4365 46.9231 35.6722 46.8271 35.8816 46.6867C36.0909 46.5464 36.2695 46.3647 36.4064 46.1528C36.5433 45.9409 36.6357 45.7032 36.6779 45.4543C36.7618 44.9599 36.6546 44.452 36.3779 44.0341C36.1013 43.6162 35.6762 43.3198 35.1891 43.2051V43.2051Z" fill="white"/>
<defs>
<linearGradient id="paint0_linear_8753_69508" x1="59.2836" y1="48.3154" x2="-9.42124" y2="6.9903" gradientUnits="userSpaceOnUse">
<stop stop-color="#5433FF"/>
<stop offset="0.5" stop-color="#20BDFF"/>
<stop offset="1" stop-color="#5CFFA2"/>
</linearGradient>
</defs>
</svg>
