<svg width="64" height="64" viewBox="0 0 64 64" fill="none" xmlns="http://www.w3.org/2000/svg">
<circle cx="32" cy="32" r="32" fill="#1F2028"/>
<mask id="mask0_8753_69531" style="mask-type:alpha" maskUnits="userSpaceOnUse" x="0" y="0" width="64" height="64">
<circle cx="32" cy="32" r="31.5" fill="#1F2028" stroke="white"/>
</mask>
<g mask="url(#mask0_8753_69531)">
<path opacity="0.8" fill-rule="evenodd" clip-rule="evenodd" d="M32 72.2117L0.960539 8.98305L9.03955 5.01699L32 51.7884L54.9605 5.017L63.0396 8.98306L32 72.2117Z" fill="white"/>
</g>
<circle opacity="0.8" cx="32" cy="32" r="28" fill="url(#paint0_linear_8753_69531)"/>
<circle cx="32" cy="32" r="24" fill="#1F2028"/>
<path fill-rule="evenodd" clip-rule="evenodd" d="M33.9744 29.4261L33.2974 32.9429L39.7282 33.822L39.2769 35.4705L32.959 34.5913C32.5077 36.02 32.2821 37.5586 31.7179 38.8774C31.1538 40.416 30.5897 41.9546 29.9128 43.3832C29.0103 45.2515 27.4308 46.5703 25.2872 46.9C24.0462 47.1198 22.6923 47.0099 21.6769 46.2406C21.3385 46.0208 21 45.5812 21 45.2515C21 44.8119 21.2256 44.2624 21.5641 44.0426C21.7897 43.9327 22.3538 44.0426 22.6923 44.1525C23.0308 44.4822 23.3692 44.9218 23.5949 45.3614C24.2718 46.2406 25.1744 46.3505 26.0769 45.6911C27.0923 44.8119 27.6564 43.603 27.9949 42.3941C28.6718 39.7566 29.3487 37.2289 29.9128 34.5913V34.1517L23.9333 33.2726L24.159 31.6241L30.3641 32.5033L31.1538 29.0964L24.7231 28.1073L24.9487 26.3489L31.6051 27.2281C31.8308 26.5687 31.9436 26.0192 32.1692 25.4697C32.7333 23.4916 33.2974 21.5134 34.6513 19.755C36.0051 17.9966 37.5846 16.8976 39.9538 17.0075C40.9692 17.0075 41.9846 17.3372 42.6615 18.1065C42.7744 18.2164 43 18.4362 43 18.656C43 19.0956 43 19.6451 42.6615 19.9748C42.2103 20.3045 41.6462 20.1946 41.1949 19.755C40.8564 19.4253 40.6308 19.0956 40.2923 18.7659C39.6154 17.8867 38.6 17.7768 37.8103 18.5461C37.2462 19.0956 36.6821 19.8649 36.3436 20.6342C35.5538 22.9421 34.9897 25.3598 34.2 27.7776L40.4051 28.6568L39.9538 30.3053L33.9744 29.4261Z" fill="white"/>
<defs>
<linearGradient id="paint0_linear_8753_69531" x1="59.2836" y1="48.3154" x2="-9.42124" y2="6.9903" gradientUnits="userSpaceOnUse">
<stop stop-color="#5433FF"/>
<stop offset="0.5" stop-color="#20BDFF"/>
<stop offset="1" stop-color="#5CFFA2"/>
</linearGradient>
</defs>
</svg>
