<svg width="64" height="64" viewBox="0 0 64 64" fill="none" xmlns="http://www.w3.org/2000/svg">
<circle cx="32" cy="32" r="32" fill="#1F2028"/>
<mask id="mask0_8753_69547" style="mask-type:alpha" maskUnits="userSpaceOnUse" x="0" y="0" width="64" height="64">
<circle cx="32" cy="32" r="31.5" fill="#1F2028" stroke="white"/>
</mask>
<g mask="url(#mask0_8753_69547)">
<path opacity="0.8" fill-rule="evenodd" clip-rule="evenodd" d="M32 72.2117L0.960539 8.98305L9.03955 5.01699L32 51.7884L54.9605 5.017L63.0396 8.98306L32 72.2117Z" fill="white"/>
</g>
<circle opacity="0.8" cx="32" cy="32" r="28" fill="url(#paint0_linear_8753_69547)"/>
<circle cx="32" cy="32" r="24" fill="#1F2028"/>
<path d="M33.4036 33.4443L31.3299 40.4255H42.4213C42.4948 40.4229 42.568 40.4348 42.6369 40.4605C42.7058 40.4862 42.7689 40.5253 42.8226 40.5753C42.8764 40.6254 42.9197 40.6856 42.9501 40.7524C42.9806 40.8192 42.9975 40.8914 43 40.9647V41.1477L42.0355 44.4698C41.993 44.6269 41.8982 44.7649 41.7668 44.8611C41.6354 44.9574 41.475 45.0061 41.3122 44.9994H24.3376L27.1827 35.322L24 36.2849L24.7233 34.0702L27.9061 33.1072L31.9086 19.53C31.9527 19.3737 32.0478 19.2367 32.1789 19.1407C32.31 19.0448 32.4695 18.9953 32.632 19.0003H36.9239C36.9973 18.9978 37.0706 19.0097 37.1394 19.0354C37.2083 19.0611 37.2714 19.1001 37.3251 19.1502C37.3789 19.2003 37.4222 19.2605 37.4527 19.3273C37.4831 19.3941 37.5 19.4662 37.5025 19.5396V19.7225L34.1269 31.1814L37.3096 30.2184L36.6345 32.5295L33.4036 33.4443Z" fill="white"/>
<defs>
<linearGradient id="paint0_linear_8753_69547" x1="59.2836" y1="48.3154" x2="-9.42124" y2="6.9903" gradientUnits="userSpaceOnUse">
<stop stop-color="#5433FF"/>
<stop offset="0.5" stop-color="#20BDFF"/>
<stop offset="1" stop-color="#5CFFA2"/>
</linearGradient>
</defs>
</svg>
