<svg width="64" height="64" viewBox="0 0 64 64" fill="none" xmlns="http://www.w3.org/2000/svg">
<circle cx="32" cy="32" r="32" fill="#1F2028"/>
<mask id="mask0_8753_69555" style="mask-type:alpha" maskUnits="userSpaceOnUse" x="0" y="0" width="64" height="64">
<circle cx="32" cy="32" r="31.5" fill="#1F2028" stroke="white"/>
</mask>
<g mask="url(#mask0_8753_69555)">
<path opacity="0.8" fill-rule="evenodd" clip-rule="evenodd" d="M32 72.2117L0.960539 8.98305L9.03955 5.01699L32 51.7884L54.9605 5.017L63.0396 8.98306L32 72.2117Z" fill="white"/>
</g>
<circle opacity="0.8" cx="32" cy="32" r="28" fill="url(#paint0_linear_8753_69555)"/>
<circle cx="32" cy="32" r="24" fill="#1F2028"/>
<path d="M27.0655 18.4286C29.9195 17.3611 33.1317 17.3586 36.0394 18.236C39.8244 19.4108 43.0196 22.2672 44.6891 25.8524C45.1498 26.8736 45.5909 27.9387 45.6348 29.0744C43.5071 27.8412 41.1746 27.0418 38.8373 26.3131C35.0986 24.9653 31.1844 24.0294 27.6455 22.1771C26.8217 21.6847 25.7713 21.1802 25.5471 20.1542C25.4569 19.267 26.3952 18.7722 27.0655 18.4286Z" fill="white"/>
<path d="M18.4501 27.0564C19.2763 24.8141 20.6314 22.7327 22.4715 21.1899C22.9394 25.0383 24.5773 28.7576 27.2826 31.5555C30.5266 34.9262 35.1476 36.9954 39.849 36.9174C41.7159 36.9759 43.5414 36.5445 45.362 36.196C43.5707 42.6693 36.4759 46.9662 29.9026 45.9328C25.9348 45.4258 22.2716 43.0763 20.0611 39.7593C17.5678 36.0937 16.939 31.2265 18.4501 27.0564Z" fill="white"/>
<path d="M38.8374 26.313C41.1747 27.0417 43.5072 27.8411 45.6349 29.0744L45.7787 29.1499C45.9761 30.6342 46.1199 32.1477 45.8567 33.6345C44.7867 33.1811 43.919 32.3842 43.0124 31.6798C41.2673 30.2272 39.4857 28.565 38.8374 26.313Z" fill="white" fill-opacity="0.6"/>
<defs>
<linearGradient id="paint0_linear_8753_69555" x1="59.2836" y1="48.3154" x2="-9.42124" y2="6.9903" gradientUnits="userSpaceOnUse">
<stop stop-color="#5433FF"/>
<stop offset="0.5" stop-color="#20BDFF"/>
<stop offset="1" stop-color="#5CFFA2"/>
</linearGradient>
</defs>
</svg>
