<svg width="64" height="64" viewBox="0 0 64 64" fill="none" xmlns="http://www.w3.org/2000/svg">
<circle cx="32" cy="32" r="32" fill="#1F2028"/>
<mask id="mask0_8753_69567" style="mask-type:alpha" maskUnits="userSpaceOnUse" x="0" y="0" width="64" height="64">
<circle cx="32" cy="32" r="31.5" fill="#1F2028" stroke="white"/>
</mask>
<g mask="url(#mask0_8753_69567)">
<path opacity="0.8" fill-rule="evenodd" clip-rule="evenodd" d="M32 72.2117L0.960539 8.98305L9.03955 5.01699L32 51.7884L54.9605 5.017L63.0396 8.98306L32 72.2117Z" fill="white"/>
</g>
<circle opacity="0.8" cx="32" cy="32" r="28" fill="url(#paint0_linear_8753_69567)"/>
<circle cx="32" cy="32" r="24" fill="#1F2028"/>
<path d="M22.8333 43.6L18 40.7V23.3L22.8333 20.4L37.3333 29.1V34.9L32.5 37.8L27.6667 34.9V40.7L22.8333 43.6Z" fill="white"/>
<path d="M37.3335 23.3V40.7L42.1668 43.6L47.0002 40.7V23.3L42.1668 20.4L37.3335 23.3Z" fill="white"/>
<defs>
<linearGradient id="paint0_linear_8753_69567" x1="59.2836" y1="48.3154" x2="-9.42124" y2="6.9903" gradientUnits="userSpaceOnUse">
<stop stop-color="#5433FF"/>
<stop offset="0.5" stop-color="#20BDFF"/>
<stop offset="1" stop-color="#5CFFA2"/>
</linearGradient>
</defs>
</svg>
