<svg width="64" height="64" viewBox="0 0 64 64" fill="none" xmlns="http://www.w3.org/2000/svg">
<circle cx="32" cy="32" r="32" fill="#1F2028"/>
<mask id="mask0_8753_69577" style="mask-type:alpha" maskUnits="userSpaceOnUse" x="0" y="0" width="64" height="64">
<circle cx="32" cy="32" r="31.5" fill="#1F2028" stroke="white"/>
</mask>
<g mask="url(#mask0_8753_69577)">
<path opacity="0.8" fill-rule="evenodd" clip-rule="evenodd" d="M32 72.2117L0.960539 8.98305L9.03955 5.01699L32 51.7884L54.9605 5.017L63.0396 8.98306L32 72.2117Z" fill="white"/>
</g>
<circle opacity="0.8" cx="32" cy="32" r="28" fill="url(#paint0_linear_8753_69577)"/>
<circle cx="32" cy="32" r="24" fill="#1F2028"/>
<path fill-rule="evenodd" clip-rule="evenodd" d="M31.5131 17.0551C30.2157 17.2028 29.0094 17.7878 28.0973 18.7115C27.4125 19.3816 26.7639 20.0694 26.07 20.7462C25.7227 21.0983 25.3717 21.4408 25.0206 21.7884C24.6695 22.1361 24.2823 22.5053 23.9177 22.8701C23.553 23.2349 23.2502 23.555 22.9127 23.8938C22.3853 24.4149 21.858 24.936 21.3306 25.4624C20.9261 25.8755 20.5306 26.3021 20.1305 26.7146C19.8947 26.961 19.6408 27.1895 19.4186 27.4486C18.5014 28.5544 18.0001 29.94 18 31.3697C18 31.4538 18 31.5402 18.0053 31.6236C18.024 32.4446 18.2421 33.2491 18.6411 33.9694C18.8683 34.4047 19.1313 34.8208 19.4276 35.2134C19.6235 35.4859 19.7659 35.4814 20.0235 35.2707C20.0728 35.2303 20.1188 35.1862 20.1614 35.139C20.4153 34.8747 20.6639 34.6111 20.9223 34.3476C21.2869 33.9694 21.6606 33.592 22.0252 33.2093C22.3899 32.8266 22.7854 32.4053 23.1681 32.01C23.3504 31.8164 23.5448 31.6377 23.7286 31.4471C24.1196 31.0384 24.5023 30.6171 24.8933 30.2128C25.2843 29.8086 25.6805 29.4304 26.0633 29.0351C26.446 28.6398 26.9168 28.1559 27.3477 27.7166C27.7787 27.2774 28.144 26.9081 28.5441 26.5039C29.0647 25.9716 29.5717 25.4266 30.087 24.8951C30.4072 24.5698 30.7364 24.2578 31.0566 23.937C31.501 23.4977 31.9146 23.0585 32.3508 22.6192C32.787 22.18 33.111 21.8852 33.4846 21.507C34.3199 20.6732 35.1539 19.8344 35.9866 18.9907C36.0403 18.9383 36.0906 18.8826 36.1372 18.8239C36.3422 18.5686 36.3595 18.512 36.1064 18.3319C35.7199 18.0309 35.306 17.766 34.8701 17.5405C34.0996 17.1844 33.2594 16.9999 32.4088 17H32.3667C32.0826 17.0001 31.7987 17.0177 31.5169 17.0529L31.5123 17.0484L31.5131 17.0551ZM38.8727 22.4644H38.8192C38.4543 22.4645 38.0938 22.5432 37.7628 22.6951C37.4318 22.8469 37.1383 23.0682 36.9027 23.3436C36.8605 23.3897 36.816 23.4337 36.7693 23.4754L35.4087 24.7938C34.9643 25.2338 34.4836 25.7125 34.0165 26.1741C33.63 26.556 33.2428 26.9297 32.8609 27.3124C32.4789 27.695 32.0691 28.1209 31.6555 28.5206C31.2419 28.9204 30.8019 29.3396 30.3748 29.7512L28.8582 31.2625L26.0392 34.0491C24.7936 35.2849 23.5498 36.5182 22.3077 37.7491C22.0682 37.9821 22.0636 38.0126 22.3077 38.2627C22.9036 38.8583 23.5086 39.4494 24.0864 40.0495C24.4439 40.4239 24.9157 40.6724 25.4297 40.7567C25.9145 40.8531 26.4155 40.8365 26.8927 40.7083C27.2503 40.6209 27.5803 40.4472 27.8533 40.2028L29.3298 38.7936C29.6764 38.4645 30.0282 38.1392 30.3702 37.8049C31.0551 37.1349 31.7308 36.4604 32.4156 35.7948C32.9716 35.2544 33.5412 34.7183 34.1054 34.1779L36.4205 31.9482C37.1407 31.2491 37.8655 30.5463 38.5947 29.8473C38.6433 29.7759 38.7108 29.719 38.7898 29.6829C38.8688 29.6467 38.9564 29.6327 39.0429 29.6423C39.1294 29.6519 39.2117 29.6847 39.2806 29.7373C39.3496 29.7898 39.4026 29.8601 39.434 29.9403C39.8046 30.4753 40.0029 31.1085 40.0028 31.7568C40.0026 31.8677 39.9969 31.9786 39.9854 32.0889C39.9256 32.7425 39.6528 33.3593 39.208 33.8466C38.6738 34.4138 38.105 34.9499 37.5506 35.4948C37.155 35.8812 36.7505 36.2594 36.3542 36.6502C35.8427 37.1513 35.3402 37.6612 34.8287 38.1622C34.7533 38.2456 34.6825 38.3335 34.6026 38.4124L34.1001 38.9268C33.7235 39.299 33.34 39.6609 32.9701 40.0338C32.6002 40.4068 32.1753 40.8431 31.7798 41.2503C31.7444 41.2898 31.7044 41.3158 31.669 41.3508C31.2238 41.7595 30.8147 42.1697 30.3921 42.5814C30.1924 42.775 30.0011 42.9723 29.8052 43.1658C29.4677 43.5045 29.1204 43.8358 28.7957 44.1813C28.5961 44.3875 28.5961 44.5148 28.8319 44.6778C29.219 44.9715 29.6311 45.2315 30.0636 45.4551C31.1394 45.9358 32.3317 46.1034 33.5005 45.9382C34.6606 45.8021 35.7489 45.3121 36.6141 44.5364C37.2718 43.9654 37.8594 43.3236 38.4727 42.7087C38.9172 42.2687 39.3624 41.799 39.8378 41.3463L41.123 40.0673C41.5148 39.6765 41.9012 39.2849 42.2975 38.8985C42.6938 38.5121 43.1865 38.0506 43.631 37.6151C44.0754 37.1795 44.5207 36.7366 44.9652 36.2706C45.3196 35.9139 45.6469 35.532 45.9445 35.1278C46.4994 34.2994 46.8458 33.3519 46.9548 32.3643C47.0151 31.8738 47.0151 31.3778 46.9548 30.8873C46.8225 30.0145 46.5024 29.1798 46.0161 28.4395C45.6664 27.9157 45.2479 27.4401 44.7716 27.025C43.5398 25.8167 42.3118 24.5995 41.1072 23.3645C40.8446 23.0755 40.5234 22.8444 40.1646 22.6861C39.8057 22.5279 39.4171 22.446 39.0241 22.4458H39.0076L38.8742 22.4636L38.8727 22.4644Z" fill="white"/>
<defs>
<linearGradient id="paint0_linear_8753_69577" x1="59.2836" y1="48.3154" x2="-9.42124" y2="6.9903" gradientUnits="userSpaceOnUse">
<stop stop-color="#5433FF"/>
<stop offset="0.5" stop-color="#20BDFF"/>
<stop offset="1" stop-color="#5CFFA2"/>
</linearGradient>
</defs>
</svg>
