<svg width="64" height="64" viewBox="0 0 64 64" fill="none" xmlns="http://www.w3.org/2000/svg">
<circle cx="32" cy="32" r="32" fill="#1F2028"/>
<mask id="mask0_8753_69585" style="mask-type:alpha" maskUnits="userSpaceOnUse" x="0" y="0" width="64" height="64">
<circle cx="32" cy="32" r="31.5" fill="#1F2028" stroke="white"/>
</mask>
<g mask="url(#mask0_8753_69585)">
<path opacity="0.8" fill-rule="evenodd" clip-rule="evenodd" d="M32 72.2117L0.960539 8.98305L9.03955 5.01699L32 51.7884L54.9605 5.017L63.0396 8.98306L32 72.2117Z" fill="white"/>
</g>
<circle opacity="0.8" cx="32" cy="32" r="28" fill="url(#paint0_linear_8753_69585)"/>
<circle cx="32" cy="32" r="24" fill="#1F2028"/>
<path d="M45.6056 28.0378C44.1753 26.7394 42.1967 24.7566 40.5853 23.3503L40.4899 23.2847C40.3313 23.1595 40.1524 23.0612 39.9607 22.9941V22.9941C36.0751 22.2816 17.9917 18.9582 17.6389 19.0004C17.54 19.014 17.4455 19.0492 17.3623 19.1035L17.2718 19.1738C17.1602 19.2852 17.0755 19.4198 17.0238 19.5676L17 19.6285V19.9613V20.0129C19.0358 25.5862 27.0739 43.8438 28.6568 48.1281C28.7521 48.4188 28.9333 48.9719 29.2718 49H29.3481C29.5292 49 30.3016 47.9969 30.3016 47.9969C30.3016 47.9969 44.1085 31.5346 45.5054 29.7815C45.6863 29.5656 45.8459 29.3333 45.9822 29.0878C46.017 28.8957 46.0006 28.698 45.9346 28.514C45.8686 28.33 45.7552 28.1659 45.6056 28.0378V28.0378ZM33.8439 29.9549L39.7367 25.1503L43.1932 28.2815L33.8439 29.9549ZM31.5555 29.6409L21.41 21.466L37.8249 24.4425L31.5555 29.6409ZM32.4708 31.783L42.8547 30.1378L30.9834 44.2001L32.4708 31.783ZM20.0322 22.2816L30.7068 31.1877L29.1621 44.2094L20.0322 22.2816Z" fill="white"/>
<defs>
<linearGradient id="paint0_linear_8753_69585" x1="59.2836" y1="48.3154" x2="-9.42124" y2="6.9903" gradientUnits="userSpaceOnUse">
<stop stop-color="#5433FF"/>
<stop offset="0.5" stop-color="#20BDFF"/>
<stop offset="1" stop-color="#5CFFA2"/>
</linearGradient>
</defs>
</svg>
