<svg width="64" height="64" viewBox="0 0 64 64" fill="none" xmlns="http://www.w3.org/2000/svg">
<circle cx="32" cy="32" r="32" fill="#1F2028"/>
<mask id="mask0_8753_69603" style="mask-type:alpha" maskUnits="userSpaceOnUse" x="0" y="0" width="64" height="64">
<circle cx="32" cy="32" r="31.5" fill="#1F2028" stroke="white"/>
</mask>
<g mask="url(#mask0_8753_69603)">
<path opacity="0.8" fill-rule="evenodd" clip-rule="evenodd" d="M32 72.2117L0.960539 8.98305L9.03955 5.01699L32 51.7884L54.9605 5.017L63.0396 8.98306L32 72.2117Z" fill="white"/>
</g>
<circle opacity="0.8" cx="32" cy="32" r="28" fill="url(#paint0_linear_8753_69603)"/>
<circle cx="32" cy="32" r="24" fill="#1F2028"/>
<path d="M37.4852 35.117C37.4852 32.2084 35.74 31.2111 32.2494 30.7956C29.7562 30.4631 29.2576 29.7983 29.2576 28.6347C29.2576 27.471 30.0887 26.7233 31.7508 26.7233C33.2467 26.7233 34.0779 27.2219 34.4933 28.4685C34.5765 28.7178 34.8258 28.884 35.0752 28.884H36.4047C36.7372 28.884 36.9866 28.6347 36.9866 28.3024V28.2192C36.6541 26.3908 35.1581 24.978 33.2467 24.8119V22.8173C33.2467 22.4848 32.9974 22.2355 32.5819 22.1523H31.3353C31.0028 22.1523 30.7535 22.4016 30.6703 22.8173V24.7287C28.1771 25.0612 26.5982 26.7233 26.5982 28.801C26.5982 31.5436 28.2603 32.6238 31.7508 33.0395C34.0779 33.455 34.8258 33.9536 34.8258 35.2834C34.8258 36.6132 33.6622 37.5273 32.0833 37.5273C29.9224 37.5273 29.1744 36.613 28.9251 35.3664C28.8421 35.0341 28.5928 34.8677 28.3435 34.8677H26.9305C26.5982 34.8677 26.3489 35.117 26.3489 35.4495V35.5327C26.6812 37.6103 28.011 39.1062 30.7535 39.5219V41.5165C30.7535 41.8488 31.0028 42.0981 31.4183 42.1812H32.6649C32.9974 42.1812 33.2467 41.9319 33.3299 41.5165V39.5219C35.8231 39.1062 37.4852 37.3609 37.4852 35.117V35.117Z" fill="white"/>
<path d="M27.7617 43.8433C21.2793 41.5164 17.9549 34.286 20.3652 27.8866C21.6118 24.3961 24.3543 21.7367 27.7617 20.4901C28.0942 20.324 28.2603 20.0747 28.2603 19.659V18.4955C28.2603 18.163 28.0942 17.9137 27.7617 17.8307C27.6785 17.8307 27.5124 17.8307 27.4292 17.9137C19.534 20.4069 15.2124 28.8009 17.7056 36.6961C19.2015 41.35 22.7752 44.9237 27.4292 46.4196C27.7617 46.5858 28.0942 46.4196 28.1772 46.0872C28.2603 46.0042 28.2603 45.921 28.2603 45.7549V44.5912C28.2603 44.3419 28.011 44.0096 27.7617 43.8433ZM36.5711 17.9137C36.2386 17.7476 35.9061 17.9137 35.8232 18.2462C35.74 18.3294 35.74 18.4124 35.74 18.5787V19.7422C35.74 20.0747 35.9893 20.4069 36.2386 20.5733C42.721 22.9002 46.0454 30.1305 43.6351 36.5299C42.3885 40.0204 39.646 42.6798 36.2386 43.9264C35.9061 44.0926 35.74 44.3419 35.74 44.7576V45.921C35.74 46.2535 35.9061 46.5028 36.2386 46.5858C36.3218 46.5858 36.488 46.5858 36.5711 46.5028C44.4663 44.0096 48.7879 35.6156 46.2947 27.7205C44.7988 22.9833 41.1419 19.4097 36.5711 17.9137V17.9137Z" fill="white"/>
<defs>
<linearGradient id="paint0_linear_8753_69603" x1="59.2836" y1="48.3154" x2="-9.42124" y2="6.9903" gradientUnits="userSpaceOnUse">
<stop stop-color="#5433FF"/>
<stop offset="0.5" stop-color="#20BDFF"/>
<stop offset="1" stop-color="#5CFFA2"/>
</linearGradient>
</defs>
</svg>
