<svg width="64" height="64" viewBox="0 0 64 64" fill="none" xmlns="http://www.w3.org/2000/svg">
<circle cx="32" cy="32" r="32" fill="#1F2028"/>
<mask id="mask0_8753_69623" style="mask-type:alpha" maskUnits="userSpaceOnUse" x="0" y="0" width="64" height="64">
<circle cx="32" cy="32" r="31.5" fill="#1F2028" stroke="white"/>
</mask>
<g mask="url(#mask0_8753_69623)">
<path opacity="0.8" fill-rule="evenodd" clip-rule="evenodd" d="M32 72.2117L0.960539 8.98305L9.03955 5.01699L32 51.7884L54.9605 5.017L63.0396 8.98306L32 72.2117Z" fill="white"/>
</g>
<circle opacity="0.8" cx="32" cy="32" r="28" fill="url(#paint0_linear_8753_69623)"/>
<circle cx="32" cy="32" r="24" fill="#1F2028"/>
<path d="M28.9508 38.7889C29.7121 41.6058 32.4438 43.7547 33.8233 43.6656C33.8717 43.6625 39.0556 42.696 41.8934 37.9556C44.1013 34.2658 43.3503 30.7035 40.3464 30.6259C39.2661 30.7047 27.5008 33.4234 28.9515 38.7896L28.9508 38.7889ZM40.0662 20.6977L40.0632 20.695L40.0674 20.6924C38.1755 19.0832 35.8675 18.0413 33.4093 17.6866C30.951 17.3319 28.4426 17.679 26.1731 18.6878C25.886 18.8072 25.6063 18.9437 25.3356 19.0966C25.1506 19.1952 24.9656 19.293 24.7859 19.4011L24.8297 19.4148C24.2984 19.7765 23.8287 20.221 23.4383 20.7316C19.6576 25.7293 32.3391 29.3636 39.1203 29.3742C42.2383 31.6133 43.1139 23.07 40.0662 20.6977V20.6977Z" fill="#9CA1B4"/>
<path d="M26.9387 20.7985C25.1964 23.4175 19.3932 25.2626 18.4388 24.9752L18.4324 24.963C18.4704 24.8842 18.5112 24.8054 18.5515 24.7274C19.5411 22.8213 20.9571 21.1691 22.6894 19.8994C23.0464 19.6375 23.4162 19.3927 23.7986 19.1651C24.3866 18.8405 25.0452 18.665 25.7168 18.6542C28.3011 18.7037 26.9517 20.7784 26.938 20.7993L26.9387 20.7985ZM25.5089 39.3039C25.6342 40.1265 25.5059 43.377 25.3376 43.6503C25.1926 43.6591 24.8907 43.6777 24.0164 43.1871C21.2243 41.5939 19.0702 39.083 17.9203 36.0811C16.7705 33.0792 16.6958 29.7717 17.7091 26.7209C17.7555 26.5814 17.8041 26.4427 17.8549 26.3049C18.8564 27.6372 20.0156 28.8424 21.0007 30.1877C21.9391 31.4686 23.2299 33.5569 23.4926 34.0035C25.1233 36.7736 25.3833 38.4828 25.5078 39.3043L25.5089 39.3039ZM44.7878 31.1123C44.7899 32.8591 44.4618 34.5906 43.8209 36.2155C42.184 37.9742 31.1508 33.6449 31.0427 33.5973C29.5334 32.9361 24.9402 30.9243 24.5257 27.7647C23.9315 23.2158 33.155 20.0471 37.2091 19.9272C37.6952 19.9329 39.1745 19.95 40.0371 20.6505C41.5309 21.9532 42.728 23.5612 43.5475 25.3659C44.367 27.1707 44.79 29.1302 44.7878 31.1123V31.1123ZM37.3187 43.4352C36.1162 43.9967 34.7919 43.5875 35.136 42.4166C35.7965 40.1672 41.5639 37.8611 42.8377 37.7344C42.9949 37.7188 43.0615 37.8257 42.9918 37.9479C41.6649 40.2813 39.6964 42.1851 37.3199 43.4333" fill="white"/>
<path d="M23.146 45.6388C23.129 45.8928 23.2124 46.1433 23.3782 46.3364C23.544 46.5296 23.7789 46.6499 24.0325 46.6716C35.719 46.7515 47.0001 46.2148 47.0001 44.4637C47.0001 39.1633 23.146 45.6388 23.146 45.6388Z" fill="white"/>
<path d="M23.1455 45.6388C23.1283 45.8935 23.2121 46.1448 23.3789 46.3381C23.5456 46.5314 23.7818 46.6512 24.0363 46.6716C35.7197 46.7603 46.9855 46.3933 46.9996 44.4637C46.9996 39.1633 23.1455 45.6388 23.1455 45.6388ZM24.0367 46.6042C24.0055 46.6042 23.9744 46.6024 23.9434 46.5989C23.7653 46.5739 23.5985 46.497 23.464 46.3777C23.3294 46.2583 23.2331 46.102 23.187 45.9281C23.237 46.1166 23.3467 46.2838 23.4996 46.4046C23.6526 46.5255 23.8406 46.5935 24.0355 46.5985C35.7109 46.5254 46.8165 42.9304 46.8165 44.5132C46.8165 46.1288 35.7117 46.6838 24.0367 46.6042V46.6042Z" fill="#888787"/>
<path d="M24.0372 30.628C23.92 30.628 23.804 30.6511 23.6958 30.696C23.5875 30.7408 23.4892 30.8065 23.4064 30.8894C23.3235 30.9723 23.2578 31.0706 23.213 31.1789C23.1682 31.2871 23.1452 31.4032 23.1453 31.5203V45.6389C23.145 45.8747 23.2381 46.101 23.4042 46.2683C23.5704 46.4356 23.7961 46.5302 24.0318 46.5315C35.7175 46.444 47.0134 42.576 46.9994 44.4645V28.5614C47.0134 26.6733 35.7213 30.5409 24.0372 30.628V30.628Z" fill="#1F2028"/>
<path d="M25.76 40.3728C26.176 40.3564 26.5837 40.3389 26.9842 40.3164C27.3846 40.294 27.7767 40.2685 28.1623 40.2403C28.548 40.2121 28.926 40.1794 29.299 40.1455C29.6721 40.1116 30.0398 40.077 30.4029 40.0408C30.7661 40.0047 31.1243 39.967 31.4783 39.9266C32.176 39.8473 32.8729 39.7614 33.5689 39.6689C33.9135 39.6229 34.2541 39.576 34.5967 39.5262C34.9393 39.4763 35.2762 39.423 35.6177 39.3705C35.9592 39.3179 36.3029 39.265 36.6455 39.2106C36.9881 39.1562 37.3341 39.101 37.6801 39.0431C38.0262 38.9852 38.3745 38.924 38.7274 38.8634C39.0802 38.8029 39.4377 38.742 39.7989 38.6792C40.1602 38.6164 40.526 38.5536 40.8968 38.4888C41.2675 38.4241 41.6433 38.3568 42.0262 38.2924C42.4092 38.2281 42.799 38.1649 43.196 38.1044C43.593 38.0439 43.9573 37.9902 44.4522 37.9277C44.9917 37.851 45.5369 37.822 46.0815 37.841C46.5935 37.8756 46.9989 38.0058 46.9989 38.3628V37.1386C46.9989 36.7861 46.6102 36.6597 46.1332 36.6205C45.6248 36.5947 45.115 36.6161 44.6106 36.6845C44.1351 36.7389 43.7925 36.7911 43.4347 36.844C43.0769 36.8969 42.7278 36.9521 42.3844 37.0084C42.0411 37.0648 41.703 37.1226 41.3673 37.1809C41.0315 37.2391 40.6973 37.2989 40.3608 37.3579C40.0243 37.4169 39.6851 37.4755 39.3406 37.5345L38.2873 37.7157C37.9287 37.7774 37.564 37.8394 37.1834 37.9015C36.8027 37.9635 36.4053 38.0252 35.993 38.0888C35.5808 38.1523 35.1529 38.2201 34.706 38.2863V37.0629C35.1529 36.997 35.5815 36.9289 35.993 36.8653C36.4045 36.8017 36.8019 36.7393 37.1834 36.678C37.5648 36.6167 37.9302 36.5539 38.2873 36.4919C38.6444 36.4298 38.9965 36.3701 39.341 36.3111L40.3608 36.1344L41.3673 35.9574C41.703 35.8984 42.0407 35.8432 42.3844 35.785C42.7282 35.7267 43.0765 35.6738 43.4347 35.6205C43.7929 35.5672 44.1351 35.5151 44.6106 35.461C45.1151 35.393 45.6248 35.3715 46.1332 35.3967C46.6106 35.4348 46.9992 35.5627 46.9992 35.9148V34.6928C46.9992 34.3411 46.6106 34.214 46.1336 34.1744C45.6252 34.1492 45.1155 34.1707 44.6109 34.2387C44.1355 34.2935 43.7933 34.3449 43.4351 34.3982C43.0769 34.4515 42.7282 34.5063 42.3848 34.5627C42.0414 34.619 41.7034 34.6769 41.3677 34.7351C41.0319 34.7933 40.6977 34.8539 40.3612 34.9125L39.341 35.0891C38.9965 35.1485 38.6467 35.2079 38.2877 35.2699C37.9287 35.332 37.5644 35.394 37.1838 35.4553C36.8031 35.5166 36.4057 35.5794 35.9934 35.643C35.5812 35.7066 35.1533 35.7743 34.7068 35.8402V34.6171C35.1529 34.5509 35.5823 34.4839 35.9938 34.4195C36.4053 34.3552 36.8027 34.2935 37.1841 34.2322C37.5656 34.1709 37.9302 34.1085 38.2881 34.0465L39.3418 33.8657C39.6844 33.8063 40.0251 33.748 40.3616 33.689L41.368 33.512C42.0557 33.391 42.7449 33.2787 43.4354 33.1751C43.7937 33.1226 44.1359 33.0697 44.6113 33.0152C45.1159 32.9476 45.6255 32.9262 46.134 32.9513C46.611 32.9894 46.9996 33.1176 46.9996 33.4698V32.2452C46.9996 31.893 46.611 31.767 46.134 31.7274C45.6255 31.702 45.1158 31.7234 44.6113 31.7914C44.1359 31.8458 43.7937 31.898 43.4354 31.9509C43.0772 32.0038 42.7285 32.0594 42.3852 32.1153C42.0418 32.1713 41.7038 32.2295 41.368 32.2874L40.3616 32.4652L39.3414 32.6414C38.9969 32.7008 38.647 32.7598 38.2881 32.8222C37.9291 32.8847 37.5648 32.9463 37.1841 33.0076C36.8035 33.0689 36.4057 33.1317 35.993 33.1957C35.5804 33.2596 35.1525 33.327 34.7064 33.3932V32.1698C35.1525 32.1035 35.5796 32.0358 35.9927 31.9718C36.4057 31.9079 36.8027 31.8462 37.1841 31.7842C37.5656 31.7221 37.9291 31.6605 38.2881 31.5988L39.3418 31.418C39.6844 31.3586 40.0251 31.3007 40.3616 31.2413C40.6981 31.182 41.0319 31.123 41.368 31.0643C41.7042 31.0057 42.0414 30.9475 42.3852 30.8915C42.7289 30.8355 43.0772 30.7804 43.4351 30.7274C43.7929 30.6745 44.1359 30.6224 44.6113 30.5679C45.1158 30.4999 45.6255 30.4784 46.134 30.5036C46.6113 30.5417 47 30.67 47 31.0217V29.7986C47 29.4465 46.6113 29.3197 46.1344 29.2801C45.6259 29.2552 45.1162 29.2767 44.6117 29.3445C44.1363 29.3989 43.794 29.4507 43.4358 29.504C43.0776 29.5573 42.7289 29.6121 42.3856 29.6684C42.0422 29.7248 41.7042 29.7826 41.3684 29.8409C41.0327 29.8991 40.6985 29.9596 40.3619 30.0183C40.0254 30.0769 39.6863 30.1355 39.3421 30.1941L38.2885 30.3757C37.5246 30.5077 36.7594 30.6319 35.993 30.7484C35.58 30.8123 35.1525 30.8797 34.7064 30.9463V29.7057C31.1753 30.2585 27.6102 30.5667 24.0367 30.6281C23.9195 30.6281 23.8035 30.6512 23.6953 30.696C23.587 30.7409 23.4887 30.8066 23.4059 30.8895C23.323 30.9723 23.2574 31.0707 23.2126 31.1789C23.1678 31.2872 23.1447 31.4032 23.1448 31.5204V40.428C23.6016 40.428 24.0462 40.4223 24.4817 40.4127C24.9172 40.4032 25.3435 40.3888 25.76 40.3728V40.3728Z" fill="url(#paint1_linear_8753_69623)"/>
<path d="M25.7583 42.8196C26.1752 42.8036 26.5825 42.7854 26.9829 42.7633C27.3834 42.7412 27.7759 42.715 28.163 42.6872C28.5501 42.6594 28.9262 42.627 29.2993 42.5928C29.6723 42.5585 30.0401 42.5246 30.4032 42.4877C30.7664 42.4508 31.1265 42.4138 31.4786 42.3735C32.176 42.2938 32.8726 42.208 33.5685 42.1162C33.9126 42.0701 34.2537 42.0225 34.5963 41.973C34.9389 41.9235 35.2765 41.8699 35.6176 41.817C35.9587 41.764 36.3028 41.7119 36.6454 41.6578C36.988 41.6038 37.3344 41.5474 37.6808 41.49C38.0272 41.4325 38.3755 41.3712 38.7284 41.3103L39.7996 41.1261C40.1608 41.0636 40.527 41.0008 40.8974 40.9357C41.2678 40.8706 41.6443 40.804 42.0273 40.7393C42.4102 40.6746 42.8 40.6118 43.197 40.5512C43.5941 40.4907 43.9561 40.437 44.4532 40.3746C44.9927 40.2974 45.5379 40.2682 46.0825 40.2874C46.5945 40.3225 46.9999 40.453 46.9999 40.8097V39.5851C46.9999 39.2284 46.5945 39.0975 46.0829 39.0628C45.5382 39.0437 44.9928 39.0727 44.4532 39.1496C43.9557 39.2105 43.5937 39.2665 43.197 39.3266C42.8004 39.3868 42.4102 39.4496 42.0273 39.5143C41.6443 39.579 41.2686 39.6449 40.8978 39.7107C40.527 39.7766 40.1612 39.8394 39.7996 39.9011C39.438 39.9627 39.0813 40.024 38.7284 40.0853C38.3755 40.1466 38.0272 40.2071 37.6812 40.265C37.3352 40.3228 36.9895 40.3792 36.6458 40.4325L35.618 40.5927C35.2754 40.646 34.9373 40.6986 34.5966 40.748C34.2559 40.7975 33.9137 40.8459 33.5688 40.8912C33.224 40.9365 32.8783 40.981 32.5304 41.024C32.1825 41.067 31.833 41.1093 31.479 41.1485C31.125 41.1877 30.7668 41.2246 30.4036 41.2627C30.0404 41.3008 29.6727 41.3335 29.2997 41.3674C28.9266 41.4013 28.5482 41.4336 28.163 41.4622C27.7778 41.4907 27.3845 41.5166 26.9829 41.5383C26.5813 41.56 26.1748 41.5787 25.7583 41.5947C25.3419 41.6106 24.9163 41.624 24.4804 41.6327C24.0446 41.6415 23.6003 41.6487 23.1443 41.6487V42.8718C24.0159 42.8691 24.8873 42.8518 25.7583 42.8196V42.8196Z" fill="url(#paint2_linear_8753_69623)"/>
<path d="M46.0827 41.509C45.5381 41.4901 44.9929 41.5191 44.4534 41.5958C43.9559 41.6571 43.5939 41.7123 43.1972 41.7728C42.8005 41.8334 42.4107 41.8962 42.0278 41.9605C41.6448 42.0248 41.2665 42.0915 40.8976 42.1569C40.5287 42.2224 40.161 42.286 39.7998 42.3473L38.7282 42.5315C38.3753 42.592 38.027 42.6537 37.6806 42.7112C37.3342 42.7687 36.9889 42.8254 36.6452 42.8787C36.3014 42.932 35.96 42.986 35.6174 43.0382C35.2748 43.0903 34.9367 43.1436 34.5957 43.1939C34.2546 43.2441 33.9105 43.2921 33.5679 43.3374C32.872 43.4291 32.1753 43.5148 31.478 43.5947C31.124 43.6343 30.7658 43.6708 30.4026 43.7089C30.0395 43.747 29.6721 43.7801 29.2987 43.814C28.9253 43.8479 28.5473 43.8798 28.162 43.9084C27.7768 43.9369 27.3836 43.9624 26.982 43.9845C25.7036 44.0545 24.4236 44.0913 23.1433 44.0949V45.3207C23.6001 45.3207 24.0455 45.3156 24.4795 45.3054C24.9134 45.2953 25.3394 45.2826 25.7573 45.2674C26.1742 45.2514 26.5815 45.2331 26.982 45.211C27.3824 45.1889 27.7749 45.1627 28.162 45.1349C28.5492 45.1071 28.9256 45.074 29.2987 45.0405C29.6717 45.007 30.0391 44.9723 30.4026 44.9358C30.7662 44.8993 31.1259 44.8619 31.478 44.8216C31.8301 44.7812 32.1819 44.7401 32.5298 44.6967C32.8777 44.6533 33.2234 44.6103 33.5675 44.5643C33.9116 44.5182 34.2527 44.471 34.5953 44.4211C34.9379 44.3713 35.2755 44.3176 35.617 44.2654C35.9584 44.2133 36.3022 44.1596 36.6448 44.1056C36.9874 44.0515 37.3334 43.9959 37.6802 43.9377C38.027 43.8794 38.3757 43.8189 38.7286 43.758L39.7998 43.5742L40.8972 43.3838C41.268 43.3187 41.6445 43.2517 42.0278 43.1874C42.4111 43.1231 42.8002 43.0599 43.1972 42.9993C43.5942 42.9388 43.9585 42.8851 44.4534 42.8231C44.9929 42.7466 45.5381 42.7175 46.0827 42.7363C46.5947 42.7702 47.0001 42.9008 47.0001 43.2578V42.0309C47.0001 41.6739 46.5947 41.5444 46.0827 41.509V41.509Z" fill="url(#paint3_linear_8753_69623)"/>
<path d="M25.682 39.153C26.0703 39.1386 26.4433 39.1222 26.8099 39.1028C27.1765 39.0834 27.5332 39.0617 27.8834 39.0369C28.2336 39.0122 28.5823 38.9848 28.9287 38.9551C29.6353 38.8937 30.3414 38.8255 31.0467 38.7507C31.4122 38.7118 31.7852 38.6696 32.1727 38.6224C32.5603 38.5752 32.9638 38.5253 33.3848 38.4701C33.8058 38.4149 34.2459 38.3559 34.7057 38.2866V29.7064C31.1752 30.2591 27.6108 30.5671 24.0379 30.6284C23.9207 30.6284 23.8047 30.6515 23.6965 30.6963C23.5883 30.7412 23.4899 30.8069 23.4071 30.8898C23.3243 30.9726 23.2586 31.071 23.2138 31.1792C23.169 31.2875 23.1459 31.4035 23.146 31.5207V39.2044C23.6085 39.2044 24.0482 39.1991 24.4696 39.1896C24.891 39.1801 25.2933 39.1671 25.682 39.153V39.153Z" fill="#1F2028"/>
<path d="M25.8977 30.9893C25.8539 31.126 25.8326 31.1945 25.7892 31.3319L25.4375 31.3449L25.7219 31.5443L25.613 31.8869C25.7272 31.799 25.7839 31.756 25.8977 31.6677C26.0119 31.7472 26.0675 31.7861 26.1821 31.8649C26.1379 31.7316 26.1166 31.665 26.0732 31.5314L26.358 31.3095C26.2171 31.3163 26.1463 31.3182 26.0058 31.3247L25.8977 30.9893Z" fill="white"/>
<path d="M26.9146 35.2098L26.8061 35.5543L26.4536 35.5718L26.7384 35.7671C26.695 35.9045 26.6733 35.9734 26.6295 36.1097C26.7437 36.021 26.8008 35.9761 26.9146 35.8858C27.0288 35.962 27.0859 36 27.2001 36.0785L27.0908 35.7465L27.3763 35.52C27.2351 35.5292 27.1647 35.5333 27.0239 35.541L26.9146 35.2098Z" fill="white"/>
<path d="M27.0239 37.2497L26.9146 36.9174L26.8061 37.2623L26.4536 37.2794C26.5678 37.3579 26.6245 37.3974 26.7384 37.4747C26.695 37.6125 26.6733 37.681 26.6295 37.8173C26.7437 37.7279 26.8008 37.6829 26.9146 37.5927C27.0288 37.6689 27.0859 37.7092 27.2001 37.7861L27.0908 37.4542L27.3763 37.2277C27.2351 37.2379 27.1647 37.2437 27.0239 37.2497V37.2497Z" fill="white"/>
<path d="M25.8977 34.4035C25.8539 34.5409 25.8323 34.6087 25.7892 34.7461C25.6484 34.7518 25.578 34.7549 25.4375 34.759C25.5517 34.8386 25.6077 34.879 25.7215 34.9578L25.6134 35.3004C25.7276 35.2128 25.7839 35.1683 25.8977 35.0799C26.0119 35.1591 26.0679 35.1987 26.1825 35.2779C26.1383 35.1443 26.1166 35.0777 26.0732 34.9437L26.3583 34.7221C26.2175 34.7286 26.1467 34.732 26.0062 34.7373L25.8977 34.4035Z" fill="white"/>
<path d="M25.8972 36.1108L25.7891 36.4534C25.6483 36.458 25.5775 36.4614 25.437 36.4664L25.7214 36.6651L25.6129 37.0077L25.8972 36.7865L26.1824 36.9841C26.1382 36.8505 26.1165 36.7842 26.0731 36.6502C26.1873 36.5623 26.244 36.517 26.3582 36.4283L26.0061 36.4435L25.8972 36.1108V36.1108Z" fill="white"/>
<path d="M25.8981 32.6963L25.7892 33.0389L25.4375 33.0518L25.7219 33.2509L25.6134 33.5935C25.7276 33.506 25.7843 33.4618 25.8981 33.3735C26.0123 33.4527 26.0679 33.4923 26.1825 33.5711C26.1383 33.4378 26.1166 33.3708 26.0732 33.2372L26.3583 33.0153C26.2175 33.0218 26.1471 33.0252 26.0062 33.0309C25.9632 32.8965 25.9411 32.8303 25.8981 32.6963V32.6963Z" fill="white"/>
<path d="M28.9489 36.7729L28.8404 37.1201C28.6992 37.1322 28.6284 37.1376 28.4875 37.1494C28.6017 37.2255 28.6588 37.2636 28.7727 37.3355L28.6642 37.6831L28.9489 37.4501L29.2337 37.634C29.1972 37.5244 29.1609 37.4147 29.1248 37.3051L29.4095 37.0698C29.2683 37.0831 29.1979 37.0888 29.0574 37.1014C29.014 36.9697 28.9938 36.9046 28.9489 36.7729V36.7729Z" fill="white"/>
<path d="M26.9146 33.5026L26.8061 33.8471C26.6649 33.8547 26.5945 33.8577 26.4536 33.8646L26.7384 34.0595L26.6295 34.404L26.9146 34.1798C27.0288 34.2559 27.0859 34.294 27.2001 34.3724C27.1567 34.2399 27.1342 34.1733 27.0908 34.0401L27.3763 33.8143C27.2351 33.8227 27.1647 33.8277 27.0239 33.8349L26.9146 33.5026Z" fill="white"/>
<path d="M27.9332 35.9998L27.8239 36.3462L27.4722 36.3679L27.7577 36.5582L27.6488 36.9035L27.9339 36.6751L28.219 36.8631L28.1102 36.5327C28.2244 36.4409 28.2811 36.3945 28.3949 36.302L28.0428 36.3287C28.0054 36.2193 27.9689 36.1097 27.9332 35.9998V35.9998Z" fill="white"/>
<path d="M28.0433 38.0374L27.9344 37.707L27.8252 38.053C27.6847 38.0629 27.6139 38.0671 27.4727 38.0762L27.7582 38.2666L27.6493 38.613C27.7635 38.522 27.8202 38.4752 27.9344 38.3846C28.0486 38.4607 28.1053 38.4988 28.2195 38.573L28.1107 38.2426C28.2249 38.1504 28.2816 38.1048 28.3954 38.0119L28.0433 38.0374V38.0374Z" fill="white"/>
<path d="M26.9146 31.7952L26.8061 32.1378C26.6649 32.1454 26.5945 32.1485 26.4536 32.1557L26.7384 32.351C26.695 32.4888 26.6733 32.5577 26.6295 32.6936C26.7437 32.6041 26.8008 32.5596 26.9146 32.4694C27.0288 32.5455 27.0859 32.5836 27.2001 32.6624L27.0908 32.3301C27.205 32.2402 27.2618 32.1942 27.3763 32.1036C27.2351 32.1123 27.1647 32.1169 27.0239 32.1245L26.9146 31.7952Z" fill="white"/>
<path d="M27.9328 34.2928L27.8243 34.6389C27.6831 34.648 27.6134 34.6533 27.4722 34.6617L27.7573 34.852L27.648 35.1981L27.9335 34.9697L28.2187 35.1577L28.1098 34.8269L28.3945 34.5985L28.0424 34.6252L27.9328 34.2928Z" fill="white"/>
<path d="M26.0061 38.1529L25.8972 37.8187L25.7887 38.1613L25.437 38.1746C25.5512 38.2534 25.6076 38.2941 25.7214 38.3733L25.6129 38.7159L25.8972 38.4955L26.1824 38.6934L26.0731 38.3596L26.3582 38.1377L26.0061 38.1529V38.1529Z" fill="white"/>
<path d="M23.8623 34.459L23.753 34.799C23.6118 34.799 23.541 34.799 23.4001 34.8013C23.5143 34.8842 23.5714 34.9261 23.6856 35.0083L23.5764 35.3483L23.8619 35.1355C23.9761 35.2181 24.0332 35.2584 24.1474 35.3407L24.0389 35.0042L24.324 34.7898C24.1828 34.7921 24.1124 34.7944 23.9711 34.7959L23.8623 34.459Z" fill="white"/>
<path d="M23.8623 32.7512L23.753 33.0908C23.6118 33.0908 23.541 33.0927 23.4001 33.0931L23.6856 33.3001L23.5768 33.6401L23.8623 33.428L24.1474 33.6325L24.0389 33.2956C24.1531 33.2103 24.2098 33.1681 24.324 33.0816C24.1832 33.0843 24.1124 33.0854 23.9711 33.0873L23.8623 32.7512V32.7512Z" fill="white"/>
<path d="M23.9692 38.211L23.8599 37.8741L23.7507 38.2133C23.6095 38.2152 23.539 38.2156 23.3982 38.2164L23.6837 38.4231L23.5748 38.7634L23.8599 38.551L24.1454 38.7562C24.109 38.6437 24.0727 38.5311 24.0366 38.4185L24.3217 38.2046C24.182 38.208 24.1119 38.2084 23.9692 38.211V38.211Z" fill="white"/>
<path d="M27.6477 33.4913L27.9324 33.2629C28.0466 33.339 28.1041 33.3771 28.2179 33.4513L28.1094 33.1205L28.3942 32.8894C28.2529 32.9009 28.1829 32.9062 28.0421 32.9165L27.9328 32.5864L27.8239 32.9317C27.6835 32.9416 27.6127 32.9458 27.4714 32.9553L27.7569 33.1456L27.6477 33.4913V33.4913Z" fill="white"/>
<path d="M27.6477 31.783C27.7619 31.692 27.819 31.6463 27.9328 31.5546C28.047 31.6307 28.1041 31.6688 28.2179 31.7426L28.1094 31.4122C28.2236 31.3205 28.2804 31.274 28.3942 31.1815C28.2529 31.193 28.1829 31.1979 28.0421 31.2082L27.9328 30.8774L27.8239 31.2234C27.6835 31.2337 27.6127 31.2383 27.4714 31.247L27.7569 31.4373L27.6477 31.783Z" fill="white"/>
<path d="M23.8623 36.1667L23.7526 36.5066H23.4001L23.6856 36.7148L23.5764 37.054L23.8619 36.8416L24.1474 37.0464L24.0389 36.7095L24.3236 36.4956C24.1828 36.4982 24.1124 36.4994 23.9711 36.5013L23.8623 36.1667V36.1667Z" fill="white"/>
<path d="M24.8802 31.8758L24.7713 32.2165C24.6305 32.2199 24.5601 32.2222 24.4185 32.2252L24.704 32.4281L24.5951 32.7707L24.8802 32.5538L25.1657 32.7548L25.0565 32.4194L25.3416 32.2009L24.9898 32.2119C24.9457 32.0779 24.924 32.0109 24.8802 31.8758V31.8758Z" fill="white"/>
<path d="M24.8802 33.5842L24.7713 33.9268L24.4185 33.9352C24.5327 34.0167 24.5898 34.0566 24.704 34.1373C24.6602 34.2736 24.6385 34.3425 24.5951 34.4799C24.7093 34.3931 24.766 34.3505 24.8798 34.2633C24.994 34.344 25.0515 34.3836 25.1657 34.4636L25.0565 34.1286L25.3416 33.9105L24.9891 33.9215C24.9453 33.7852 24.924 33.7186 24.8802 33.5842V33.5842Z" fill="white"/>
<path d="M24.989 37.3344L24.8801 36.999L24.7712 37.3416C24.63 37.3454 24.5592 37.347 24.418 37.35L24.7038 37.5525L24.5946 37.8951L24.8797 37.6785L25.1656 37.8795L25.0563 37.5441L25.3415 37.3256L24.989 37.3344Z" fill="white"/>
<path d="M24.8798 35.2918L24.771 35.6344C24.6301 35.6378 24.5593 35.6401 24.4185 35.6424L24.7036 35.8453C24.6598 35.9816 24.6381 36.0505 24.5947 36.1879L24.8798 35.9709L25.1653 36.1719C25.1219 36.0379 25.1002 35.9709 25.0561 35.8369C25.1703 35.7501 25.2278 35.7056 25.3416 35.618C25.2003 35.6226 25.1299 35.6257 24.9891 35.6298L24.8798 35.2918V35.2918Z" fill="white"/>
<path d="M23.8623 31.044L23.7534 31.3839C23.6122 31.3839 23.541 31.3862 23.4001 31.387C23.5143 31.47 23.5718 31.5118 23.6856 31.5937L23.5768 31.9329L23.8623 31.7216C23.9765 31.8038 24.0336 31.8442 24.1478 31.9256L24.0393 31.5891L24.3248 31.3748C24.1836 31.3779 24.1124 31.3794 23.9711 31.3813L23.8623 31.044V31.044Z" fill="white"/>
<path d="M28.9485 35.0662L28.84 35.4133C28.6988 35.4255 28.6288 35.4308 28.4875 35.4423C28.6017 35.5184 28.6585 35.5542 28.7723 35.628L28.6638 35.976C28.778 35.8831 28.8347 35.8359 28.9485 35.7426L29.2333 35.9265L29.1244 35.598L29.4091 35.3627C29.2679 35.376 29.1975 35.3817 29.057 35.3943C29.0136 35.2637 28.9935 35.1979 28.9485 35.0662V35.0662Z" fill="white"/>
<path d="M33.0171 34.63L32.9078 34.9821L32.5549 35.0267L32.8401 35.2002L32.7308 35.5524L33.0167 35.3072C33.1309 35.3757 33.188 35.4108 33.3022 35.4797L33.1929 35.1553L33.4788 34.9087L33.1259 34.9547L33.0171 34.63Z" fill="white"/>
<path d="M33.0171 32.9233C32.9733 33.0646 32.9512 33.1342 32.9078 33.2755C32.7666 33.2933 32.6958 33.3025 32.5549 33.3192C32.6691 33.3897 32.7262 33.4239 32.8404 33.4936L32.7316 33.8453C32.8458 33.7471 32.9029 33.6988 33.0171 33.6002L33.3026 33.7726L33.1933 33.4487L33.4792 33.2016C33.3383 33.2199 33.2672 33.2298 33.1263 33.2477L33.0171 32.9233V32.9233Z" fill="white"/>
<path d="M33.1256 36.6615L33.0167 36.3372L32.9074 36.6897C32.7666 36.7068 32.6958 36.7167 32.5549 36.7335L32.8401 36.9075L32.7308 37.2596L33.0163 37.0144C33.1305 37.0833 33.188 37.1176 33.3018 37.1869L33.1929 36.8629L33.4784 36.6159L33.1256 36.6615V36.6615Z" fill="white"/>
<path d="M32.0021 32.194C31.959 32.3345 31.9377 32.4049 31.8939 32.5458L31.543 32.5861L31.8269 32.7624L31.7188 33.1137C31.833 33.017 31.8886 32.9683 32.0021 32.8712L32.2864 33.046L32.1775 32.7209L32.463 32.4769L32.1105 32.5199C32.0728 32.4118 32.0367 32.3032 32.0021 32.194V32.194Z" fill="white"/>
<path d="M33.0174 31.2148L32.9078 31.5669C32.7666 31.5848 32.6962 31.5935 32.5549 31.6107L32.8408 31.785L32.7316 32.1375C32.8458 32.0397 32.9029 31.9894 33.0171 31.8916L33.3029 32.0648C33.2668 31.9565 33.2303 31.8483 33.1937 31.7401C33.3079 31.6423 33.3654 31.5916 33.4796 31.4931L33.1263 31.5391L33.0174 31.2148Z" fill="white"/>
<path d="M32.0021 30.4874C31.959 30.6275 31.9377 30.6983 31.8939 30.8387L31.543 30.8791C31.6572 30.9491 31.7139 30.9849 31.8269 31.0553L31.7188 31.4063C31.833 31.3096 31.8886 31.2609 32.0021 31.1638L32.2868 31.3385L32.1779 31.0138C32.2921 30.916 32.3485 30.8673 32.463 30.7698L32.1105 30.8128C32.073 30.7048 32.0368 30.5963 32.0021 30.4874V30.4874Z" fill="white"/>
<path d="M34.0351 33.6417L33.9258 33.9954C33.785 34.0144 33.7146 34.0243 33.5737 34.0426L33.8588 34.2135L33.7496 34.5667L34.0347 34.3185L34.3195 34.4879C34.2757 34.3589 34.2544 34.2942 34.211 34.1648C34.3252 34.065 34.3815 34.0155 34.4949 33.915C34.3545 33.9356 34.2844 33.9447 34.144 33.9649L34.0351 33.6417V33.6417Z" fill="white"/>
<path d="M34.0362 31.9341L33.927 32.287C33.7861 32.3068 33.7157 32.316 33.5745 32.335C33.6887 32.4039 33.7454 32.437 33.8592 32.5051L33.7503 32.8592L34.0358 32.6102L34.3202 32.7804C34.2764 32.6509 34.2551 32.5862 34.2117 32.4564C34.3259 32.3567 34.3822 32.3072 34.4957 32.2071L34.1447 32.2569L34.0362 31.9341V31.9341Z" fill="white"/>
<path d="M34.1427 37.3798L34.0342 37.0566L33.925 37.4098C33.7845 37.4293 33.7137 37.4388 33.5732 37.4574L33.858 37.6283L33.7487 37.9824C33.8629 37.8834 33.9204 37.8328 34.0342 37.733L34.3186 37.9032L34.2097 37.5796L34.4941 37.3299C34.3536 37.3505 34.2851 37.3604 34.1427 37.3798Z" fill="white"/>
<path d="M34.0366 30.226L33.9273 30.5797C33.7865 30.5991 33.7157 30.609 33.5745 30.6276L33.8603 30.7982L33.7507 31.151L34.0366 30.9032C34.1508 30.971 34.2071 31.0052 34.3209 31.0722C34.2776 30.9432 34.2555 30.8785 34.2125 30.749C34.3267 30.6493 34.3826 30.5998 34.4961 30.4993C34.356 30.5199 34.2859 30.5302 34.1455 30.5496L34.0366 30.226Z" fill="white"/>
<path d="M34.0351 35.3489L33.9258 35.7022L33.5737 35.7494L33.8585 35.9207L33.7496 36.2736L34.0347 36.0258L34.3191 36.1948L34.2106 35.8716C34.3248 35.7719 34.3811 35.7224 34.4946 35.6219C34.3545 35.6428 34.2841 35.6523 34.1432 35.6717L34.0351 35.3489V35.3489Z" fill="white"/>
<path d="M32.0024 33.9019C31.9594 34.0424 31.9381 34.1128 31.8943 34.2533L31.543 34.294C31.6572 34.3644 31.7139 34.4006 31.8273 34.4706L31.7192 34.8216L32.0024 34.5787L32.2872 34.7538L32.1783 34.4288C32.2925 34.3313 32.3488 34.2822 32.4634 34.1848C32.3222 34.2023 32.251 34.2106 32.1109 34.2274L32.0024 33.9019Z" fill="white"/>
<path d="M28.9489 31.6509L28.8404 31.998C28.6992 32.0102 28.6284 32.0163 28.4875 32.0274L28.7727 32.2139L28.6642 32.5614C28.7784 32.4686 28.8351 32.421 28.9489 32.3277C29.0631 32.4038 29.1195 32.4385 29.2337 32.5119L29.1248 32.1834C29.239 32.0898 29.2957 32.0414 29.4095 31.9478L29.0574 31.9798C29.014 31.8477 28.9938 31.7826 28.9489 31.6509V31.6509Z" fill="white"/>
<path d="M29.9661 35.8262L29.8573 36.1753C29.7164 36.1886 29.6456 36.1955 29.5044 36.208L29.7899 36.3904L29.6806 36.7395L29.9661 36.5031C30.0803 36.5761 30.1374 36.6119 30.2516 36.6846L30.1424 36.3573C30.2566 36.2629 30.3133 36.2149 30.4275 36.1197L30.0754 36.1547C30.0316 36.0253 30.0095 35.9579 29.9661 35.8262V35.8262Z" fill="white"/>
<path d="M32.0024 35.6088L31.8943 35.9602C31.7539 35.9765 31.6838 35.9853 31.543 36.0009C31.6572 36.0721 31.7135 36.1075 31.8273 36.1775L31.7188 36.5281C31.833 36.4314 31.889 36.3831 32.0024 36.286L32.2868 36.4608L32.1783 36.136C32.2925 36.0382 32.3488 35.9891 32.4634 35.8917C32.3222 35.9092 32.251 35.9172 32.1109 35.9343C32.0732 35.8263 32.0371 35.7178 32.0024 35.6088V35.6088Z" fill="white"/>
<path d="M29.9661 32.4114L29.8573 32.7601L29.5044 32.7932L29.7899 32.9755L29.6806 33.3246C29.7948 33.2298 29.8523 33.183 29.9661 33.0882C30.0803 33.1609 30.1374 33.1967 30.2516 33.2698C30.2079 33.1385 30.1858 33.073 30.1428 32.9416C30.257 32.8469 30.3137 32.8 30.4279 32.7045L30.0754 32.7391L29.9661 32.4114Z" fill="white"/>
<path d="M29.9661 37.5341L29.8573 37.8827C29.7164 37.8965 29.6456 37.9029 29.5044 37.9159L29.7899 38.0982L29.6806 38.4477L29.9661 38.2109L30.2516 38.3928L30.1424 38.0647C30.2566 37.9703 30.3133 37.9227 30.4275 37.8276L30.0754 37.8618L29.9661 37.5341V37.5341Z" fill="white"/>
<path d="M28.9485 33.3607L28.84 33.7082C28.6988 33.72 28.6288 33.7261 28.4875 33.7371C28.6017 33.8133 28.6585 33.8513 28.7723 33.9233L28.6638 34.2708L28.9485 34.0375C29.0627 34.1113 29.1191 34.1483 29.2333 34.2213L29.1244 33.8928L29.4091 33.6576C29.2679 33.6709 29.1975 33.6766 29.057 33.6896L28.9485 33.3607Z" fill="white"/>
<path d="M29.9665 30.7039L29.8573 31.053C29.7164 31.0667 29.6456 31.0728 29.5044 31.0857L29.7895 31.2684L29.6806 31.6168L29.9665 31.3807C30.0807 31.4527 30.1371 31.49 30.2516 31.5623L30.1428 31.2346C30.257 31.1402 30.3137 31.0922 30.4283 30.997C30.287 31.0111 30.2166 31.0187 30.0754 31.0321L29.9665 30.7039V30.7039Z" fill="white"/>
<path d="M29.9661 34.1188L29.8573 34.4675L29.5044 34.5025L29.7899 34.6852L29.681 35.0343L29.9661 34.7975L30.2516 34.9791L30.1428 34.6513L30.4279 34.4138C30.287 34.4283 30.2166 34.4351 30.0754 34.4488C30.032 34.3152 30.0099 34.2505 29.9661 34.1188V34.1188Z" fill="white"/>
<path d="M32.1085 37.643C32.0651 37.5132 32.0438 37.4474 32 37.3172L31.8919 37.6686C31.7514 37.6857 31.6814 37.6929 31.5405 37.7089L31.8245 37.8855L31.7164 38.2369C31.8306 38.1402 31.8866 38.0907 32 37.9936C32.1142 38.0641 32.1709 38.0995 32.2847 38.1691L32.1759 37.844L32.461 37.5997L32.1085 37.643Z" fill="white"/>
<path d="M31.0939 36.9043L30.9851 36.5773L30.8758 36.9279L30.5237 36.966L30.8088 37.146L30.6999 37.4959L30.9854 37.2564L31.2702 37.4354L31.1609 37.1087C31.2751 37.0128 31.3322 36.9641 31.446 36.8674C31.3052 36.8815 31.2348 36.8895 31.0939 36.9043V36.9043Z" fill="white"/>
<path d="M30.9851 31.455L30.8762 31.8048C30.7353 31.82 30.6645 31.8261 30.5237 31.8429L30.8088 32.0233L30.6999 32.3731L30.9854 32.1337L31.2702 32.3122L31.1609 31.986L31.446 31.745L31.0939 31.7831L30.9851 31.455V31.455Z" fill="white"/>
<path d="M30.9851 34.87L30.8762 35.2198L30.5237 35.2579L30.8092 35.4376L30.7003 35.7874L30.9854 35.5487L31.2706 35.7265L31.1613 35.4006L31.4464 35.1597C31.3056 35.1749 31.2348 35.1833 31.0943 35.1977L30.9851 34.87V34.87Z" fill="white"/>
<path d="M30.9854 33.1622C30.942 33.3026 30.92 33.3719 30.8762 33.5124C30.7357 33.5276 30.6645 33.5341 30.5237 33.5485L30.8092 33.7282L30.7003 34.0781L30.9854 33.8394L31.2706 34.0175L31.1613 33.6913C31.2755 33.5954 31.3326 33.5466 31.4464 33.4503C31.306 33.4663 31.2351 33.4736 31.0943 33.4884L30.9854 33.1622Z" fill="white"/>
<defs>
<linearGradient id="paint0_linear_8753_69623" x1="59.2836" y1="48.3154" x2="-9.42124" y2="6.9903" gradientUnits="userSpaceOnUse">
<stop stop-color="#5433FF"/>
<stop offset="0.5" stop-color="#20BDFF"/>
<stop offset="1" stop-color="#5CFFA2"/>
</linearGradient>
<linearGradient id="paint1_linear_8753_69623" x1="23.1452" y1="34.847" x2="46.9992" y2="34.847" gradientUnits="userSpaceOnUse">
<stop stop-color="#DFDFDF"/>
<stop offset="0.021" stop-color="#E1E1E1"/>
<stop offset="0.244" stop-color="#F2F2F2"/>
<stop offset="0.487" stop-color="#FCFCFC"/>
<stop offset="0.791" stop-color="white"/>
<stop offset="0.841" stop-color="#FCFCFC"/>
<stop offset="0.882" stop-color="#F2F2F2"/>
<stop offset="0.919" stop-color="#E1E1E1"/>
<stop offset="0.954" stop-color="#C9C9C9"/>
<stop offset="0.966" stop-color="#BFBFBF"/>
<stop offset="1" stop-color="white"/>
</linearGradient>
<linearGradient id="paint2_linear_8753_69623" x1="23.1454" y1="40.9635" x2="46.9995" y2="40.9635" gradientUnits="userSpaceOnUse">
<stop stop-color="#DFDFDF"/>
<stop offset="0.021" stop-color="#E1E1E1"/>
<stop offset="0.244" stop-color="#F2F2F2"/>
<stop offset="0.487" stop-color="#FCFCFC"/>
<stop offset="0.791" stop-color="white"/>
<stop offset="0.841" stop-color="#FCFCFC"/>
<stop offset="0.882" stop-color="#F2F2F2"/>
<stop offset="0.919" stop-color="#E1E1E1"/>
<stop offset="0.954" stop-color="#C9C9C9"/>
<stop offset="0.966" stop-color="#BFBFBF"/>
<stop offset="1" stop-color="white"/>
</linearGradient>
<linearGradient id="paint3_linear_8753_69623" x1="23.146" y1="43.4101" x2="47.0001" y2="43.4101" gradientUnits="userSpaceOnUse">
<stop stop-color="#DFDFDF"/>
<stop offset="0.021" stop-color="#E1E1E1"/>
<stop offset="0.244" stop-color="#F2F2F2"/>
<stop offset="0.487" stop-color="#FCFCFC"/>
<stop offset="0.791" stop-color="white"/>
<stop offset="0.841" stop-color="#FCFCFC"/>
<stop offset="0.882" stop-color="#F2F2F2"/>
<stop offset="0.919" stop-color="#E1E1E1"/>
<stop offset="0.954" stop-color="#C9C9C9"/>
<stop offset="0.966" stop-color="#BFBFBF"/>
<stop offset="1" stop-color="white"/>
</linearGradient>
</defs>
</svg>
