<svg width="64" height="64" viewBox="0 0 64 64" fill="none" xmlns="http://www.w3.org/2000/svg">
<circle cx="32" cy="32" r="32" fill="#1F2028"/>
<mask id="mask0_8753_69701" style="mask-type:alpha" maskUnits="userSpaceOnUse" x="0" y="0" width="64" height="64">
<circle cx="32" cy="32" r="31.5" fill="#1F2028" stroke="white"/>
</mask>
<g mask="url(#mask0_8753_69701)">
<path opacity="0.8" fill-rule="evenodd" clip-rule="evenodd" d="M32 72.2117L0.960539 8.98305L9.03955 5.01699L32 51.7884L54.9605 5.017L63.0396 8.98306L32 72.2117Z" fill="white"/>
</g>
<circle opacity="0.8" cx="32" cy="32" r="28" fill="url(#paint0_linear_8753_69701)"/>
<circle cx="32" cy="32" r="24" fill="#1F2028"/>
<path d="M46.4937 26.6973L35.5144 45.7143C35.1824 46.2878 34.7055 46.764 34.1314 47.095C33.5573 47.426 32.9063 47.6002 32.2436 47.6002C31.5809 47.6002 30.9299 47.426 30.3558 47.095C29.7817 46.764 29.3048 46.2878 28.9728 45.7143L27.0481 42.3831C27.0419 42.3748 27.0392 42.3645 27.0407 42.3542C27.0422 42.344 27.0476 42.3348 27.0559 42.3286C27.0642 42.3224 27.0746 42.3197 27.0848 42.3212C27.095 42.3226 27.1042 42.3281 27.1104 42.3364C27.4538 42.6753 27.8701 42.9312 28.3275 43.0845C28.785 43.2379 29.2714 43.2846 29.7497 43.221C30.2279 43.1575 30.6853 42.9854 31.0868 42.7179C31.4883 42.4505 31.8234 42.0947 32.0663 41.6779L41.2573 25.7428C41.4996 25.322 41.6418 24.8512 41.673 24.3667C41.7041 23.8822 41.6233 23.397 41.4368 22.9488C41.2504 22.5005 40.9632 22.1012 40.5977 21.7817C40.2321 21.4622 39.7979 21.2311 39.3287 21.1064C39.3184 21.1064 39.3085 21.1023 39.3011 21.095C39.2938 21.0876 39.2897 21.0777 39.2897 21.0674C39.2897 21.0571 39.2938 21.0472 39.3011 21.0399C39.3085 21.0325 39.3184 21.0284 39.3287 21.0284H43.2248C43.8879 21.0292 44.5391 21.2043 45.113 21.5363C45.687 21.8683 46.1635 22.3454 46.4947 22.9198C46.8259 23.4942 47.0002 24.1457 47 24.8087C46.9998 25.4718 46.8252 26.1231 46.4937 26.6973V26.6973ZM33.4962 21.0284H29.6897C29.6819 21.031 29.6751 21.036 29.6703 21.0426C29.6655 21.0493 29.6629 21.0573 29.6629 21.0655C29.6629 21.0737 29.6655 21.0817 29.6703 21.0883C29.6751 21.095 29.6819 21.0999 29.6897 21.1025C29.9461 21.2015 30.178 21.3547 30.3698 21.5516C30.5615 21.7486 30.7084 21.9846 30.8005 22.2435C30.8926 22.5025 30.9277 22.7782 30.9035 23.052C30.8792 23.3258 30.7961 23.5911 30.6598 23.8298L25.1117 33.4259C24.9684 33.6693 24.773 33.8778 24.5394 34.0367C24.3059 34.1955 24.0401 34.3007 23.7612 34.3447C23.4822 34.3886 23.1969 34.3702 22.9259 34.2909C22.6549 34.2115 22.4048 34.0731 22.1935 33.8857C22.1873 33.8774 22.1781 33.8719 22.1679 33.8705C22.1576 33.869 22.1473 33.8717 22.139 33.8779C22.1307 33.8841 22.1253 33.8933 22.1238 33.9035C22.1223 33.9138 22.125 33.9241 22.1312 33.9324L24.0793 37.3143C24.298 37.6938 24.6128 38.009 24.9921 38.2281C25.3713 38.4473 25.8016 38.5627 26.2397 38.5627C26.6777 38.5627 27.108 38.4473 27.4872 38.2281C27.8665 38.009 28.1813 37.6938 28.4001 37.3143L35.6585 24.7687C35.8775 24.3894 35.9927 23.9592 35.9926 23.5212C35.9925 23.0833 35.877 22.6531 35.6578 22.2739C35.4386 21.8948 35.1234 21.5801 34.744 21.3614C34.3645 21.1428 33.9341 21.0279 33.4962 21.0284V21.0284ZM20.2844 21.0284C19.6348 21.0284 18.9998 21.2211 18.4597 21.582C17.9196 21.9429 17.4986 22.4558 17.25 23.056C17.0014 23.6561 16.9364 24.3165 17.0631 24.9536C17.1898 25.5908 17.5027 26.176 17.962 26.6353C18.4213 27.0947 19.0066 27.4075 19.6437 27.5342C20.2808 27.6609 20.9412 27.5959 21.5413 27.3473C22.1415 27.0987 22.6544 26.6777 23.0153 26.1376C23.3762 25.5975 23.5689 24.9625 23.5689 24.3129C23.5694 23.8814 23.4848 23.4541 23.3199 23.0554C23.155 22.6567 22.9131 22.2944 22.608 21.9893C22.3029 21.6842 21.9407 21.4423 21.5419 21.2774C21.1432 21.1125 20.7159 21.0279 20.2844 21.0284V21.0284Z" fill="white"/>
<defs>
<linearGradient id="paint0_linear_8753_69701" x1="59.2836" y1="48.3154" x2="-9.42124" y2="6.9903" gradientUnits="userSpaceOnUse">
<stop stop-color="#5433FF"/>
<stop offset="0.5" stop-color="#20BDFF"/>
<stop offset="1" stop-color="#5CFFA2"/>
</linearGradient>
</defs>
</svg>
