<svg width="24" height="24" viewBox="0 0 24 24" fill="none" xmlns="http://www.w3.org/2000/svg">
<g clip-path="url(#clip0_8_2924)">
<circle cx="12" cy="12" r="12" fill="#2C333A"/>
<path d="M17.0906 6H19.1719L14.8406 10.2885C13.2721 11.8407 10.729 11.8407 9.15935 10.2885L4.82642 6H6.90935L10.2 9.25772C10.6794 9.73025 11.3255 9.99514 11.9987 9.99514C12.6719 9.99514 13.318 9.73025 13.7974 9.25772L17.0906 6Z" fill="white"/>
<path d="M6.88271 17.925H4.80005L9.15942 13.6101C10.728 12.0579 13.271 12.0579 14.8407 13.6101L19.2 17.925H17.1188L13.8 14.6409C13.3206 14.1683 12.6745 13.9034 12.0013 13.9034C11.3282 13.9034 10.682 14.1683 10.2026 14.6409L6.88271 17.925Z" fill="white"/>
</g>
<defs>
<clipPath id="clip0_8_2924">
<rect width="24" height="24" fill="white"/>
</clipPath>
</defs>
</svg>
