<svg width="32" height="32" viewBox="0 0 32 32" fill="none" xmlns="http://www.w3.org/2000/svg">
<path fill-rule="evenodd" clip-rule="evenodd" d="M17.0417 4.46017C16.4827 3.84665 15.5173 3.84665 14.9583 4.46017L13.9823 5.53135C13.6115 5.93835 13.0376 6.09212 12.513 5.92506L11.1322 5.48536C10.3414 5.23352 9.50525 5.71626 9.32792 6.52708L9.01831 7.94272C8.90068 8.4806 8.48057 8.90071 7.94269 9.01834L6.52705 9.32795C5.71623 9.50528 5.23349 10.3414 5.48533 11.1323L5.92503 12.513C6.09209 13.0377 5.93832 13.6116 5.53132 13.9824L4.46014 14.9583C3.84662 15.5173 3.84662 16.4828 4.46014 17.0417L5.53132 18.0177C5.93832 18.3885 6.09209 18.9624 5.92503 19.487L5.48533 20.8678C5.23349 21.6587 5.71623 22.4948 6.52705 22.6721L7.94269 22.9817C8.48057 23.0994 8.90068 23.5195 9.01831 24.0573L9.32792 25.473C9.50525 26.2838 10.3414 26.7665 11.1322 26.5147L12.513 26.075C13.0376 25.9079 13.6115 26.0617 13.9823 26.4687L14.9583 27.5399C15.5173 28.1534 16.4827 28.1534 17.0417 27.5399L18.0177 26.4687C18.3885 26.0617 18.9624 25.9079 19.487 26.075L20.8678 26.5147C21.6586 26.7665 22.4948 26.2838 22.6721 25.473L22.9817 24.0573C23.0993 23.5195 23.5194 23.0994 24.0573 22.9817L25.473 22.6721C26.2838 22.4948 26.7665 21.6587 26.5147 20.8678L26.075 19.487C25.9079 18.9624 26.0617 18.3885 26.4687 18.0177L27.5399 17.0417C28.1534 16.4828 28.1534 15.5173 27.5399 14.9583L26.4687 13.9824C26.0617 13.6116 25.9079 13.0377 26.075 12.513L26.5147 11.1323C26.7665 10.3414 26.2838 9.50528 25.4729 9.32795L24.0573 9.01834C23.5194 8.90071 23.0993 8.4806 22.9817 7.94273L22.6721 6.52708C22.4948 5.71626 21.6586 5.23352 20.8678 5.48536L19.487 5.92506C18.9624 6.09212 18.3885 5.93835 18.0177 5.53135L17.0417 4.46017ZM21.1474 19.6813C21.2714 19.3999 21.3335 19.1025 21.3335 18.789C21.3335 18.4754 21.2714 18.182 21.1474 17.9087C21.0234 17.6273 20.8539 17.3862 20.6389 17.1852C20.4322 16.9762 20.1841 16.8114 19.8947 16.6908C19.6053 16.5702 19.2994 16.5099 18.9769 16.5099C18.6544 16.5099 18.3484 16.5702 18.059 16.6908C17.7696 16.8114 17.5174 16.9762 17.3025 17.1852C17.0957 17.3862 16.9304 17.6273 16.8063 17.9087C16.6823 18.182 16.6203 18.4754 16.6203 18.789C16.6203 19.1025 16.6823 19.3999 16.8063 19.6813C16.9304 19.9546 17.0957 20.1958 17.3025 20.4048C17.5174 20.6058 17.7696 20.7666 18.059 20.8872C18.3484 21.0077 18.6544 21.068 18.9769 21.068C19.2994 21.068 19.6053 21.0077 19.8947 20.8872C20.1841 20.7666 20.4322 20.6058 20.6389 20.4048C20.8539 20.1958 21.0234 19.9546 21.1474 19.6813ZM19.8575 18.4272C19.9154 18.5398 19.9443 18.6603 19.9443 18.789C19.9443 18.9176 19.9154 19.0382 19.8575 19.1507C19.8079 19.2633 19.7376 19.3638 19.6466 19.4522C19.564 19.5326 19.4647 19.5969 19.349 19.6451C19.2332 19.6934 19.1092 19.7175 18.9769 19.7175C18.7123 19.7175 18.4849 19.6291 18.2947 19.4522C18.1045 19.2673 18.0094 19.0462 18.0094 18.789C18.0094 18.5317 18.1045 18.3106 18.2947 18.1257C18.4849 17.9408 18.7123 17.8484 18.9769 17.8484C19.1092 17.8484 19.2332 17.8725 19.349 17.9208C19.4647 17.969 19.564 18.0373 19.6466 18.1257C19.7376 18.2061 19.8079 18.3066 19.8575 18.4272ZM15.1939 15.4126C15.318 15.1312 15.38 14.8338 15.38 14.5202C15.38 14.1987 15.318 13.9012 15.1939 13.6279C15.0699 13.3465 14.9004 13.1054 14.6854 12.9044C14.4787 12.6954 14.2306 12.5346 13.9412 12.422C13.6518 12.3015 13.3459 12.2412 13.0234 12.2412C12.7009 12.2412 12.395 12.3015 12.1056 12.422C11.8161 12.5346 11.564 12.6954 11.349 12.9044C11.1422 13.1054 10.9769 13.3465 10.8528 13.6279C10.7288 13.9012 10.6668 14.1987 10.6668 14.5202C10.6668 14.8338 10.7288 15.1312 10.8528 15.4126C10.9769 15.6859 11.1422 15.9271 11.349 16.1361C11.564 16.3371 11.8161 16.4978 12.1056 16.6184C12.395 16.739 12.7009 16.7993 13.0234 16.7993C13.3459 16.7993 13.6518 16.739 13.9412 16.6184C14.2306 16.4978 14.4787 16.3371 14.6854 16.1361C14.9004 15.9271 15.0699 15.6859 15.1939 15.4126ZM13.7056 13.857C13.8957 14.0419 13.9908 14.263 13.9908 14.5202C13.9908 14.7775 13.8957 14.9986 13.7056 15.1835C13.5154 15.3603 13.288 15.4487 13.0234 15.4487C12.7588 15.4487 12.5314 15.3603 12.3412 15.1835C12.151 14.9986 12.0559 14.7775 12.0559 14.5202C12.0559 14.263 12.151 14.0419 12.3412 13.857C12.5314 13.6721 12.7588 13.5797 13.0234 13.5797C13.288 13.5797 13.5154 13.6721 13.7056 13.857ZM12.8745 20.8028L13.9784 21.3333L19.1505 12.5426L17.997 12L12.8745 20.8028Z" fill="black"/>
</svg>
